<svg xmlns="http://www.w3.org/2000/svg" width="295" height="295" viewBox="0 0 295 295"><g transform="translate(-813.264 -11081)"><rect width="295" height="295" transform="translate(813.264 11081)" fill="#29abe2"/><rect width="73.75" height="73.75" transform="translate(813.264 11302.25)" fill="#29abe2"/><rect width="73.75" height="73.75" transform="translate(887.01 11302.25)" fill="#5fc0e9"/><rect width="73.75" height="73.75" transform="translate(960.76 11302.25)" fill="#94d5f1"/><rect width="73.75" height="73.75" transform="translate(1034.264 11302.25)" fill="#caeaf8"/><path d="M132.494,21.813h-5.637L125.873,25h-4.395l6.258-17.062H131.6L137.908,25H133.49Zm-4.652-3.176h3.668l-1.84-5.918Zm15.926,3.316h5.777V25h-10.77V22.8l5.625-7.43h-5.379V12.32h10.395v2.133Zm15.246,1.676a4.072,4.072,0,0,1-3.387,1.605,3.993,3.993,0,0,1-3.158-1.213,5.1,5.1,0,0,1-1.072-3.486V12.32h3.949v8.238a1.419,1.419,0,0,0,1.582,1.629,2.064,2.064,0,0,0,1.934-.973V12.32h3.973V25h-3.7ZM169.162,25H165.2V7h3.961Z" transform="translate(816.264 11183)" fill="#fff"/></g></svg>