<svg xmlns="http://www.w3.org/2000/svg" width="295" height="295" viewBox="0 0 295 295"><g transform="translate(-813.264 -11741)"><rect width="295" height="295" transform="translate(813.264 11741)"/><rect width="73.75" height="73.75" transform="translate(813.264 11962.25)"/><rect width="73.75" height="73.75" transform="translate(887.01 11962.25)" fill="#404040"/><rect width="73.75" height="73.75" transform="translate(960.76 11962.25)" fill="gray"/><rect width="73.75" height="73.75" transform="translate(1034.264 11962.25)" fill="silver"/><path d="M128.6,25h-4.09l-6.047-10.617V25h-4.113V7.938h4.113L124.5,18.555V7.938h4.1Zm8.555.234a6.518,6.518,0,0,1-4.723-1.74,6.009,6.009,0,0,1-1.8-4.529v-.328a7.787,7.787,0,0,1,.721-3.434,5.274,5.274,0,0,1,2.1-2.3,6.35,6.35,0,0,1,3.281-.814,5.489,5.489,0,0,1,4.219,1.658,6.516,6.516,0,0,1,1.547,4.623V19.9H134.65a2.846,2.846,0,0,0,.926,1.676,2.755,2.755,0,0,0,1.852.609,3.549,3.549,0,0,0,2.93-1.312l1.8,2.133a5.045,5.045,0,0,1-2.092,1.623A7.069,7.069,0,0,1,137.158,25.234Zm-.445-10.1q-1.734,0-2.062,2.3h3.984v-.3a1.956,1.956,0,0,0-.48-1.471A1.912,1.912,0,0,0,136.713,15.133Zm6.914,3.434a8.561,8.561,0,0,1,.633-3.4,5.094,5.094,0,0,1,1.816-2.279,4.788,4.788,0,0,1,2.754-.8,3.807,3.807,0,0,1,3.094,1.336l.141-1.1h3.586v12.2a5.346,5.346,0,0,1-.779,2.912,5,5,0,0,1-2.256,1.9,8.292,8.292,0,0,1-3.422.662,7.153,7.153,0,0,1-2.7-.527,4.876,4.876,0,0,1-2-1.371l1.652-2.32a3.621,3.621,0,0,0,2.906,1.3q2.625,0,2.625-2.7v-.4a3.708,3.708,0,0,1-2.871,1.254,4.583,4.583,0,0,1-3.75-1.775,7.356,7.356,0,0,1-1.43-4.752Zm3.961.246a4.511,4.511,0,0,0,.586,2.467,1.849,1.849,0,0,0,1.641.908,2.1,2.1,0,0,0,1.863-.855V16a2.045,2.045,0,0,0-1.84-.867,1.861,1.861,0,0,0-1.652.943A5.144,5.144,0,0,0,147.588,18.813Zm17.977-2.918-1.3-.094a2.336,2.336,0,0,0-2.391,1.172V25h-3.949V12.32h3.7l.129,1.629a3.058,3.058,0,0,1,2.777-1.863,3.851,3.851,0,0,1,1.1.141Zm.5,2.648a7.484,7.484,0,0,1,.738-3.381,5.28,5.28,0,0,1,2.121-2.279,6.388,6.388,0,0,1,3.246-.8,5.83,5.83,0,0,1,4.488,1.764,6.768,6.768,0,0,1,1.641,4.8v.141a6.566,6.566,0,0,1-1.646,4.705,5.846,5.846,0,0,1-4.459,1.74,5.912,5.912,0,0,1-4.348-1.623,6.348,6.348,0,0,1-1.77-4.4Zm3.949.246a4.718,4.718,0,0,0,.551,2.578,1.835,1.835,0,0,0,1.629.82q2.109,0,2.156-3.246v-.4q0-3.41-2.18-3.41-1.98,0-2.145,2.941Z" transform="translate(816.264 11843)" fill="#fff"/></g></svg>