<svg xmlns="http://www.w3.org/2000/svg" width="110.78" height="108.011" viewBox="0 0 110.78 108.011"><path d="M19.617,0H91.163A19.617,19.617,0,0,1,110.78,19.617V88.393a19.617,19.617,0,0,1-19.617,19.617H19.617A19.617,19.617,0,0,1,0,88.393V19.617A19.617,19.617,0,0,1,19.617,0" fill="#300"/><path d="M134.463,162.534H117.3l-3.493,10.85a.874.874,0,0,1-.892.669h-8.695q-.744,0-.52-.817l14.863-42.805q.223-.669.446-1.523a15.919,15.919,0,0,0,.3-3.01.46.46,0,0,1,.52-.52h11.816q.519,0,.595.372L149.1,173.31q.223.744-.446.743H139a.687.687,0,0,1-.743-.52Zm-14.491-9.364h11.742q-.446-1.485-1.04-3.344t-1.263-3.976l-1.338-4.236q-.669-2.118-1.226-4.088t-1-3.6h-.075a59.983,59.983,0,0,1-1.561,5.945q-1.041,3.344-2.118,6.837T119.971,153.17Z" transform="translate(-80.781 -97.715)" fill="#ff9a00"/><path d="M335.21,120.136a5.391,5.391,0,0,1-4.087-1.635,5.879,5.879,0,0,1-1.561-4.236,5.452,5.452,0,0,1,1.672-4.125,5.742,5.742,0,0,1,4.124-1.6,5.526,5.526,0,0,1,4.2,1.6,5.737,5.737,0,0,1,1.523,4.125,5.8,5.8,0,0,1-1.6,4.236A5.7,5.7,0,0,1,335.21,120.136Zm-5.128,40.056V124.67c0-.446.2-.669.594-.669h9.141q.594,0,.595.669v35.522q0,.744-.595.743h-9.067q-.669,0-.669-.743" transform="translate(-256.856 -84.597)" fill="#ff9a00"/><rect width="110.78" height="108.011" fill="none"/></svg>