<svg xmlns="http://www.w3.org/2000/svg" width="295" height="295" viewBox="0 0 295 295"><g transform="translate(-181.264 -11411)"><rect width="295" height="295" transform="translate(181.264 11411)" fill="#ff7bac"/><rect width="73.75" height="73.75" transform="translate(181.264 11632.25)" fill="#ff7bac"/><rect width="73.75" height="73.75" transform="translate(255.01 11632.25)" fill="#ff9cc1"/><rect width="73.75" height="73.75" transform="translate(328.76 11632.25)" fill="#ffbdd6"/><rect width="73.75" height="73.75" transform="translate(402.264 11632.25)" fill="#ffdeea"/><path d="M113.059,18.977h-2.227V25h-4.113V7.938h6.715a7.489,7.489,0,0,1,4.746,1.348,4.568,4.568,0,0,1,1.711,3.809,5.55,5.55,0,0,1-.721,2.953,5.117,5.117,0,0,1-2.256,1.9l3.563,6.879V25H116.07ZM110.832,15.8h2.6a2.339,2.339,0,0,0,1.764-.615,2.375,2.375,0,0,0,.592-1.717,2.4,2.4,0,0,0-.6-1.729,2.317,2.317,0,0,0-1.758-.627h-2.6ZM121.7,18.543a7.484,7.484,0,0,1,.738-3.381,5.28,5.28,0,0,1,2.121-2.279,6.388,6.388,0,0,1,3.246-.8,5.83,5.83,0,0,1,4.488,1.764,6.768,6.768,0,0,1,1.641,4.8v.141a6.566,6.566,0,0,1-1.646,4.705,5.846,5.846,0,0,1-4.459,1.74,5.912,5.912,0,0,1-4.348-1.623,6.348,6.348,0,0,1-1.77-4.4Zm3.949.246a4.718,4.718,0,0,0,.551,2.578,1.835,1.835,0,0,0,1.629.82q2.109,0,2.156-3.246v-.4q0-3.41-2.18-3.41-1.98,0-2.145,2.941Zm16.664,2.648a.912.912,0,0,0-.527-.809,8.021,8.021,0,0,0-2-.633,9.138,9.138,0,0,1-2.437-.861,4.083,4.083,0,0,1-1.465-1.295,3.092,3.092,0,0,1-.5-1.746,3.5,3.5,0,0,1,1.441-2.877,5.938,5.938,0,0,1,3.773-1.131,6.579,6.579,0,0,1,4.031,1.137,3.555,3.555,0,0,1,1.523,2.988H142.18q0-1.523-1.605-1.523a1.591,1.591,0,0,0-1.043.346,1.07,1.07,0,0,0-.422.861.982.982,0,0,0,.516.855,4.872,4.872,0,0,0,1.646.539,14.228,14.228,0,0,1,1.986.5q2.859.984,2.859,3.527a3.321,3.321,0,0,1-1.541,2.824,6.758,6.758,0,0,1-3.99,1.09,6.9,6.9,0,0,1-2.906-.586,4.86,4.86,0,0,1-1.992-1.594,3.609,3.609,0,0,1-.715-2.121h3.691a1.526,1.526,0,0,0,.586,1.283,2.41,2.41,0,0,0,1.441.4,1.9,1.9,0,0,0,1.213-.328A1.05,1.05,0,0,0,142.309,21.438ZM155.105,25a4.459,4.459,0,0,1-.375-1.137,3.672,3.672,0,0,1-3.047,1.371,4.5,4.5,0,0,1-3.047-1.084,3.45,3.45,0,0,1-1.254-2.725,3.546,3.546,0,0,1,1.523-3.117,7.761,7.761,0,0,1,4.43-1.055h1.219v-.668q0-1.746-1.512-1.746a1.233,1.233,0,0,0-1.406,1.383h-3.949a3.546,3.546,0,0,1,1.564-2.988,6.569,6.569,0,0,1,3.99-1.148,5.764,5.764,0,0,1,3.832,1.184,4.115,4.115,0,0,1,1.441,3.246v5.613a5.748,5.748,0,0,0,.539,2.672V25Zm-2.473-2.578a2.2,2.2,0,0,0,1.225-.316,1.983,1.983,0,0,0,.7-.715V19.363h-1.148q-2.062,0-2.062,1.852a1.131,1.131,0,0,0,.363.873A1.315,1.315,0,0,0,152.633,22.422Zm7.57-3.855a7.746,7.746,0,0,1,1.3-4.746,4.282,4.282,0,0,1,3.633-1.734A3.641,3.641,0,0,1,168,13.422V7h3.961V25h-3.551l-.2-1.359a3.739,3.739,0,0,1-3.094,1.594,4.274,4.274,0,0,1-3.586-1.734A7.991,7.991,0,0,1,160.2,18.566Zm3.949.246q0,3.375,1.969,3.375a1.944,1.944,0,0,0,1.875-1.1V16.258a1.892,1.892,0,0,0-1.852-1.125q-1.828,0-1.98,2.953Zm9.551-.27a7.484,7.484,0,0,1,.738-3.381,5.28,5.28,0,0,1,2.121-2.279,6.388,6.388,0,0,1,3.246-.8A5.83,5.83,0,0,1,184.3,13.85a6.768,6.768,0,0,1,1.641,4.8v.141a6.566,6.566,0,0,1-1.646,4.705,5.846,5.846,0,0,1-4.459,1.74,5.912,5.912,0,0,1-4.348-1.623,6.348,6.348,0,0,1-1.77-4.4Zm3.949.246a4.718,4.718,0,0,0,.551,2.578,1.835,1.835,0,0,0,1.629.82q2.109,0,2.156-3.246v-.4q0-3.41-2.18-3.41-1.98,0-2.145,2.941Z" transform="translate(184.264 11513)" fill="#fff"/></g></svg>