<svg xmlns="http://www.w3.org/2000/svg" xmlns:xlink="http://www.w3.org/1999/xlink" width="505" height="411" viewBox="0 0 505 411"><defs><clipPath id="a"><rect width="350.24" height="333.694" fill="none"/></clipPath><clipPath id="b"><rect width="61.427" height="20.109" transform="translate(142.109 83.741)" fill="none"/></clipPath><clipPath id="c"><path d="M0,0H61.427V20.109H0Z" transform="translate(142.109 83.741)" fill="none"/></clipPath><clipPath id="d"><rect width="35.043" height="21.292" transform="translate(155.436 243.322)" fill="none"/></clipPath><clipPath id="f"><rect width="34.963" height="20.108" transform="translate(216.628 183.421)" fill="none"/></clipPath><clipPath id="h"><rect width="65.8" height="20.108" transform="translate(81.251 183.421)" fill="none"/></clipPath><clipPath id="i"><rect width="14.059" height="20.108" transform="translate(81.251 183.421)" fill="none"/></clipPath><clipPath id="j"><rect width="9.301" height="20.108" transform="translate(95.31 183.421)" fill="none"/></clipPath><clipPath id="k"><rect width="28.364" height="20.108" transform="translate(104.611 183.421)" fill="none"/></clipPath><clipPath id="l"><path d="M0,0H4.621V20.108H0Z" transform="translate(132.975 183.421)" fill="none"/></clipPath><clipPath id="m"><rect width="9.455" height="20.108" transform="translate(137.596 183.421)" fill="none"/></clipPath><clipPath id="n"><rect width="47.061" height="21.292" transform="translate(252.285 83.243)" fill="none"/></clipPath><clipPath id="o"><rect width="11.857" height="21.292" transform="translate(252.285 83.243)" fill="none"/></clipPath><clipPath id="p"><rect width="10.011" height="21.292" transform="translate(263.409 83.243)" fill="none"/></clipPath><clipPath id="q"><rect width="6.246" height="21.292" transform="translate(273.42 83.243)" fill="none"/></clipPath><clipPath id="r"><path d="M0,0H20.022V21.292H0Z" transform="translate(279.324 83.243)" fill="none"/></clipPath><clipPath id="s"><path d="M0,0H36.5V21.292H0Z" transform="translate(48.959 83.243)" fill="none"/></clipPath><clipPath id="t"><rect width="12.759" height="21.292" transform="translate(48.959 83.243)" fill="none"/></clipPath><clipPath id="u"><rect width="24.021" height="21.292" transform="translate(61.437 83.243)" fill="none"/></clipPath></defs><g transform="translate(-810.264 -1508)"><rect width="505" height="411" transform="translate(810.264 1508)" fill="none"/><g transform="translate(887.264 1561)"><g clip-path="url(#a)"><path d="M133.253,124.2a108.74,108.74,0,0,1,41.87-101.77A108.961,108.961,0,1,0,67.7,209.893a109.064,109.064,0,0,1,65.554-85.7" fill="#ea2c1c"/><path d="M133.253,124.2a108.74,108.74,0,0,1,41.87-101.77A108.961,108.961,0,1,0,67.7,209.893,109.067,109.067,0,0,1,133.253,124.2Z" fill="none" stroke="#000" stroke-miterlimit="10" stroke-width="0.25"/><path d="M350.115,109.09A108.947,108.947,0,0,0,175.122,22.427a108.772,108.772,0,0,1,42.932,86.663,109.876,109.876,0,0,1-1.017,14.713,109.066,109.066,0,0,1,66.5,85.7A108.993,108.993,0,0,0,350.108,109.1" fill="#12903f"/><path d="M350.115,109.09A108.947,108.947,0,0,0,175.122,22.427a108.772,108.772,0,0,1,42.932,86.663,109.876,109.876,0,0,1-1.017,14.713,109.066,109.066,0,0,1,66.5,85.7A108.992,108.992,0,0,0,350.115,109.09Z" fill="none" stroke="#000" stroke-miterlimit="10" stroke-width="0.25"/><path d="M132.186,109.09a109.55,109.55,0,0,0,1.068,15.107,109.2,109.2,0,0,1,83.788-.394,109.876,109.876,0,0,0,1.017-14.713,108.774,108.774,0,0,0-42.937-86.663,108.773,108.773,0,0,0-42.936,86.663" fill="#fef011"/><path d="M132.186,109.09a109.55,109.55,0,0,0,1.068,15.107,109.2,109.2,0,0,1,83.788-.394,109.876,109.876,0,0,0,1.017-14.713,108.774,108.774,0,0,0-42.937-86.663A108.773,108.773,0,0,0,132.186,109.09Z" fill="none" stroke="#000" stroke-miterlimit="10" stroke-width="0.25"/><path d="M175.122,195.751A108.954,108.954,0,0,1,67.7,209.888a108.961,108.961,0,1,0,215.847-.4A109.048,109.048,0,0,1,175.123,195.75" fill="#002172"/><path d="M175.122,195.751A108.954,108.954,0,0,1,67.7,209.888a108.961,108.961,0,1,0,215.847-.4,109.053,109.053,0,0,1-108.423-13.742Z" fill="none" stroke="#000" stroke-miterlimit="10" stroke-width="0.25"/><path d="M175.123,195.751a108.848,108.848,0,0,1-41.87-71.551A109.067,109.067,0,0,0,67.7,209.893a108.944,108.944,0,0,0,107.424-14.142" fill="#e53477"/><path d="M175.123,195.751a108.848,108.848,0,0,1-41.87-71.551A109.067,109.067,0,0,0,67.7,209.893,108.944,108.944,0,0,0,175.123,195.751Z" fill="none" stroke="#000" stroke-miterlimit="10" stroke-width="0.25"/><path d="M217.04,123.8a108.842,108.842,0,0,1-41.918,71.948A109.037,109.037,0,0,0,283.545,209.5a109.057,109.057,0,0,0-66.5-85.7" fill="#009ae0"/><path d="M217.04,123.8a108.842,108.842,0,0,1-41.918,71.948A109.037,109.037,0,0,0,283.545,209.5,109.058,109.058,0,0,0,217.04,123.8Z" fill="none" stroke="#000" stroke-miterlimit="10" stroke-width="0.25"/><path d="M133.253,124.2a108.838,108.838,0,0,0,41.87,71.551A108.837,108.837,0,0,0,217.037,123.8a109.167,109.167,0,0,0-83.788.394" fill="#fff"/><path d="M133.253,124.2a108.838,108.838,0,0,0,41.87,71.551A108.837,108.837,0,0,0,217.037,123.8a109.167,109.167,0,0,0-83.788.394Z" fill="none" stroke="#000" stroke-miterlimit="10" stroke-width="0.25"/><g style="isolation:isolate"><g clip-path="url(#b)"><g style="isolation:isolate"><g clip-path="url(#c)"><path d="M-.025,0,4.648-12.169H6.383L11.364,0H9.529L8.11-3.686H3.021L1.685,0ZM3.486-5H7.612l-1.27-3.37Q5.761-9.9,5.479-10.891a15.513,15.513,0,0,1-.656,2.324Zm8.973,5V-8.815H13.8v1.237A3.142,3.142,0,0,1,14.9-8.62a3.1,3.1,0,0,1,1.569-.394,2.9,2.9,0,0,1,1.606.407,2.177,2.177,0,0,1,.884,1.137,3.165,3.165,0,0,1,2.723-1.544,2.684,2.684,0,0,1,2.017.726A3.1,3.1,0,0,1,24.4-6.051V0H22.918V-5.553a4.089,4.089,0,0,0-.145-1.291,1.25,1.25,0,0,0-.527-.635,1.645,1.645,0,0,0-.9-.241,2.086,2.086,0,0,0-1.544.618,2.724,2.724,0,0,0-.614,1.98V0H17.7V-5.728a2.52,2.52,0,0,0-.365-1.494,1.383,1.383,0,0,0-1.2-.5,2.171,2.171,0,0,0-1.166.332,1.883,1.883,0,0,0-.776.971,5.467,5.467,0,0,0-.241,1.843V0ZM32.373-1.087a5.564,5.564,0,0,1-1.6,1A4.617,4.617,0,0,1,29.127.2a3.2,3.2,0,0,1-2.233-.71,2.343,2.343,0,0,1-.78-1.814,2.412,2.412,0,0,1,.295-1.183,2.439,2.439,0,0,1,.772-.859,3.63,3.63,0,0,1,1.075-.49,10.676,10.676,0,0,1,1.328-.224,13.657,13.657,0,0,0,2.665-.515q.008-.307.008-.39a1.65,1.65,0,0,0-.423-1.287,2.5,2.5,0,0,0-1.7-.506,2.639,2.639,0,0,0-1.556.369A2.257,2.257,0,0,0,27.833-6.1l-1.461-.2a3.62,3.62,0,0,1,.656-1.515,2.874,2.874,0,0,1,1.32-.888,5.887,5.887,0,0,1,2-.311,5.3,5.3,0,0,1,1.834.266,2.417,2.417,0,0,1,1.038.668,2.35,2.35,0,0,1,.465,1.017,8.413,8.413,0,0,1,.075,1.378v1.992a21.145,21.145,0,0,0,.1,2.635A3.325,3.325,0,0,0,34.232,0H32.672A3.168,3.168,0,0,1,32.373-1.087Zm-.125-3.337a10.962,10.962,0,0,1-2.44.564,5.645,5.645,0,0,0-1.3.3,1.3,1.3,0,0,0-.589.486,1.276,1.276,0,0,0-.208.71,1.272,1.272,0,0,0,.452,1,1.946,1.946,0,0,0,1.324.4,3.081,3.081,0,0,0,1.536-.378,2.326,2.326,0,0,0,.988-1.033,3.609,3.609,0,0,0,.241-1.494ZM36.059,0V-8.815H37.4v1.336a3.647,3.647,0,0,1,.95-1.237,1.659,1.659,0,0,1,.959-.3,2.914,2.914,0,0,1,1.536.481l-.515,1.386a2.138,2.138,0,0,0-1.1-.324,1.423,1.423,0,0,0-.88.295,1.6,1.6,0,0,0-.556.818,5.82,5.82,0,0,0-.249,1.743V0Zm5.686-10.451v-1.718h1.494v1.718ZM41.745,0V-8.815h1.494V0ZM45.48,0V-12.169h1.494V0Zm3.777,0V-12.169h1.494V0Zm3.254-4.408a4.544,4.544,0,0,1,1.361-3.627,4.1,4.1,0,0,1,2.772-.979,3.955,3.955,0,0,1,2.972,1.191A4.532,4.532,0,0,1,60.77-4.532a5.832,5.832,0,0,1-.51,2.677A3.614,3.614,0,0,1,58.774-.34,4.326,4.326,0,0,1,56.645.2,3.963,3.963,0,0,1,53.652-.988,4.741,4.741,0,0,1,52.511-4.408Zm1.536,0a3.755,3.755,0,0,0,.739,2.536,2.368,2.368,0,0,0,1.859.843A2.354,2.354,0,0,0,58.5-1.876a3.844,3.844,0,0,0,.739-2.582,3.642,3.642,0,0,0-.743-2.478,2.363,2.363,0,0,0-1.847-.843,2.373,2.373,0,0,0-1.859.838A3.738,3.738,0,0,0,54.046-4.408Z" transform="translate(142.135 98.33)"/></g></g></g></g><g style="isolation:isolate"><g clip-path="url(#d)"><g style="isolation:isolate"><g clip-path="url(#d)"><path d="M-.026,0,4.922-12.885H6.759L12.032,0H10.09l-1.5-3.9H3.2L1.784,0ZM3.691-5.291H8.06L6.715-8.859Q6.1-10.485,5.8-11.531A16.425,16.425,0,0,1,5.106-9.07ZM12.357,0V-1.283L18.3-8.1q-1.011.053-1.784.053H12.709V-9.334h7.629v1.046L15.284-2.364l-.976,1.081q1.063-.079,2-.079h4.315V0ZM28.31,0V-1.371A3.416,3.416,0,0,1,25.348.211a3.774,3.774,0,0,1-1.542-.316,2.541,2.541,0,0,1-1.063-.8,2.981,2.981,0,0,1-.488-1.173,8.033,8.033,0,0,1-.1-1.477V-9.334h1.582v5.177a9.225,9.225,0,0,0,.1,1.67,1.65,1.65,0,0,0,.633.98,1.961,1.961,0,0,0,1.2.356A2.6,2.6,0,0,0,27-1.516a2.028,2.028,0,0,0,.883-.993,4.984,4.984,0,0,0,.259-1.824v-5h1.582V0Zm3.858,0V-12.885H33.75V0Z" transform="translate(155.463 258.769)" fill="#fff"/></g></g></g></g><g style="isolation:isolate"><g clip-path="url(#f)"><g style="isolation:isolate"><g clip-path="url(#f)"><path d="M9.994-4.267l1.61.407A5.421,5.421,0,0,1,9.782-.834,5.02,5.02,0,0,1,6.566.208a5.78,5.78,0,0,1-3.2-.8A5,5,0,0,1,1.49-2.914,8.278,8.278,0,0,1,.847-6.176a7.171,7.171,0,0,1,.726-3.316,4.976,4.976,0,0,1,2.067-2.15,6.039,6.039,0,0,1,2.951-.735,4.989,4.989,0,0,1,3.071.93A4.828,4.828,0,0,1,11.4-8.832l-1.585.374a3.761,3.761,0,0,0-1.229-1.934A3.274,3.274,0,0,0,6.558-11a3.934,3.934,0,0,0-2.345.672A3.551,3.551,0,0,0,2.889-8.521a7.268,7.268,0,0,0-.382,2.337,7.426,7.426,0,0,0,.452,2.71A3.37,3.37,0,0,0,4.366-1.743a3.946,3.946,0,0,0,2.067.573,3.463,3.463,0,0,0,2.291-.78A3.993,3.993,0,0,0,9.994-4.267Zm3.412-6.184v-1.718H14.9v1.718ZM13.406,0V-8.815H14.9V0Zm9.521-1.087a5.564,5.564,0,0,1-1.6,1A4.617,4.617,0,0,1,19.681.2a3.2,3.2,0,0,1-2.233-.71,2.343,2.343,0,0,1-.78-1.814,2.412,2.412,0,0,1,.295-1.183,2.439,2.439,0,0,1,.772-.859,3.63,3.63,0,0,1,1.075-.49,10.676,10.676,0,0,1,1.328-.224A13.657,13.657,0,0,0,22.8-5.595q.008-.307.008-.39a1.65,1.65,0,0,0-.423-1.287,2.5,2.5,0,0,0-1.7-.506,2.639,2.639,0,0,0-1.556.369A2.257,2.257,0,0,0,18.386-6.1l-1.461-.2a3.62,3.62,0,0,1,.656-1.515A2.874,2.874,0,0,1,18.9-8.7a5.887,5.887,0,0,1,2-.311,5.3,5.3,0,0,1,1.834.266,2.417,2.417,0,0,1,1.038.668,2.35,2.35,0,0,1,.465,1.017,8.413,8.413,0,0,1,.075,1.378v1.992a21.145,21.145,0,0,0,.1,2.635A3.325,3.325,0,0,0,24.786,0H23.226A3.168,3.168,0,0,1,22.927-1.087ZM22.8-4.424a10.962,10.962,0,0,1-2.44.564,5.645,5.645,0,0,0-1.3.3,1.3,1.3,0,0,0-.589.486,1.276,1.276,0,0,0-.208.71,1.272,1.272,0,0,0,.452,1,1.946,1.946,0,0,0,1.324.4,3.081,3.081,0,0,0,1.536-.378,2.326,2.326,0,0,0,.988-1.033A3.609,3.609,0,0,0,22.8-3.876ZM26.629,0V-8.815h1.345v1.253a3.169,3.169,0,0,1,2.806-1.453,3.681,3.681,0,0,1,1.465.286,2.3,2.3,0,0,1,1,.751,2.884,2.884,0,0,1,.465,1.1,8.555,8.555,0,0,1,.083,1.453V0H32.3V-5.362a4.025,4.025,0,0,0-.174-1.365,1.436,1.436,0,0,0-.618-.722,1.967,1.967,0,0,0-1.042-.27,2.421,2.421,0,0,0-1.648.606,2.989,2.989,0,0,0-.693,2.3V0Z" transform="translate(216.628 198.009)" fill="#fff"/></g></g></g></g><g style="isolation:isolate"><g clip-path="url(#h)"><g style="isolation:isolate"><g clip-path="url(#i)"><path d="M1.262,0V-12.169H3.686l2.88,8.616q.4,1.2.581,1.8.208-.664.647-1.951l2.914-8.467h2.167V0H11.322V-10.185L7.786,0H6.333L2.814-10.359V0Z" transform="translate(81.25 198.009)" fill="#fff"/></g></g><g style="isolation:isolate"><g clip-path="url(#j)"><path d="M6.873-1.087a5.564,5.564,0,0,1-1.6,1A4.617,4.617,0,0,1,3.627.2,3.2,3.2,0,0,1,1.395-.51a2.343,2.343,0,0,1-.78-1.814A2.412,2.412,0,0,1,.909-3.507a2.439,2.439,0,0,1,.772-.859,3.63,3.63,0,0,1,1.075-.49A10.676,10.676,0,0,1,4.084-5.08a13.657,13.657,0,0,0,2.665-.515q.008-.307.008-.39a1.65,1.65,0,0,0-.423-1.287,2.5,2.5,0,0,0-1.7-.506,2.639,2.639,0,0,0-1.556.369A2.257,2.257,0,0,0,2.333-6.1L.872-6.3a3.62,3.62,0,0,1,.656-1.515A2.874,2.874,0,0,1,2.847-8.7a5.887,5.887,0,0,1,2-.311,5.3,5.3,0,0,1,1.834.266,2.417,2.417,0,0,1,1.038.668,2.35,2.35,0,0,1,.465,1.017,8.413,8.413,0,0,1,.075,1.378v1.992a21.145,21.145,0,0,0,.1,2.635A3.325,3.325,0,0,0,8.732,0H7.172A3.168,3.168,0,0,1,6.873-1.087ZM6.749-4.424a10.962,10.962,0,0,1-2.44.564,5.645,5.645,0,0,0-1.3.3,1.3,1.3,0,0,0-.589.486,1.276,1.276,0,0,0-.208.71,1.272,1.272,0,0,0,.452,1,1.946,1.946,0,0,0,1.324.4A3.081,3.081,0,0,0,5.52-1.349a2.326,2.326,0,0,0,.988-1.033,3.609,3.609,0,0,0,.241-1.494Z" transform="translate(95.31 198.009)" fill="#fff"/></g></g><g style="isolation:isolate"><g clip-path="url(#k)"><path d="M.847.73,2.3.946a1.384,1.384,0,0,0,.506.979,2.488,2.488,0,0,0,1.519.415,2.668,2.668,0,0,0,1.6-.415A2.042,2.042,0,0,0,6.69.764,9.543,9.543,0,0,0,6.8-1.154,3.073,3.073,0,0,1,4.358,0,3.327,3.327,0,0,1,1.544-1.312a5.051,5.051,0,0,1-1-3.146A5.855,5.855,0,0,1,1-6.786,3.653,3.653,0,0,1,2.328-8.434a3.575,3.575,0,0,1,2.038-.581A3.16,3.16,0,0,1,6.939-7.753V-8.815H8.317V-1.2A7.227,7.227,0,0,1,7.9,1.722,3.066,3.066,0,0,1,6.57,3.08a4.6,4.6,0,0,1-2.237.5,4.219,4.219,0,0,1-2.548-.71A2.4,2.4,0,0,1,.847.73Zm1.237-5.3a3.824,3.824,0,0,0,.689,2.532,2.188,2.188,0,0,0,1.727.8A2.208,2.208,0,0,0,6.226-2.03a3.7,3.7,0,0,0,.7-2.486A3.615,3.615,0,0,0,6.2-6.956a2.22,2.22,0,0,0-1.731-.822,2.157,2.157,0,0,0-1.693.809A3.594,3.594,0,0,0,2.083-4.565ZM16.61-2.839l1.544.191A3.767,3.767,0,0,1,16.8-.548,4.068,4.068,0,0,1,14.277.2,4.032,4.032,0,0,1,11.21-.992a4.654,4.654,0,0,1-1.133-3.341,4.871,4.871,0,0,1,1.146-3.453,3.877,3.877,0,0,1,2.972-1.229,3.769,3.769,0,0,1,2.889,1.2A4.782,4.782,0,0,1,18.2-4.424q0,.133-.008.4H11.621A3.388,3.388,0,0,0,12.443-1.8a2.446,2.446,0,0,0,1.843.772,2.286,2.286,0,0,0,1.4-.432A2.865,2.865,0,0,0,16.61-2.839ZM11.7-5.254h4.922a2.986,2.986,0,0,0-.564-1.668,2.29,2.29,0,0,0-1.851-.863A2.374,2.374,0,0,0,12.48-7.1,2.727,2.727,0,0,0,11.7-5.254ZM20.03,0V-8.815h1.345v1.253A3.169,3.169,0,0,1,24.18-9.015a3.681,3.681,0,0,1,1.465.286,2.3,2.3,0,0,1,1,.751,2.884,2.884,0,0,1,.465,1.1,8.556,8.556,0,0,1,.083,1.453V0H25.7V-5.362a4.025,4.025,0,0,0-.174-1.365,1.436,1.436,0,0,0-.618-.722,1.967,1.967,0,0,0-1.042-.27,2.421,2.421,0,0,0-1.648.606,2.989,2.989,0,0,0-.693,2.3V0Z" transform="translate(104.611 198.009)" fill="#fff"/></g></g><g style="isolation:isolate"><g clip-path="url(#l)"><path d="M4.383-1.336,4.6-.017A5.542,5.542,0,0,1,3.47.116,2.556,2.556,0,0,1,2.208-.141a1.441,1.441,0,0,1-.631-.677,5.35,5.35,0,0,1-.183-1.764V-7.653H.3V-8.815h1.1V-11l1.486-.9v3.08h1.5v1.162H2.88V-2.5a2.6,2.6,0,0,0,.079.822.622.622,0,0,0,.257.291.994.994,0,0,0,.51.108A4.86,4.86,0,0,0,4.383-1.336Z" transform="translate(132.975 198.009)" fill="#fff"/></g></g><g style="isolation:isolate"><g clip-path="url(#m)"><path d="M6.873-1.087a5.564,5.564,0,0,1-1.6,1A4.617,4.617,0,0,1,3.627.2,3.2,3.2,0,0,1,1.395-.51a2.343,2.343,0,0,1-.78-1.814A2.412,2.412,0,0,1,.909-3.507a2.439,2.439,0,0,1,.772-.859,3.63,3.63,0,0,1,1.075-.49A10.676,10.676,0,0,1,4.084-5.08a13.657,13.657,0,0,0,2.665-.515q.008-.307.008-.39a1.65,1.65,0,0,0-.423-1.287,2.5,2.5,0,0,0-1.7-.506,2.639,2.639,0,0,0-1.556.369A2.257,2.257,0,0,0,2.333-6.1L.872-6.3a3.62,3.62,0,0,1,.656-1.515A2.874,2.874,0,0,1,2.847-8.7a5.887,5.887,0,0,1,2-.311,5.3,5.3,0,0,1,1.834.266,2.417,2.417,0,0,1,1.038.668,2.35,2.35,0,0,1,.465,1.017,8.413,8.413,0,0,1,.075,1.378v1.992a21.145,21.145,0,0,0,.1,2.635A3.325,3.325,0,0,0,8.732,0H7.172A3.168,3.168,0,0,1,6.873-1.087ZM6.749-4.424a10.962,10.962,0,0,1-2.44.564,5.645,5.645,0,0,0-1.3.3,1.3,1.3,0,0,0-.589.486,1.276,1.276,0,0,0-.208.71,1.272,1.272,0,0,0,.452,1,1.946,1.946,0,0,0,1.324.4A3.081,3.081,0,0,0,5.52-1.349a2.326,2.326,0,0,0,.988-1.033,3.609,3.609,0,0,0,.241-1.494Z" transform="translate(137.596 198.009)" fill="#fff"/></g></g></g></g><g style="isolation:isolate"><g clip-path="url(#n)"><g style="isolation:isolate"><g clip-path="url(#o)"><path d="M5.071,0,.079-12.885H1.925l3.349,9.36q.4,1.125.677,2.109.3-1.055.694-2.109l3.48-9.36h1.74L6.82,0Z" transform="translate(252.285 98.689)" fill="#fff"/></g></g><g style="isolation:isolate"><g clip-path="url(#p)"><path d="M7.576-3.006l1.635.2A3.989,3.989,0,0,1,7.778-.58,4.307,4.307,0,0,1,5.106.211,4.27,4.27,0,0,1,1.859-1.05a4.928,4.928,0,0,1-1.2-3.538A5.158,5.158,0,0,1,1.872-8.244a4.106,4.106,0,0,1,3.146-1.3A3.99,3.99,0,0,1,8.077-8.271,5.064,5.064,0,0,1,9.264-4.685q0,.141-.009.422H2.294a3.587,3.587,0,0,0,.87,2.355,2.59,2.59,0,0,0,1.951.817A2.421,2.421,0,0,0,6.6-1.547,3.034,3.034,0,0,0,7.576-3.006ZM2.382-5.563H7.594A3.162,3.162,0,0,0,7-7.33a2.425,2.425,0,0,0-1.96-.914A2.513,2.513,0,0,0,3.2-7.515,2.887,2.887,0,0,0,2.382-5.563Z" transform="translate(263.409 98.689)" fill="#fff"/></g></g><g style="isolation:isolate"><g clip-path="url(#q)"><path d="M1.169,0V-9.334H2.593v1.415A3.861,3.861,0,0,1,3.6-9.229a1.757,1.757,0,0,1,1.015-.316,3.086,3.086,0,0,1,1.626.51L5.7-7.567a2.264,2.264,0,0,0-1.16-.343A1.507,1.507,0,0,0,3.6-7.6a1.69,1.69,0,0,0-.589.866,6.162,6.162,0,0,0-.264,1.846V0Z" transform="translate(273.42 98.689)" fill="#fff"/></g></g><g style="isolation:isolate"><g clip-path="url(#r)"><path d="M7.242,0V-1.178A2.9,2.9,0,0,1,4.632.211,3.66,3.66,0,0,1,2.58-.4a4.046,4.046,0,0,1-1.45-1.718A5.939,5.939,0,0,1,.615-4.658a6.637,6.637,0,0,1,.466-2.536,3.674,3.674,0,0,1,1.4-1.745,3.736,3.736,0,0,1,2.083-.606,3.113,3.113,0,0,1,1.5.356,3.142,3.142,0,0,1,1.072.927v-4.623H8.71V0Zm-5-4.658A4.054,4.054,0,0,0,3-1.978a2.279,2.279,0,0,0,1.784.888,2.237,2.237,0,0,0,1.762-.848,3.91,3.91,0,0,0,.725-2.588A4.389,4.389,0,0,0,6.53-7.339a2.271,2.271,0,0,0-1.819-.9,2.192,2.192,0,0,0-1.762.861A4.251,4.251,0,0,0,2.241-4.658ZM17.587-3.006l1.635.2A3.989,3.989,0,0,1,17.789-.58a4.307,4.307,0,0,1-2.672.791A4.27,4.27,0,0,1,11.87-1.05a4.928,4.928,0,0,1-1.2-3.538,5.158,5.158,0,0,1,1.213-3.656,4.106,4.106,0,0,1,3.146-1.3,3.99,3.99,0,0,1,3.059,1.274,5.064,5.064,0,0,1,1.187,3.586q0,.141-.009.422H12.3a3.587,3.587,0,0,0,.87,2.355,2.59,2.59,0,0,0,1.951.817,2.421,2.421,0,0,0,1.485-.457A3.034,3.034,0,0,0,17.587-3.006ZM12.393-5.563H17.6a3.162,3.162,0,0,0-.6-1.767,2.425,2.425,0,0,0-1.96-.914,2.513,2.513,0,0,0-1.833.729A2.887,2.887,0,0,0,12.393-5.563Z" transform="translate(279.324 98.689)" fill="#fff"/></g></g></g></g><g style="isolation:isolate"><g clip-path="url(#s)"><g style="isolation:isolate"><g clip-path="url(#t)"><path d="M1.415,0V-12.885H7.128a7.6,7.6,0,0,1,2.619.347,2.864,2.864,0,0,1,1.433,1.226,3.658,3.658,0,0,1,.536,1.942,3.24,3.24,0,0,1-.888,2.312,4.492,4.492,0,0,1-2.742,1.2,4.422,4.422,0,0,1,1.028.642,8.86,8.86,0,0,1,1.415,1.714L12.771,0H10.626L8.921-2.681q-.747-1.16-1.23-1.775a3.869,3.869,0,0,0-.866-.861,2.559,2.559,0,0,0-.778-.343A5.122,5.122,0,0,0,5.1-5.722H3.12V0ZM3.12-7.2H6.785A5.5,5.5,0,0,0,8.613-7.44a1.945,1.945,0,0,0,1-.773,2.092,2.092,0,0,0,.343-1.156,1.92,1.92,0,0,0-.664-1.5,3.1,3.1,0,0,0-2.1-.589H3.12Z" transform="translate(48.959 98.689)" fill="#fff"/></g></g><g style="isolation:isolate"><g clip-path="url(#u)"><path d="M.6-4.667A4.811,4.811,0,0,1,2.039-8.508,4.343,4.343,0,0,1,4.975-9.545,4.188,4.188,0,0,1,8.121-8.284,4.8,4.8,0,0,1,9.343-4.8,6.175,6.175,0,0,1,8.8-1.964,3.826,3.826,0,0,1,7.229-.36,4.58,4.58,0,0,1,4.975.211,4.2,4.2,0,0,1,1.806-1.046,5.02,5.02,0,0,1,.6-4.667Zm1.626,0a3.976,3.976,0,0,0,.782,2.685,2.507,2.507,0,0,0,1.969.892,2.493,2.493,0,0,0,1.96-.9A4.07,4.07,0,0,0,7.717-4.72,3.856,3.856,0,0,0,6.93-7.343a2.5,2.5,0,0,0-1.956-.892,2.513,2.513,0,0,0-1.969.888A3.958,3.958,0,0,0,2.224-4.667Zm8.965-6.381v-1.837h1.582v1.837Zm-2,14.669.3-1.345a3.18,3.18,0,0,0,.747.123.838.838,0,0,0,.721-.321,3.275,3.275,0,0,0,.237-1.6V-9.334h1.582V.51a4.617,4.617,0,0,1-.448,2.4,2.092,2.092,0,0,1-1.9.879A4.583,4.583,0,0,1,9.185,3.621Zm5.423-8.288a4.811,4.811,0,0,1,1.441-3.841,4.343,4.343,0,0,1,2.936-1.037,4.188,4.188,0,0,1,3.146,1.261A4.8,4.8,0,0,1,23.353-4.8a6.175,6.175,0,0,1-.541,2.834,3.826,3.826,0,0,1-1.573,1.6,4.58,4.58,0,0,1-2.254.571,4.2,4.2,0,0,1-3.168-1.257A5.02,5.02,0,0,1,14.607-4.667Zm1.626,0a3.976,3.976,0,0,0,.782,2.685,2.507,2.507,0,0,0,1.969.892,2.493,2.493,0,0,0,1.96-.9,4.07,4.07,0,0,0,.782-2.733,3.856,3.856,0,0,0-.787-2.624,2.5,2.5,0,0,0-1.956-.892,2.513,2.513,0,0,0-1.969.888A3.958,3.958,0,0,0,16.233-4.667Z" transform="translate(61.437 98.689)" fill="#fff"/></g></g></g></g></g></g><path d="M216.314,15.5a4.78,4.78,0,0,1-1.61,3.433,5.653,5.653,0,0,1-3.827,1.252,5.083,5.083,0,0,1-4.087-1.749,7.171,7.171,0,0,1-1.489-4.8V12.81a8.1,8.1,0,0,1,.687-3.433A5.145,5.145,0,0,1,207.95,7.1a6.132,6.132,0,0,1,6.731.459,5.137,5.137,0,0,1,1.651,3.516h-2.783a2.821,2.821,0,0,0-.728-1.9,2.7,2.7,0,0,0-1.906-.589,2.365,2.365,0,0,0-2.083,1,5.589,5.589,0,0,0-.71,3.094V13.7a5.982,5.982,0,0,0,.663,3.2,2.321,2.321,0,0,0,2.092,1.011,2.748,2.748,0,0,0,1.925-.589,2.661,2.661,0,0,0,.728-1.823Zm1.234-.612a5.953,5.953,0,0,1,.575-2.663,4.211,4.211,0,0,1,1.656-1.809,4.831,4.831,0,0,1,2.51-.64A4.571,4.571,0,0,1,225.6,11.02a4.989,4.989,0,0,1,1.433,3.377l.019.687a5.247,5.247,0,0,1-1.29,3.706,5,5,0,0,1-6.926,0,5.339,5.339,0,0,1-1.294-3.785Zm2.681.195a3.742,3.742,0,0,0,.538,2.185,1.935,1.935,0,0,0,3.062.009,4.094,4.094,0,0,0,.547-2.389,3.7,3.7,0,0,0-.547-2.171,1.78,1.78,0,0,0-1.54-.77,1.751,1.751,0,0,0-1.521.765A4.164,4.164,0,0,0,220.229,15.083ZM231.538,20h-2.69V5.75h2.69Zm1.791-5.112a5.953,5.953,0,0,1,.575-2.663,4.211,4.211,0,0,1,1.656-1.809,4.831,4.831,0,0,1,2.51-.64,4.571,4.571,0,0,1,3.317,1.243,4.989,4.989,0,0,1,1.433,3.377l.019.687a5.247,5.247,0,0,1-1.29,3.706,5,5,0,0,1-6.926,0,5.339,5.339,0,0,1-1.294-3.785Zm2.681.195a3.742,3.742,0,0,0,.538,2.185,1.935,1.935,0,0,0,3.062.009,4.094,4.094,0,0,0,.547-2.389,3.7,3.7,0,0,0-.547-2.171,1.78,1.78,0,0,0-1.54-.77,1.751,1.751,0,0,0-1.521.765A4.164,4.164,0,0,0,236.01,15.083Zm14.12-2.607a7.284,7.284,0,0,0-.965-.074,1.964,1.964,0,0,0-1.995,1.03V20h-2.681V9.962h2.533l.074,1.2a2.484,2.484,0,0,1,2.236-1.382,2.809,2.809,0,0,1,.835.121Zm5.91,7.709a4.928,4.928,0,0,1-3.595-1.354,4.815,4.815,0,0,1-1.387-3.609v-.26a6.064,6.064,0,0,1,.584-2.7,4.289,4.289,0,0,1,1.656-1.837,4.648,4.648,0,0,1,2.445-.645,4.166,4.166,0,0,1,3.242,1.3,5.278,5.278,0,0,1,1.183,3.683v1.095h-6.392a2.491,2.491,0,0,0,.784,1.577,2.37,2.37,0,0,0,1.656.594,2.894,2.894,0,0,0,2.421-1.123l1.317,1.475a4.025,4.025,0,0,1-1.633,1.331A5.357,5.357,0,0,1,256.039,20.186Zm-.306-8.238a1.679,1.679,0,0,0-1.294.538,2.78,2.78,0,0,0-.635,1.54h3.729v-.213a1.982,1.982,0,0,0-.482-1.378A1.733,1.733,0,0,0,255.733,11.947Zm11.393,5.279a.864.864,0,0,0-.487-.775,5.533,5.533,0,0,0-1.563-.506q-3.581-.751-3.581-3.043a2.758,2.758,0,0,1,1.109-2.231,4.472,4.472,0,0,1,2.9-.9,4.813,4.813,0,0,1,3.057.9,2.836,2.836,0,0,1,1.146,2.338h-2.681a1.3,1.3,0,0,0-.371-.951,1.57,1.57,0,0,0-1.16-.376,1.6,1.6,0,0,0-1.048.306.966.966,0,0,0-.371.779.826.826,0,0,0,.422.719,4.342,4.342,0,0,0,1.424.473,11.631,11.631,0,0,1,1.688.45,2.774,2.774,0,0,1,2.125,2.7,2.618,2.618,0,0,1-1.178,2.222,5.083,5.083,0,0,1-3.043.849,5.309,5.309,0,0,1-2.24-.45,3.759,3.759,0,0,1-1.535-1.234,2.867,2.867,0,0,1-.557-1.693h2.542a1.4,1.4,0,0,0,.529,1.095,2.1,2.1,0,0,0,1.317.38,1.941,1.941,0,0,0,1.164-.292A.909.909,0,0,0,267.126,17.226ZM279.019,20h-2.69V5.75h2.69Zm8.22-1.021a3.362,3.362,0,0,1-2.746,1.206,3.171,3.171,0,0,1-2.463-.928,3.96,3.96,0,0,1-.867-2.718V9.962h2.681v6.485q0,1.568,1.429,1.568a1.937,1.937,0,0,0,1.874-.946V9.962h2.69V20h-2.523Zm7.7-1.141h4.908V20h-8.331V18.367l4.722-6.234h-4.583V9.962H299.7v1.586Z" transform="translate(810.264 1525)" fill="#12263f"/></g></svg>