<svg xmlns="http://www.w3.org/2000/svg" xmlns:xlink="http://www.w3.org/1999/xlink" width="167.522" height="170.171" viewBox="0 0 167.522 170.171"><defs><clipPath id="a"><rect width="167.522" height="170.171" fill="none"/></clipPath></defs><g clip-path="url(#a)"><path d="M83.761,5.3A83.761,83.761,0,1,1,0,89.061,83.761,83.761,0,0,1,83.761,5.3" transform="translate(0 -2.652)" fill="#fff"/><path d="M243.621,132.25a78.566,78.566,0,0,1,0,40.646l-76-20.363,76-20.363Z" transform="translate(-83.859 -66.123)" fill="#fac712"/><path d="M243.626,193.3a79.2,79.2,0,0,1-20.343,35.274L221.713,227l-1.749-1.744-.939-.944-1.739-1.7-.3-.3-1.379-1.384-3.248-3.248-.2-.2-2.5-2.5-.675-.675L167.63,172.95l47.562,12.743Z" transform="translate(-83.864 -86.525)" fill="#feef00"/><path d="M223.278,61.58h0a78.552,78.552,0,0,1,20.3,35.189l.04.075-20.683,5.542L167.62,117.218Z" transform="translate(-83.859 -30.808)" fill="#f69f23"/><path d="M35.9,61.58h0L56.746,82.4l34.815,34.815L15.54,96.854A79.274,79.274,0,0,1,35.9,61.585Z" transform="translate(-7.775 -30.808)" fill="#7421b0"/><path d="M88.86,152.533l-76,20.363v-.075a78.638,78.638,0,0,1,0-40.651l28.443,7.621Z" transform="translate(-5.099 -66.123)" fill="#3a48ba"/><path d="M91.484,20.87l.075-.04L99.18,49.263l12.738,47.547L56.29,41.193A78.579,78.579,0,0,1,91.484,20.87" transform="translate(-28.161 -10.421)" fill="#d2298e"/><path d="M91.531,172.92,35.9,228.553a78.574,78.574,0,0,1-20.328-35.2l-.04-.07,28.433-7.621Z" transform="translate(-7.77 -86.51)" fill="#006fc4"/><path d="M167.591,18.152h0L159.976,46.6,147.233,94.153l-20.363-76h.065a78.583,78.583,0,0,1,40.656,0" transform="translate(-63.472 -7.743)" fill="#ff2600"/><path d="M206.947,28.71a78.663,78.663,0,0,1,16.3,12.493L202.425,62.026,167.61,96.841,187.978,20.83a78.673,78.673,0,0,1,18.969,7.88" transform="translate(-83.854 -10.421)" fill="#fb6312"/><path d="M111.923,172.92l-20.363,76A79.147,79.147,0,0,1,56.29,228.553l20.843-20.818Z" transform="translate(-28.161 -86.51)" fill="#00c2af"/><path d="M167.62,172.92l34.82,34.815.78.785,2.054,2.049,2.683,2.688,2.5,2.5.785.785,2.3,2.3.18.18,9.554,9.529a78.605,78.605,0,0,1-35.2,20.323l-.065.04Z" transform="translate(-83.859 -86.51)" fill="#7fd200"/><path d="M147.233,172.92l20.368,76h-.08a78.574,78.574,0,0,1-40.651,0l7.621-28.438Z" transform="translate(-63.472 -86.51)" fill="#00b500"/><path d="M99.18,15.66l67.885,117.6H31.29Zm0,4.722-63.8,110.511H162.983Z" transform="translate(-15.654 -7.835)" fill="#2e2e2e"/><path d="M25.694,228.88a10.809,10.809,0,1,0,10.8,10.814v0A10.8,10.8,0,0,0,25.7,228.88Z" transform="translate(-7.444 -114.507)" fill="#1f6eff"/><path d="M24.5,226.52A11.993,11.993,0,1,1,12.51,238.513,11.993,11.993,0,0,1,24.5,226.52m0,2.359a9.629,9.629,0,1,0,9.629,9.629,9.629,9.629,0,0,0-9.629-9.629" transform="translate(-6.259 -113.326)" fill="#2e2e2e"/><path d="M156.329,2.36a10.8,10.8,0,1,0,.015,0h-.015" transform="translate(-72.802 -1.181)" fill="#ff341f"/><path d="M155.143,0A11.993,11.993,0,1,1,143.15,11.993,11.993,11.993,0,0,1,155.143,0m0,2.359a9.629,9.629,0,1,0,9.629,9.634,9.629,9.629,0,0,0-9.629-9.634" transform="translate(-71.617)" fill="#2e2e2e"/><path d="M287.909,226.88a10.809,10.809,0,1,0,10.809,10.809,10.809,10.809,0,0,0-10.809-10.809" transform="translate(-138.631 -113.506)" fill="#fffb1d"/><path d="M286.723,224.52a11.993,11.993,0,1,1-11.993,11.993,11.993,11.993,0,0,1,11.993-11.993m0,2.359a9.629,9.629,0,1,0,9.629,9.629,9.629,9.629,0,0,0-9.629-9.629" transform="translate(-137.445 -112.325)" fill="#2e2e2e"/></g></svg>