<svg xmlns="http://www.w3.org/2000/svg" xmlns:xlink="http://www.w3.org/1999/xlink" width="100.125" height="97.061" viewBox="0 0 100.125 97.061"><defs><clipPath id="a"><rect width="100.125" height="97.06" fill="none"/></clipPath><clipPath id="c"><rect width="93.116" height="87.989" fill="none"/></clipPath></defs><g clip-path="url(#a)"><g transform="translate(0 0)"><g clip-path="url(#a)"><path d="M1.75,47.059s.539,16.712,14.489,27.851S49.521,86.845,65.171,87.9,92.84,80.1,94.652,66.71,84.505,49.387,78.018,34.144,72.107,13.888,58.379,4.512,23.175.894,11.917,16.956,1.75,47.059,1.75,47.059" transform="translate(0.76 0.001)" fill="#d2d5d0"/><g transform="translate(2.481 0)" opacity="0.7"><g transform="translate(0 0)"><g clip-path="url(#c)"><path d="M1.75,47.059s.539,16.712,14.489,27.851S49.521,86.845,65.171,87.9,92.84,80.1,94.652,66.71,84.505,49.387,78.018,34.144,72.107,13.888,58.379,4.512,23.175.894,11.917,16.956,1.75,47.059,1.75,47.059" transform="translate(-1.72 0)" fill="#ffc200"/></g></g></g><path d="M41.228,16.165s3.415,7.34,4,8.793-.218,3.054-1.234,4.143a7.046,7.046,0,0,1-1.964,1.525,26.4,26.4,0,0,0-3.415,6.4c-.872,2.689-1.236,4.942-3.851,5.742s-6.541-1.091-7.268-4.216a7.044,7.044,0,0,1,2.98-7.268,13.4,13.4,0,0,0,3.851-3.415c.509-.872,1.453-5.088,2.325-7.413s3.415-4.723,4.579-4.288" transform="translate(12.069 7.118)" fill="#89767a"/><path d="M1.52,37.963a5.3,5.3,0,0,0,1.417-.676c.01-.006-.584-.49-.624-.516-.474-.3-1.57-.613-2.057-.212A.748.748,0,0,0,.239,37.67a1.561,1.561,0,0,0,1.28.293" transform="translate(0 16.064)" fill="#283841"/><path d="M8.091,34.919c.012,0-.216-.731-.236-.776-.228-.516-.973-1.377-1.6-1.311a.748.748,0,0,0-.626.917,1.555,1.555,0,0,0,.907.95,5.313,5.313,0,0,0,1.556.219" transform="translate(2.479 14.501)" fill="#283841"/><path d="M7.676,39.028a.657.657,0,0,0-.366.905,1.37,1.37,0,0,0,.957.646,2.947,2.947,0,0,0,.9-.023V39.7c-.355-.382-1.028-.826-1.491-.673" transform="translate(3.201 17.226)" fill="#283841"/><path d="M11.95,46.926c-.115-.141-.235-.287-.363-.44-.17-.2-.358-.42-.552-.639a7.251,7.251,0,0,0,.493-.678,2.035,2.035,0,0,0,.422.076V43.832a1.748,1.748,0,0,0-.236-.16.744.744,0,0,0-.078-.124.656.656,0,0,0-.97-.1c-.4.383-.247,1.371-.03,1.817.013.026.183.3.293.464-.079-.089-.156-.176-.239-.267-.163-.18-.332-.356-.512-.546L9.9,44.648c-.089-.092-.2-.177-.294-.267-.232-.2-.477-.4-.73-.587a4.327,4.327,0,0,0,.861-1,1.367,1.367,0,0,0,.052-1.152.656.656,0,0,0-.944-.248c-.454.319-.45,1.318-.3,1.791.009.03.151.358.234.536-.151-.112-.3-.226-.46-.336-.456-.317-.926-.623-1.394-.93-.143-.094-.284-.189-.427-.284a4.58,4.58,0,0,0,.894-1.032,1.365,1.365,0,0,0,.053-1.153.656.656,0,0,0-.944-.247c-.454.317-.451,1.318-.3,1.791.01.036.216.507.275.624-.313-.209-.623-.421-.921-.642A11.792,11.792,0,0,1,4.4,40.546a4.615,4.615,0,0,0,.9-1.037,1.376,1.376,0,0,0,.053-1.153.657.657,0,0,0-.946-.247c-.454.317-.45,1.318-.3,1.791.01.03.167.391.245.559l-.026.017a8.412,8.412,0,0,1-.96-1.161c-.16-.226-.3-.453-.431-.675a4.4,4.4,0,0,0,.983-.914,1.366,1.366,0,0,0,.179-1.14.655.655,0,0,0-.911-.349c-.487.267-.593,1.26-.5,1.747,0,.026.085.288.147.48-.058-.1-.118-.2-.172-.3-.2-.368-.363-.718-.5-1.028-.078-.177-.146-.339-.208-.49A4.386,4.386,0,0,0,2.4,35.387a1.369,1.369,0,0,0-.366-1.094.656.656,0,0,0-.97.11c-.309.46.055,1.391.362,1.781.026.033.5.512.506.5l.006-.01c.056.147.12.306.189.476.134.314.291.668.483,1.041a11.909,11.909,0,0,0,.683,1.176,8.76,8.76,0,0,0,.944,1.194l.013.012c-.143-.078-.548-.283-.581-.294-.464-.173-1.463-.232-1.805.2a.656.656,0,0,0,.193.957,1.37,1.37,0,0,0,1.155.012,4.563,4.563,0,0,0,1.081-.836,11.6,11.6,0,0,0,1.163,1.024c.238.185.483.363.732.539-.125-.063-.238-.12-.255-.125-.464-.172-1.462-.232-1.805.2a.655.655,0,0,0,.195.956,1.367,1.367,0,0,0,1.153.012,4.324,4.324,0,0,0,1.054-.809c.1.068.19.134.287.2.461.319.924.633,1.367.956.157.114.307.232.457.349-.111-.056-.2-.1-.221-.108-.464-.172-1.462-.232-1.805.2a.656.656,0,0,0,.195.957,1.367,1.367,0,0,0,1.153.012A4.219,4.219,0,0,0,8.989,44.2c.15.124.3.249.441.376.094.089.19.17.278.264l.268.274c.164.18.334.365.49.545.11.124.21.245.313.366-.154-.115-.461-.334-.489-.349-.433-.241-1.41-.451-1.815-.072a.657.657,0,0,0,.048.976,1.375,1.375,0,0,0,1.139.186,4.484,4.484,0,0,0,1.188-.659c.17.2.333.4.483.587.216.268.412.52.588.753h.029Z" transform="translate(0.417 15.075)" fill="#283841"/><path d="M6.869,38.411a4.576,4.576,0,0,0,1.364-.1,11.632,11.632,0,0,0,.405,1.5c.1.285.2.571.313.855-.069-.123-.133-.232-.143-.245-.293-.4-1.093-1-1.619-.826a.657.657,0,0,0-.366.905,1.374,1.374,0,0,0,.957.646,4.34,4.34,0,0,0,1.325-.094c.043.108.085.218.128.326.187.464.375.927.549,1.388v-.6c-.121-.29-.245-.578-.369-.868-.068-.157-.134-.316-.2-.473.039-.006.288-.042.569-.107V39.285a2.609,2.609,0,0,0-.467.839c-.01.035-.1.542-.114.672-.146-.347-.288-.695-.414-1.042a11.51,11.51,0,0,1-.425-1.437,4.635,4.635,0,0,0,1.323-.369c.032-.02.065-.043.1-.068V36.293a.516.516,0,0,0-.068-.006c-.555.014-1.1.851-1.243,1.326-.009.03-.076.417-.1.6H8.337a8.3,8.3,0,0,1-.16-1.5c-.009-.277,0-.542.012-.8A4.446,4.446,0,0,0,9.513,35.7a1.985,1.985,0,0,0,.27-.164V34.063a.6.6,0,0,0-.059-.013c-.552-.046-1.189.725-1.38,1.182-.01.025-.088.288-.141.483.007-.117.013-.236.023-.349.035-.417.092-.8.146-1.135.033-.19.065-.363.1-.523a4.385,4.385,0,0,0,1.068-.8,1.907,1.907,0,0,0,.245-.456v-.784a.645.645,0,0,0-.817-.319c-.512.215-.721,1.192-.68,1.685,0,.042.137.7.146.7l.01-.006c-.035.154-.069.32-.1.5-.062.336-.128.717-.172,1.135a11.37,11.37,0,0,0-.079,1.358,8.546,8.546,0,0,0,.128,1.515l0,.019c-.075-.144-.3-.539-.322-.568-.293-.4-1.091-1-1.619-.825a.655.655,0,0,0-.365.905,1.371,1.371,0,0,0,.956.646" transform="translate(2.584 13.825)" fill="#283841"/><path d="M64.048,12.94a5.3,5.3,0,0,1-1.417-.676c-.01-.006.584-.49.624-.516.474-.3,1.57-.613,2.057-.212a.748.748,0,0,1,.016,1.112,1.561,1.561,0,0,1-1.28.293" transform="translate(27.664 5.011)" fill="#283841"/><path d="M57.337,9.9c-.012,0,.216-.731.236-.776.228-.516.972-1.377,1.6-1.311a.746.746,0,0,1,.626.917,1.553,1.553,0,0,1-.905.95,5.318,5.318,0,0,1-1.556.219" transform="translate(25.326 3.449)" fill="#283841"/><path d="M57.58,14.005a.657.657,0,0,1,.366.905,1.37,1.37,0,0,1-.957.646,2.946,2.946,0,0,1-.9-.023v-.855c.355-.382,1.028-.826,1.491-.673" transform="translate(24.775 6.173)" fill="#283841"/><path d="M56.089,21.9c.115-.141.235-.288.363-.44.17-.2.358-.42.552-.639a7.252,7.252,0,0,1-.493-.678,2.035,2.035,0,0,1-.422.076V18.809a1.907,1.907,0,0,1,.236-.161.8.8,0,0,1,.078-.123.656.656,0,0,1,.97-.1c.4.383.247,1.371.03,1.817-.013.026-.183.3-.293.464.079-.089.156-.176.239-.267.163-.18.332-.356.512-.546l.274-.267c.089-.092.2-.177.294-.267.232-.2.477-.4.729-.587a4.327,4.327,0,0,1-.861-1,1.367,1.367,0,0,1-.052-1.152.656.656,0,0,1,.944-.248c.454.319.45,1.318.3,1.791-.009.03-.151.358-.234.536.151-.112.3-.226.46-.336.456-.317.926-.623,1.394-.93.143-.094.284-.189.427-.284a4.58,4.58,0,0,1-.894-1.032,1.365,1.365,0,0,1-.053-1.153.656.656,0,0,1,.944-.247c.454.317.451,1.318.3,1.791-.01.036-.216.507-.275.624.313-.209.623-.421.921-.642a11.79,11.79,0,0,0,1.148-.965,4.615,4.615,0,0,1-.9-1.037,1.376,1.376,0,0,1-.053-1.153.657.657,0,0,1,.946-.247c.454.317.45,1.318.3,1.791-.01.03-.167.391-.245.559l.026.017a8.411,8.411,0,0,0,.96-1.161c.16-.226.3-.453.431-.675a4.4,4.4,0,0,1-.983-.914,1.372,1.372,0,0,1-.179-1.14.655.655,0,0,1,.911-.349c.487.267.593,1.26.5,1.747-.006.026-.086.288-.148.48.058-.1.118-.2.172-.3.2-.368.363-.718.5-1.028.078-.177.146-.339.208-.49a4.386,4.386,0,0,1-.448-1.259,1.374,1.374,0,0,1,.366-1.094.656.656,0,0,1,.97.11c.309.46-.055,1.391-.362,1.781-.026.033-.5.512-.506.5l-.006-.01c-.056.147-.118.306-.189.476-.134.314-.29.668-.483,1.041a11.63,11.63,0,0,1-.683,1.176,8.65,8.65,0,0,1-.944,1.194l-.013.012c.143-.078.548-.283.581-.294.464-.173,1.463-.232,1.805.2a.656.656,0,0,1-.193.957,1.37,1.37,0,0,1-1.155.012,4.562,4.562,0,0,1-1.081-.836,11.6,11.6,0,0,1-1.163,1.024c-.238.185-.483.363-.732.539.125-.063.238-.12.255-.125.464-.172,1.462-.232,1.805.2a.655.655,0,0,1-.195.956,1.367,1.367,0,0,1-1.153.012,4.324,4.324,0,0,1-1.054-.809c-.1.068-.19.134-.287.2-.461.319-.924.633-1.367.956-.157.114-.307.232-.457.349.111-.056.2-.1.221-.108.464-.173,1.462-.232,1.805.2a.656.656,0,0,1-.195.957,1.367,1.367,0,0,1-1.153.012,4.218,4.218,0,0,1-1.028-.783c-.15.124-.3.249-.441.376-.094.089-.189.17-.278.264l-.268.274c-.164.18-.334.365-.49.545-.108.124-.21.245-.313.366.154-.115.461-.334.489-.349.433-.241,1.41-.451,1.815-.072a.658.658,0,0,1-.046.976,1.379,1.379,0,0,1-1.14.186,4.485,4.485,0,0,1-1.188-.659c-.17.2-.333.4-.483.587-.216.268-.412.52-.588.753h-.029Z" transform="translate(24.775 4.022)" fill="#283841"/><path d="M59,13.388a4.56,4.56,0,0,1-1.362-.1,11.88,11.88,0,0,1-.407,1.5c-.1.285-.2.571-.313.855.069-.123.133-.232.143-.245.293-.4,1.093-1,1.619-.826a.657.657,0,0,1,.366.905,1.374,1.374,0,0,1-.957.646,4.372,4.372,0,0,1-1.323-.094c-.045.108-.087.218-.13.326-.187.464-.375.927-.549,1.387v-.594c.121-.29.245-.578.369-.868.068-.157.134-.316.2-.473-.039-.006-.288-.042-.569-.107V14.262a2.609,2.609,0,0,1,.467.839c.01.035.1.542.114.672.146-.347.288-.695.414-1.042a11.511,11.511,0,0,0,.425-1.437,4.635,4.635,0,0,1-1.323-.369c-.032-.02-.065-.043-.1-.068V11.27a.515.515,0,0,1,.068-.006c.555.014,1.1.851,1.243,1.326.009.03.076.417.1.6h.032a8.3,8.3,0,0,0,.16-1.5c.009-.277,0-.542-.012-.8a4.446,4.446,0,0,1-1.325-.219,1.986,1.986,0,0,1-.27-.164V9.04a.6.6,0,0,1,.059-.013c.552-.046,1.189.725,1.38,1.182.01.025.088.288.141.483-.007-.117-.013-.236-.023-.349-.035-.417-.092-.8-.146-1.135-.033-.19-.065-.363-.1-.523a4.385,4.385,0,0,1-1.068-.8,1.907,1.907,0,0,1-.245-.456V6.642a.644.644,0,0,1,.817-.319c.512.215.721,1.192.68,1.685,0,.042-.137.7-.146.7l-.01-.006c.035.154.069.32.1.5.062.336.128.717.172,1.135a11.37,11.37,0,0,1,.079,1.358,8.546,8.546,0,0,1-.128,1.515l0,.019c.075-.144.3-.539.321-.568.293-.4,1.091-1,1.619-.825a.655.655,0,0,1,.365.905,1.371,1.371,0,0,1-.956.646" transform="translate(24.775 2.772)" fill="#283841"/><path d="M54.142,13.231c-.2-.789-2.778-1.373-3.043-1.251-.05.023-.112.2-.18.473a3.036,3.036,0,0,0-.431-.071c-.264-.01-.474,1.383-.474,1.383s-.022,2.379.071,2.961l-4.773,8.34-8.143-4.044c-.608,2.351,3.313,6.238,3.313,6.238s5.4,1.7,6.362,1.181S51.82,17.081,51.82,17.081a11.765,11.765,0,0,0,1.077-.969c.373-.409,1.445-2.092,1.246-2.881" transform="translate(16.389 5.285)" fill="#ad9fa1"/><path d="M38.788,24.543l6.322,2.48L50.4,16.775l1.7-4.53" transform="translate(17.133 5.409)" fill="none" stroke="#d2d5d0" stroke-miterlimit="10" stroke-width="0.15"/><path d="M43.93,22.428a.622.622,0,1,0-.309.823.62.62,0,0,0,.309-.823" transform="translate(18.88 9.746)" fill="#d2d5d0"/><path d="M47.549,15.243a.622.622,0,1,0-.309.823.62.62,0,0,0,.309-.823" transform="translate(20.478 6.572)" fill="#d2d5d0"/><path d="M48.784,12.552a.621.621,0,1,0-.621.621.621.621,0,0,0,.621-.621" transform="translate(20.999 5.27)" fill="#d2d5d0"/><path d="M48.723,7.306A5.5,5.5,0,0,0,45.8,8.1a7.336,7.336,0,0,0-4.693-.183,4.321,4.321,0,0,0-2.589,2.164,5.765,5.765,0,0,0-.5,1.423,8.645,8.645,0,0,0-.164,1.21c-.006.071-.007.14-.009.21v.066c0,.049,0,.1,0,.148l.006.081c0,.045.006.091.01.136,0,.029.007.056.01.084.006.046.01.091.017.136,0,.029.009.058.014.087.007.046.013.091.022.136.006.029.013.058.019.087.009.046.017.091.029.136.006.029.013.058.02.087l.035.137c.007.029.016.058.025.087l.039.137c.009.029.019.056.027.085.014.046.029.092.045.138.009.027.019.055.029.084.016.046.032.092.049.138l.03.082c.017.046.035.092.053.138l.035.084c.017.045.036.089.055.134l.036.082c.019.045.039.089.059.134.012.027.025.053.036.079.02.045.042.089.062.133l.039.081.062.127.042.082c.022.04.042.082.063.123s.029.053.042.079l.065.12.043.081.065.114c.014.026.03.052.045.079s.042.072.063.107l.048.081c.02.033.04.066.059.1l.052.082.056.089.052.084.053.082.055.084c.017.025.033.049.049.074s.039.058.058.085l.042.061.061.088c.013.017.025.035.036.052l.063.087.029.04.066.089.022.029.066.087.017.022.066.085.01.01c.023.029.045.056.066.081l.006.007.063.074c.035.039.066.074.094.1a1.517,1.517,0,0,1,.078,1.858c-.022.026-.04.049-.059.075-.094-.2-.146-.314-.146-.314-1.163-.437-3.707,1.962-4.579,4.288s-1.817,6.541-2.325,7.413a13.011,13.011,0,0,1-3.668,3.29A16.4,16.4,0,0,0,37.928,40a27.042,27.042,0,0,1,3.078-5.478,7.072,7.072,0,0,0,1.962-1.525c1.018-1.091,1.817-2.69,1.236-4.143-.242-.6-.976-2.23-1.749-3.921a20.4,20.4,0,0,1,1.285-4.092,8.138,8.138,0,0,1,.928-1.315s3.173.928,3.714.464,1.471-3.327,1.471-3.327,1.084-.464.928-1.006-1.315-.774-1.393-1.7c-.017-.218-.027-.414-.032-.587a1.746,1.746,0,0,0,.391.007c.787-.079.551-1.024.316-1.417s.708-.866,1.259-1.654-.078-3.072-2.6-2.993" transform="translate(13.09 3.226)" fill="#ad9fa1"/><path d="M40.526,8.486s.866-1.1,3.387-1.181,3.15,2.2,2.6,2.992-1.5,1.26-1.26,1.654.473,1.339-.314,1.419A1.1,1.1,0,0,1,43.6,12.344c-.078-.708-2.047-3.779-3.071-3.858" transform="translate(17.901 3.226)" fill="#89767a"/><path d="M46.871,12.386A6.133,6.133,0,0,0,45.4,9.368C44.085,7.82,40.834,7.046,38.591,7.82s-3.1,2.553-3.25,4.8,1.933,5.184,2.475,5.726a1.517,1.517,0,0,1,.078,1.857c-.31.386-.464.62-.464.62l2.4,4.488a24.613,24.613,0,0,1,1.393-4.566,8.124,8.124,0,0,1,.928-1.316s3.173.928,3.714.464,1.471-3.327,1.471-3.327,1.083-.464.928-1-1.315-.774-1.393-1.7a7.206,7.206,0,0,1,0-1.471" transform="translate(15.607 3.32)" fill="#ad9fa1"/><path d="M45.4,9.367c-1.316-1.548-4.567-2.321-6.811-1.548s-3.1,2.555-3.25,4.8c-.151,2.2,1.853,5.068,2.442,5.69.564.025,1.889-.235,2.9-2.9a1.515,1.515,0,0,0,1.472-.852c.618-1.006-.079-2.011.771-3.172.709-.965,2.693-.807,3.348-.727A7.118,7.118,0,0,0,45.4,9.367" transform="translate(15.607 3.32)" fill="#89767a"/><path d="M40.45,13.7s-1.083-2.089-2.013-1.547-.309,2.243.156,2.94,1.625-.232,1.625-.232" transform="translate(16.766 5.33)" fill="#ad9fa1"/><path d="M44.582,11.01,41.036,21.167,36.342,31.993,30.306,42.149" transform="translate(13.386 4.864)" fill="none" stroke="#d2d5d0" stroke-miterlimit="10" stroke-width="0.15"/><path d="M41.02,11.2a.621.621,0,1,0-.621.621.621.621,0,0,0,.621-.621" transform="translate(17.57 4.673)" fill="#d2d5d0"/><path d="M38.561,18.245a.621.621,0,1,0-.621.621.621.621,0,0,0,.621-.621" transform="translate(16.484 7.785)" fill="#d2d5d0"/><path d="M35.305,25.754a.622.622,0,1,0-.623.621.623.623,0,0,0,.623-.621" transform="translate(15.045 11.102)" fill="#d2d5d0"/><path d="M31.118,32.8a.621.621,0,1,0-.621.621.621.621,0,0,0,.621-.621" transform="translate(13.196 14.214)" fill="#d2d5d0"/><path d="M44.306,17.713s-11.952-2.357-12.869-2.193c-.747.133-6.779,4.22-8.976,5.722,0,0-2.9,1.223-3.248,1.861s.82,1.687.82,1.687a1.092,1.092,0,0,0,.623.835c.545.213,2.382-1.188,2.426-1.576a5.11,5.11,0,0,1,.754-1.331c2.014-.956,8.228-3.633,8.228-3.633s10.648,3.387,11.907,2.746,2.383-3.172.334-4.119" transform="translate(8.458 6.852)" fill="#ad9fa1"/><path d="M43.873,19.269,31.144,16.607l-8.013,4.915-3.369,2.785" transform="translate(8.729 7.336)" fill="none" stroke="#d2d5d0" stroke-miterlimit="10" stroke-width="0.15"/><path d="M37.223,18.94a.622.622,0,1,0-.843.249.622.622,0,0,0,.843-.249" transform="translate(15.926 7.961)" fill="#d2d5d0"/><path d="M28.244,17.163a.622.622,0,1,0-.843.249.622.622,0,0,0,.843-.249" transform="translate(11.96 7.176)" fill="#d2d5d0"/><path d="M22.836,20.5a.622.622,0,1,0-.843.249.622.622,0,0,0,.843-.249" transform="translate(9.571 8.651)" fill="#d2d5d0"/><path d="M20.517,22.372a.622.622,0,1,0-.843.249.622.622,0,0,0,.843-.249" transform="translate(8.547 9.477)" fill="#d2d5d0"/><path d="M41.945,12.246s-1.3-4.073-4.014-6S33,6.488,31.223,7.2s-2.964-.92-4.308-2-4.112.732-2.994,4.41,6.054,4.432,8.326,3.441,3.665-3.006,5.615-2.588a7.187,7.187,0,0,1,3.462,2.279Z" transform="translate(10.451 2.164)" fill="#89767a"/><path d="M40.121,10.348l-4.74-3.623L28.066,9.754,25.312,6.317" transform="translate(11.18 2.791)" fill="none" stroke="#d2d5d0" stroke-miterlimit="10" stroke-width="0.15"/><path d="M27.958,9.189a.621.621,0,1,0-.843.249.621.621,0,0,0,.843-.249" transform="translate(11.833 3.653)" fill="#d2d5d0"/><path d="M26.078,6.8a.621.621,0,1,0-.843.249.622.622,0,0,0,.843-.249" transform="translate(11.003 2.6)" fill="#d2d5d0"/><path d="M33.033,7.088a.621.621,0,1,0-.843.249.621.621,0,0,0,.843-.249" transform="translate(14.075 2.725)" fill="#d2d5d0"/><path d="M36.321,9.6a.621.621,0,1,0-.843.249.622.622,0,0,0,.843-.249" transform="translate(15.527 3.835)" fill="#d2d5d0"/><path d="M31.146,31.054s-8.128,10.483-8.061,11.737a2.347,2.347,0,0,0,3.178,2.248c1.964-.771,9.246-5.251,11.648-8.356s-2.4-9.7-6.764-5.628" transform="translate(10.197 13.148)" fill="#89767a"/><path d="M30.084,28.9s8.686.17,15.5,2.81,6.728,3.237,6.472,4.259-2.555,1.7-10.731,1.959-10.731-.427-13.37-3.833" transform="translate(12.348 12.766)" fill="#89767a"/><path d="M32.2,39.9a20.161,20.161,0,0,0-5.434-2.46c-2.885-.747-8.407-2.526-8.662-2.7s-2.775-2.265-3.09-2.135a50.169,50.169,0,0,0-4.638,5.961c-.027.381-.04.569.747.245l1.338-.551c.394-.161,4.527-1.311,4.527-1.311s10.546,6.156,11.959,6.681a6.3,6.3,0,0,0,2.866.284,4.011,4.011,0,0,0,1.541-.9" transform="translate(4.579 14.403)" fill="#89767a"/><path d="M21.856,36.009C19.9,35.4,18.24,34.84,18.1,34.748c-.255-.172-2.775-2.265-3.09-2.135a50.169,50.169,0,0,0-4.638,5.961c-.027.379-.042.569.747.245l1.338-.551c.394-.161,4.526-1.311,4.526-1.311s1.351.789,3.15,1.825a5.828,5.828,0,0,1,1.72-2.774" transform="translate(4.579 14.403)" fill="#ad9fa1"/><path d="M15.935,36.194l1.6-1.886c-.833-.657-2.288-1.792-2.522-1.7a50.169,50.169,0,0,0-4.638,5.961c-.027.381-.042.571.747.247l1.338-.552c.394-.161,4.526-1.311,4.526-1.311l.053.032a2.178,2.178,0,0,0-1.1-.8" transform="translate(4.579 14.403)" fill="#ddd7d7"/><path d="M39.589,33.207l-8.372,8.345L17.287,35.1l-3.838,1.159-3.077,2.049" transform="translate(4.582 14.668)" fill="none" stroke="#d2d5d0" stroke-miterlimit="10" stroke-width="0.15"/><path d="M25.4,39.366a.621.621,0,1,0-.828.3.623.623,0,0,0,.828-.3" transform="translate(10.698 16.997)" fill="#d2d5d0"/><path d="M16.072,35.128a.621.621,0,1,0-.828.3.623.623,0,0,0,.828-.3" transform="translate(6.576 15.125)" fill="#d2d5d0"/><path d="M13.26,35.781a.621.621,0,1,0-.828.3.623.623,0,0,0,.828-.3" transform="translate(5.334 15.413)" fill="#d2d5d0"/><path d="M11.351,37.137a.621.621,0,1,0-.828.3.623.623,0,0,0,.828-.3" transform="translate(4.491 16.012)" fill="#d2d5d0"/><path d="M48.462,52.756c.556-.185,2-.177,2.993-.471-.99-1.034-1.805-1.89-1.805-1.89s-2.255-15.418-2.713-16.61A1.626,1.626,0,0,0,44.572,32.7l-4.765,2.526S48.482,52.6,48.462,52.756" transform="translate(17.583 14.363)" fill="#89767a"/><path d="M46.557,48.427c.556-.185,2-.177,2.993-.471-.99-1.034-1.805-1.89-1.805-1.89s-.257-1.573-.621-3.75A5.514,5.514,0,0,1,44.118,43.4c1.316,2.653,2.448,4.959,2.439,5.026" transform="translate(19.487 18.692)" fill="#ad9fa1"/><path d="M47.19,50.115a39.907,39.907,0,0,0,6.4-3.023c.67-.627,1.472-1.854.761-2.034s-1.459.477-2.663.673-4.955-.894-4.955-.894c-.251.768.865,2.04.865,2.04l-1.786.435s.869,2.891,1.38,2.8" transform="translate(20.235 19.805)" fill="#ddd7d7"/><path d="M61.594,51.555l-3.911,1.6-4.152-1.2L48.5,35.349,29.573,30.79" transform="translate(13.063 13.601)" fill="none" stroke="#d2d5d0" stroke-miterlimit="10" stroke-width="0.15"/><path d="M47,45.66a.621.621,0,1,0-.621.621A.621.621,0,0,0,47,45.66" transform="translate(20.212 19.894)" fill="#d2d5d0"/><path d="M43.514,34.143a.621.621,0,1,0-.621.621.621.621,0,0,0,.621-.621" transform="translate(18.671 14.807)" fill="#d2d5d0"/><path d="M30.386,30.981a.621.621,0,1,0-.621.621.621.621,0,0,0,.621-.621" transform="translate(12.873 13.411)" fill="#d2d5d0"/><path d="M49.882,46.491a.621.621,0,1,0-.621.621.621.621,0,0,0,.621-.621" transform="translate(21.484 20.261)" fill="#d2d5d0"/><path d="M52.374,45.494a.621.621,0,1,0-.621.621.621.621,0,0,0,.621-.621" transform="translate(22.585 19.821)" fill="#d2d5d0"/><line x2="61.297" transform="translate(17.006 77.242)" fill="none" stroke="#283841" stroke-miterlimit="10" stroke-width="0.15"/><path d="M42,10.8s-3.087-2.957-6.393-3.348-4.217,2.565-5.435,4.044-3.043.608-4.739.3-3.263,2.608-.522,5.3,7.435,1,8.957-.956,1.782-4.391,3.7-4.958a7.184,7.184,0,0,1,4.13.349Z" transform="translate(10.347 3.275)" fill="#283841"/><path d="M42,10.8s-3.087-2.957-6.393-3.348-4.217,2.565-5.435,4.044-3.043.608-4.739.3-3.263,2.608-.522,5.3,7.435,1,8.957-.956,1.782-4.391,3.7-4.958a7.184,7.184,0,0,1,4.13.349Z" transform="translate(10.347 3.275)" fill="none" stroke="#283841" stroke-miterlimit="10" stroke-width="0.15"/><path d="M39.8,9.629l-5.9-.917-4.978,6.158-4.061-1.7" transform="translate(10.983 3.848)" fill="none" stroke="#d2d5d0" stroke-miterlimit="10" stroke-width="0.15"/><path d="M28.493,13.173a.621.621,0,1,0-.621.621.621.621,0,0,0,.621-.621" transform="translate(12.036 5.545)" fill="#d2d5d0"/><path d="M25.7,11.976a.621.621,0,1,0-.621.621.621.621,0,0,0,.621-.621" transform="translate(10.804 5.016)" fill="#d2d5d0"/><path d="M31.947,8.9a.622.622,0,1,0-.623.621.623.623,0,0,0,.623-.621" transform="translate(13.562 3.658)" fill="#d2d5d0"/><path d="M36.036,9.538a.621.621,0,1,0-.621.621.621.621,0,0,0,.621-.621" transform="translate(15.368 3.939)" fill="#d2d5d0"/><path d="M37.952,19.174l5.741,7.05,8.068-5.814S54.086,16.7,54.376,16.7s2.4,1.6,2.253,2.4-1.817,1.889-2.325,2.106a11.6,11.6,0,0,1-1.381.437s-8.14,8.212-9.23,8.284-5.305-3.705-5.305-3.705-1.962-5.16-.435-7.05" transform="translate(16.507 7.378)" fill="#fff"/><path d="M37.952,19.174l5.741,7.05,8.068-5.814S54.086,16.7,54.376,16.7s2.4,1.6,2.253,2.4-1.817,1.889-2.325,2.106a11.6,11.6,0,0,1-1.381.437s-8.14,8.212-9.23,8.284-5.305-3.705-5.305-3.705S36.425,21.064,37.952,19.174Z" transform="translate(16.507 7.378)" fill="none" stroke="#283841" stroke-miterlimit="10" stroke-width="0.15"/><path d="M47.149,20.683a27.55,27.55,0,0,1,1.181-2.834s.768-1.182,1-1.064,1.595,1.123,1.417,1.417-1.358-.176-1.358-.176a1.793,1.793,0,0,1-.236,2.125" transform="translate(20.826 7.411)" fill="#fff"/><path d="M47.149,20.683a27.55,27.55,0,0,1,1.181-2.834s.768-1.182,1-1.064,1.595,1.123,1.417,1.417-1.358-.176-1.358-.176a1.793,1.793,0,0,1-.236,2.125" transform="translate(20.826 7.411)" fill="none" stroke="#283841" stroke-miterlimit="10" stroke-width="0.15"/><line x2="1.299" y2="1.122" transform="translate(70.515 25.79)" fill="none" stroke="#283841" stroke-miterlimit="10" stroke-width="0.15"/><path d="M36.9,20.467l6.639,7.544,9.055-7.142,3.42-3.42" transform="translate(16.298 7.708)" fill="none" stroke="#d2d5d0" stroke-miterlimit="10" stroke-width="0.15"/><path d="M42.315,24.966a.621.621,0,1,0-.621.621.621.621,0,0,0,.621-.621" transform="translate(18.142 10.754)" fill="#d2d5d0"/><path d="M48.582,19.922a.621.621,0,1,0-.621.621.621.621,0,0,0,.621-.621" transform="translate(20.91 8.526)" fill="#d2d5d0"/><path d="M40.526,8.486s.866-1.1,3.387-1.181,3.15,2.2,2.6,2.992-1.5,1.26-1.26,1.654.473,1.339-.314,1.419A1.1,1.1,0,0,1,43.6,12.344c-.078-.708-2.047-3.779-3.071-3.858" transform="translate(17.901 3.226)" fill="#283841"/><path d="M40.526,8.486s.866-1.1,3.387-1.181,3.15,2.2,2.6,2.992-1.5,1.26-1.26,1.654.473,1.339-.314,1.419A1.1,1.1,0,0,1,43.6,12.344C43.519,11.637,41.55,8.566,40.526,8.486Z" transform="translate(17.901 3.226)" fill="none" stroke="#283841" stroke-miterlimit="10" stroke-width="0.15"/><path d="M46.871,12.386A6.133,6.133,0,0,0,45.4,9.368C44.085,7.82,40.834,7.046,38.591,7.82s-3.1,2.553-3.25,4.8,1.933,5.184,2.475,5.726a1.517,1.517,0,0,1,.078,1.857c-.31.386-.464.62-.464.62l2.4,4.488a24.613,24.613,0,0,1,1.393-4.566,8.124,8.124,0,0,1,.928-1.316s3.173.928,3.714.464,1.471-3.327,1.471-3.327,1.083-.464.928-1-1.315-.774-1.393-1.7a7.206,7.206,0,0,1,0-1.471" transform="translate(15.607 3.32)" fill="#fff"/><path d="M46.871,12.386A6.133,6.133,0,0,0,45.4,9.368C44.085,7.82,40.834,7.046,38.591,7.82s-3.1,2.553-3.25,4.8,1.933,5.184,2.475,5.726a1.517,1.517,0,0,1,.078,1.857c-.31.386-.464.62-.464.62l2.4,4.488a24.613,24.613,0,0,1,1.393-4.566,8.124,8.124,0,0,1,.928-1.316s3.173.928,3.714.464,1.471-3.327,1.471-3.327,1.083-.464.928-1-1.315-.774-1.393-1.7A7.206,7.206,0,0,1,46.871,12.386Z" transform="translate(15.607 3.32)" fill="none" stroke="#283841" stroke-miterlimit="10" stroke-width="0.15"/><path d="M42.886,12.456c0,.278-.112.5-.252.5s-.252-.226-.252-.5.112-.5.252-.5.252.226.252.5" transform="translate(18.72 5.279)" fill="#283841"/><path d="M41.914,11.267a1.029,1.029,0,0,1,1.261.169" transform="translate(18.514 4.913)" fill="none" stroke="#283841" stroke-miterlimit="10" stroke-width="0.15"/><path d="M43.3,14.5s-.973.1-1.168-.584" transform="translate(18.609 6.148)" fill="none" stroke="#283841" stroke-miterlimit="10" stroke-width="0.15"/><path d="M45.4,9.367c-1.316-1.548-4.567-2.321-6.811-1.548s-3.1,2.555-3.25,4.8c-.151,2.2,1.853,5.068,2.442,5.69.564.025,1.889-.235,2.9-2.9a1.515,1.515,0,0,0,1.472-.852c.618-1.006-.079-2.011.771-3.172.709-.965,2.693-.807,3.348-.727A7.118,7.118,0,0,0,45.4,9.367" transform="translate(15.607 3.32)" fill="#283841"/><path d="M45.4,9.367c-1.316-1.548-4.567-2.321-6.811-1.548s-3.1,2.555-3.25,4.8c-.151,2.2,1.853,5.068,2.442,5.69.564.025,1.889-.235,2.9-2.9a1.515,1.515,0,0,0,1.472-.852c.618-1.006-.079-2.011.771-3.172.709-.965,2.693-.807,3.348-.727A7.118,7.118,0,0,0,45.4,9.367Z" transform="translate(15.607 3.32)" fill="none" stroke="#283841" stroke-miterlimit="10" stroke-width="0.15"/><path d="M40.45,13.7s-1.083-2.089-2.013-1.547-.309,2.243.156,2.94,1.625-.232,1.625-.232" transform="translate(16.766 5.33)" fill="#fff"/><path d="M40.45,13.7s-1.083-2.089-2.013-1.547-.309,2.243.156,2.94,1.625-.232,1.625-.232" transform="translate(16.766 5.33)" fill="none" stroke="#283841" stroke-miterlimit="10" stroke-width="0.15"/><path d="M41.228,16.165s3.415,7.34,4,8.793-.218,3.054-1.234,4.143a7.046,7.046,0,0,1-1.964,1.525,26.4,26.4,0,0,0-3.415,6.4c-.872,2.689-1.236,4.942-3.851,5.742s-6.541-1.091-7.268-4.216a7.044,7.044,0,0,1,2.98-7.268,13.4,13.4,0,0,0,3.851-3.415c.509-.872,1.453-5.088,2.325-7.413s3.415-4.723,4.579-4.288" transform="translate(12.069 7.118)" fill="#283841"/><path d="M41.228,16.165s3.415,7.34,4,8.793-.218,3.054-1.234,4.143a7.046,7.046,0,0,1-1.964,1.525,26.4,26.4,0,0,0-3.415,6.4c-.872,2.689-1.236,4.942-3.851,5.742s-6.541-1.091-7.268-4.216a7.044,7.044,0,0,1,2.98-7.268,13.4,13.4,0,0,0,3.851-3.415c.509-.872,1.453-5.088,2.325-7.413S40.064,15.729,41.228,16.165Z" transform="translate(12.069 7.118)" fill="none" stroke="#283841" stroke-miterlimit="10" stroke-width="0.15"/><path d="M42.968,29.1c1.018-1.09,1.817-2.689,1.236-4.142s-4-8.794-4-8.794c-1.162-.435-3.705,1.962-4.577,4.288s-1.817,6.541-2.325,7.413a12.988,12.988,0,0,1-3.668,3.291,16.4,16.4,0,0,0,8.293,4.948,26.94,26.94,0,0,1,3.078-5.477A7.093,7.093,0,0,0,42.968,29.1" transform="translate(13.09 7.118)" fill="#806e73"/><path d="M42.968,29.1c1.018-1.09,1.817-2.689,1.236-4.142s-4-8.794-4-8.794c-1.162-.435-3.705,1.962-4.577,4.288s-1.817,6.541-2.325,7.413a12.988,12.988,0,0,1-3.668,3.291,16.4,16.4,0,0,0,8.293,4.948,26.94,26.94,0,0,1,3.078-5.477A7.093,7.093,0,0,0,42.968,29.1Z" transform="translate(13.09 7.118)" fill="none" stroke="#283841" stroke-miterlimit="10" stroke-width="0.15"/><path d="M35.356,20.779a32.293,32.293,0,0,0,1.724,5.269" transform="translate(15.617 9.179)" fill="none" stroke="#283841" stroke-miterlimit="10" stroke-width="0.15"/><path d="M34.692,20.979s.959,2.491,1.341,3.64" transform="translate(15.324 9.267)" fill="none" stroke="#283841" stroke-miterlimit="10" stroke-width="0.15"/><path d="M30.9,26.982A19.635,19.635,0,0,0,37.9,26.7" transform="translate(13.65 11.792)" fill="none" stroke="#283841" stroke-miterlimit="10" stroke-width="0.15"/><path d="M32.166,26.751A36.3,36.3,0,0,0,39.16,25.7" transform="translate(14.208 11.351)" fill="none" stroke="#283841" stroke-miterlimit="10" stroke-width="0.15"/><path d="M44.582,11.01,41.036,21.167,36.342,31.993,30.306,42.149" transform="translate(13.386 4.864)" fill="none" stroke="#d2d5d0" stroke-miterlimit="10" stroke-width="0.15"/><path d="M41.02,11.2a.621.621,0,1,0-.621.621.621.621,0,0,0,.621-.621" transform="translate(17.57 4.673)" fill="#d2d5d0"/><path d="M38.561,18.245a.621.621,0,1,0-.621.621.621.621,0,0,0,.621-.621" transform="translate(16.484 7.785)" fill="#d2d5d0"/><path d="M35.305,25.754a.622.622,0,1,0-.623.621.623.623,0,0,0,.623-.621" transform="translate(15.045 11.102)" fill="#d2d5d0"/><path d="M31.118,32.8a.621.621,0,1,0-.621.621.621.621,0,0,0,.621-.621" transform="translate(13.196 14.214)" fill="#d2d5d0"/><path d="M28.507,32.578s-2.895,12.945-2.3,14.052a2.347,2.347,0,0,0,3.832.68c1.447-1.533,6.132-8.686,6.984-12.518s-6.3-7.751-8.516-2.214" transform="translate(11.54 13.176)" fill="#283841"/><path d="M28.507,32.578s-2.895,12.945-2.3,14.052a2.347,2.347,0,0,0,3.832.68c1.447-1.533,6.132-8.686,6.984-12.518S30.722,27.042,28.507,32.578Z" transform="translate(11.54 13.176)" fill="none" stroke="#283841" stroke-miterlimit="10" stroke-width="0.15"/><path d="M30.844,39.828A20.181,20.181,0,0,0,26.5,43.915c-1.788,2.385-5.535,6.814-5.79,6.984s-3.152,1.7-3.152,2.044A50.123,50.123,0,0,0,21.306,59.5c.34.172.51.257.51-.6V57.457c0-.427.512-4.684.512-4.684s9.708-7.409,10.731-8.516a18.222,18.222,0,0,0,2.129-3.322" transform="translate(7.756 17.593)" fill="#283841"/><path d="M30.844,39.828A20.181,20.181,0,0,0,26.5,43.915c-1.788,2.385-5.535,6.814-5.79,6.984s-3.152,1.7-3.152,2.044A50.123,50.123,0,0,0,21.306,59.5c.34.172.51.257.51-.6V57.457c0-.427.512-4.684.512-4.684s9.708-7.409,10.731-8.516a18.222,18.222,0,0,0,2.129-3.322" transform="translate(7.756 17.593)" fill="none" stroke="#283841" stroke-miterlimit="10" stroke-width="0.15"/><path d="M23.3,45.434c-1.309,1.574-2.458,2.9-2.6,2.99-.255.17-3.15,1.7-3.15,2.044a49.959,49.959,0,0,0,3.747,6.557c.34.17.51.255.51-.6V54.982c0-.427.51-4.684.51-4.684s1.244-.949,2.888-2.219a5.82,5.82,0,0,1-1.91-2.646" transform="translate(7.756 20.069)" fill="#fff"/><path d="M23.3,45.434c-1.309,1.574-2.458,2.9-2.6,2.99-.255.17-3.15,1.7-3.15,2.044a49.959,49.959,0,0,0,3.747,6.557c.34.17.51.255.51-.6V54.982c0-.427.51-4.684.51-4.684s1.244-.949,2.888-2.219A5.82,5.82,0,0,1,23.3,45.434Z" transform="translate(7.756 20.069)" fill="none" stroke="#283841" stroke-miterlimit="10" stroke-width="0.15"/><path d="M21.221,49.954l-1.135-2.2c-.926.522-2.527,1.434-2.527,1.688A50.123,50.123,0,0,0,21.306,56c.34.17.51.255.51-.6V53.956c0-.425.512-4.684.512-4.684l.049-.036a2.183,2.183,0,0,0-1.156.718" transform="translate(7.756 21.094)" fill="#fff"/><path d="M21.221,49.954l-1.135-2.2c-.926.522-2.527,1.434-2.527,1.688A50.123,50.123,0,0,0,21.306,56c.34.17.51.255.51-.6V53.956c0-.425.512-4.684.512-4.684l.049-.036A2.183,2.183,0,0,0,21.221,49.954Z" transform="translate(7.756 21.094)" fill="none" stroke="#283841" stroke-miterlimit="10" stroke-width="0.15"/><path d="M35.393,33.207,31.369,44.321,20.734,54.765l-.862,4.5.862,3.162" transform="translate(8.777 14.668)" fill="none" stroke="#d2d5d0" stroke-miterlimit="10" stroke-width="0.15"/><path d="M28.459,41.106a.621.621,0,1,0-.621.621.621.621,0,0,0,.621-.621" transform="translate(12.021 17.883)" fill="#d2d5d0"/><path d="M21.282,48.35a.621.621,0,1,0-.621.621.621.621,0,0,0,.621-.621" transform="translate(8.851 21.083)" fill="#d2d5d0"/><path d="M20.718,51.474a.621.621,0,1,0-.621.621.621.621,0,0,0,.621-.621" transform="translate(8.602 22.463)" fill="#d2d5d0"/><path d="M21.249,53.467a.621.621,0,1,0-.621.621.621.621,0,0,0,.621-.621" transform="translate(8.837 23.343)" fill="#d2d5d0"/><path d="M30.084,28.9s8.686.17,15.5,2.81,6.728,3.237,6.472,4.259-2.555,1.7-10.731,1.959-10.731-.427-13.37-3.833" transform="translate(12.348 12.766)" fill="#283841"/><path d="M30.084,28.9s8.686.17,15.5,2.81,6.728,3.237,6.472,4.259-2.555,1.7-10.731,1.959-10.731-.427-13.37-3.833" transform="translate(102.348 122.766)" fill="none" stroke="#283841" stroke-miterlimit="10" stroke-width="0.15"/><path d="M42.408,34.772l-7.921,12.86s-2.895.851-2.81,1.362,1.7,5.45,2.044,6.3,1.192,2.044,1.618,1.447.085-1.533.34-2.725,1.277-5.451,1.277-5.451S49.137,36.559,49.9,35.539s.767-1.7-.17-2.385" transform="translate(13.991 14.645)" fill="#283841"/><path d="M42.408,34.772l-7.921,12.86s-2.895.851-2.81,1.362,1.7,5.45,2.044,6.3,1.192,2.044,1.618,1.447.085-1.533.34-2.725,1.277-5.451,1.277-5.451S49.137,36.559,49.9,35.539s.767-1.7-.17-2.385" transform="translate(13.991 14.645)" fill="none" stroke="#283841" stroke-miterlimit="10" stroke-width="0.15"/><path d="M37,40.361l-2.517,4.086s-2.895.852-2.81,1.364,1.7,5.45,2.044,6.3,1.192,2.044,1.618,1.447.085-1.533.34-2.725,1.277-5.451,1.277-5.451,1.109-1.093,2.677-2.647A3.376,3.376,0,0,1,37,40.361" transform="translate(13.991 17.828)" fill="#fff"/><path d="M37,40.361l-2.517,4.086s-2.895.852-2.81,1.364,1.7,5.45,2.044,6.3,1.192,2.044,1.618,1.447.085-1.533.34-2.725,1.277-5.451,1.277-5.451,1.109-1.093,2.677-2.647A3.376,3.376,0,0,1,37,40.361Z" transform="translate(13.991 17.828)" fill="none" stroke="#283841" stroke-miterlimit="10" stroke-width="0.15"/><path d="M31.678,44.558c.085.51,1.7,5.451,2.044,6.3s1.192,2.044,1.618,1.447.085-1.533.34-2.725,1.277-5.45,1.277-5.45c-.766-.257-2.043.851-2.043.851L34.487,43.2s-2.895.852-2.81,1.362" transform="translate(13.991 19.08)" fill="#fff"/><path d="M31.678,44.558c.085.51,1.7,5.451,2.044,6.3s1.192,2.044,1.618,1.447.085-1.533.34-2.725,1.277-5.45,1.277-5.45c-.766-.257-2.043.851-2.043.851L34.487,43.2S31.593,44.048,31.678,44.558Z" transform="translate(13.991 19.08)" fill="none" stroke="#283841" stroke-miterlimit="10" stroke-width="0.15"/><path d="M29.309,30.748,48.664,35.06,37.069,49.431l-1.054,4.791.369,3.584" transform="translate(12.946 13.582)" fill="none" stroke="#d2d5d0" stroke-miterlimit="10" stroke-width="0.15"/><path d="M30.054,30.872a.621.621,0,1,0-.621.621.621.621,0,0,0,.621-.621" transform="translate(12.726 13.362)" fill="#d2d5d0"/><path d="M43.346,33.929a.621.621,0,1,0-.621.621.621.621,0,0,0,.621-.621" transform="translate(18.597 14.713)" fill="#d2d5d0"/><path d="M35.637,44.03a.621.621,0,1,0-.621.621.621.621,0,0,0,.621-.621" transform="translate(15.192 19.174)" fill="#d2d5d0"/><path d="M34.773,47.22a.621.621,0,1,0-.621.621.621.621,0,0,0,.621-.621" transform="translate(14.81 20.583)" fill="#d2d5d0"/><path d="M35.1,49.78a.621.621,0,1,0-.621.621.621.621,0,0,0,.621-.621" transform="translate(14.957 21.714)" fill="#d2d5d0"/><path d="M41.876,17.159s-11.627,3.633-12.354,4.216c-.594.474-3.943,6.945-5.157,9.313,0,0-1.965,2.46-1.965,3.186s1.525,1.09,1.525,1.09a1.091,1.091,0,0,0,.944.437c.582-.074,1.527-2.181,1.381-2.545a5.149,5.149,0,0,1,.027-1.528c1.313-1.8,5.5-7.119,5.5-7.119S42.748,22.1,43.547,20.937s.582-3.924-1.671-3.779" transform="translate(9.894 7.577)" fill="#fff"/><path d="M41.876,17.159s-11.627,3.633-12.354,4.216c-.594.474-3.943,6.945-5.157,9.313,0,0-1.965,2.46-1.965,3.186s1.525,1.09,1.525,1.09a1.091,1.091,0,0,0,.944.437c.582-.074,1.527-2.181,1.381-2.545a5.149,5.149,0,0,1,.027-1.528c1.313-1.8,5.5-7.119,5.5-7.119S42.748,22.1,43.547,20.937,44.129,17.013,41.876,17.159Z" transform="translate(9.894 7.577)" fill="none" stroke="#283841" stroke-miterlimit="10" stroke-width="0.15"/><path d="M42.241,18.453,29.784,22.19,25.09,30.334,23.458,34.39" transform="translate(10.362 8.151)" fill="none" stroke="#d2d5d0" stroke-miterlimit="10" stroke-width="0.15"/><path d="M37.3,18.643a.621.621,0,1,0-.621.621.621.621,0,0,0,.621-.621" transform="translate(15.926 7.961)" fill="#d2d5d0"/><path d="M28.56,21.368a.621.621,0,1,0-.621.621.621.621,0,0,0,.621-.621" transform="translate(12.066 9.164)" fill="#d2d5d0"/><path d="M25.4,26.884a.621.621,0,1,0-.621.621.621.621,0,0,0,.621-.621" transform="translate(10.671 11.601)" fill="#d2d5d0"/><path d="M24.257,29.633a.621.621,0,1,0-.621.621.621.621,0,0,0,.621-.621" transform="translate(10.165 12.815)" fill="#d2d5d0"/><rect width="68.307" height="77.288" transform="translate(12.442 2.395)" fill="none" stroke="#283841" stroke-miterlimit="10" stroke-width="0.15"/><rect width="68.307" height="3.342" transform="translate(12.442 2.395)" fill="#283841"/><rect width="68.307" height="3.342" transform="translate(12.442 2.395)" fill="none" stroke="#283841" stroke-linecap="round" stroke-linejoin="round" stroke-width="0.15"/><path d="M11.025,2.888a.709.709,0,1,1-.709-.709.709.709,0,0,1,.709.709" transform="translate(4.243 0.963)" fill="#d2d5d0"/><path d="M11.025,2.888a.709.709,0,1,1-.709-.709A.709.709,0,0,1,11.025,2.888Z" transform="translate(4.243 0.963)" fill="none" stroke="#283841" stroke-linecap="round" stroke-linejoin="round" stroke-width="0.15"/><path d="M12.515,2.888a.709.709,0,1,1-.709-.709.709.709,0,0,1,.709.709" transform="translate(4.901 0.963)" fill="#d2d5d0"/><path d="M12.515,2.888a.709.709,0,1,1-.709-.709A.709.709,0,0,1,12.515,2.888Z" transform="translate(4.901 0.963)" fill="none" stroke="#283841" stroke-linecap="round" stroke-linejoin="round" stroke-width="0.15"/><path d="M14.006,2.888a.709.709,0,1,1-.709-.709.709.709,0,0,1,.709.709" transform="translate(5.56 0.963)" fill="#d2d5d0"/><path d="M14.006,2.888a.709.709,0,1,1-.709-.709A.709.709,0,0,1,14.006,2.888Z" transform="translate(5.56 0.963)" fill="none" stroke="#283841" stroke-linecap="round" stroke-linejoin="round" stroke-width="0.15"/><rect width="20.717" height="28.572" transform="translate(1.397 65.513)" fill="#a99b9d"/><rect width="20.717" height="28.572" transform="translate(1.397 65.513)" fill="none" stroke="#283841" stroke-linecap="round" stroke-linejoin="round" stroke-width="0.15"/><rect width="20.717" height="6.16" transform="translate(1.397 65.513)" fill="#806e73"/><rect width="20.717" height="6.16" transform="translate(1.397 65.513)" fill="none" stroke="#283841" stroke-linecap="round" stroke-linejoin="round" stroke-width="0.15"/><circle cx="0.918" cy="0.918" r="0.918" transform="translate(3.296 68.101)" fill="none" stroke="#fff" stroke-linecap="round" stroke-linejoin="round" stroke-width="0.15"/><line x1="0.918" y2="1.021" transform="translate(2.581 69.734)" fill="none" stroke="#fff" stroke-linecap="round" stroke-linejoin="round" stroke-width="0.15"/><line x2="20.275" transform="translate(1.503 71.622)" fill="none" stroke="#283841" stroke-linecap="round" stroke-linejoin="round" stroke-width="0.15"/><rect width="20.717" height="2.507" transform="translate(1.397 64.885)" fill="#283841"/><rect width="20.717" height="2.507" transform="translate(1.397 64.885)" fill="none" stroke="#283841" stroke-linecap="round" stroke-linejoin="round" stroke-width="0.15"/><path d="M3.349,46.119a.671.671,0,1,1-.672-.672.672.672,0,0,1,.672.672" transform="translate(0.887 20.075)" fill="#806e73"/><path d="M3.349,46.119a.671.671,0,1,1-.672-.672A.672.672,0,0,1,3.349,46.119Z" transform="translate(0.887 20.075)" fill="none" stroke="#283841" stroke-linecap="round" stroke-linejoin="round" stroke-width="0.15"/><path d="M4.9,46.119a.671.671,0,1,1-.672-.672.672.672,0,0,1,.672.672" transform="translate(1.572 20.075)" fill="#806e73"/><path d="M4.9,46.119a.671.671,0,1,1-.672-.672A.672.672,0,0,1,4.9,46.119Z" transform="translate(1.572 20.075)" fill="none" stroke="#283841" stroke-linecap="round" stroke-linejoin="round" stroke-width="0.15"/><path d="M6.453,46.119a.671.671,0,1,1-.672-.672.672.672,0,0,1,.672.672" transform="translate(2.258 20.075)" fill="#806e73"/><path d="M6.453,46.119a.671.671,0,1,1-.672-.672A.672.672,0,0,1,6.453,46.119Z" transform="translate(2.258 20.075)" fill="none" stroke="#283841" stroke-linecap="round" stroke-linejoin="round" stroke-width="0.15"/><line x2="20.275" transform="translate(1.503 75.892)" fill="none" stroke="#283841" stroke-linecap="round" stroke-linejoin="round" stroke-width="0.15"/><path d="M3.979,51.46l-1.93-.783v1.566Z" transform="translate(0.905 22.385)" fill="#fff"/><line x2="20.275" transform="translate(1.503 80.162)" fill="none" stroke="#283841" stroke-linecap="round" stroke-linejoin="round" stroke-width="0.15"/><path d="M3.979,54.422l-1.93-.783v1.566Z" transform="translate(0.905 23.693)" fill="#fff"/><line x2="20.275" transform="translate(1.503 84.433)" fill="none" stroke="#283841" stroke-linecap="round" stroke-linejoin="round" stroke-width="0.15"/><path d="M3.979,57.384,2.049,56.6v1.566Z" transform="translate(0.905 25.002)" fill="#fff"/><line x2="20.275" transform="translate(1.503 88.703)" fill="none" stroke="#283841" stroke-linecap="round" stroke-linejoin="round" stroke-width="0.15"/><path d="M3.979,60.346l-1.93-.783v1.566Z" transform="translate(0.905 26.31)" fill="#fff"/><line x2="20.275" transform="translate(1.503 92.973)" fill="none" stroke="#283841" stroke-linecap="round" stroke-linejoin="round" stroke-width="0.15"/><path d="M3.979,63.308l-1.93-.783v1.566Z" transform="translate(0.905 27.618)" fill="#fff"/><line x2="11.744" transform="translate(7.019 73.757)" fill="none" stroke="#fff" stroke-linecap="round" stroke-linejoin="round" stroke-width="0.15"/><line x2="11.744" transform="translate(7.019 78.066)" fill="none" stroke="#fff" stroke-linecap="round" stroke-linejoin="round" stroke-width="0.15"/><line x2="11.744" transform="translate(7.019 82.375)" fill="none" stroke="#fff" stroke-linecap="round" stroke-linejoin="round" stroke-width="0.15"/><line x2="11.744" transform="translate(7.019 86.746)" fill="none" stroke="#fff" stroke-linecap="round" stroke-linejoin="round" stroke-width="0.15"/><line x2="11.744" transform="translate(7.019 90.993)" fill="none" stroke="#fff" stroke-linecap="round" stroke-linejoin="round" stroke-width="0.15"/><rect width="66.711" height="13.212" transform="translate(31.997 83.74)" fill="#a99b9d"/><rect width="66.711" height="13.212" transform="translate(31.997 83.74)" fill="none" stroke="#283841" stroke-linecap="round" stroke-linejoin="round" stroke-width="0.15"/><line y2="0.595" transform="translate(42.339 83.983)" fill="none" stroke="#fff" stroke-linecap="round" stroke-linejoin="round" stroke-width="0.15"/><line y2="0.595" transform="translate(43.585 83.983)" fill="none" stroke="#fff" stroke-linecap="round" stroke-linejoin="round" stroke-width="0.15"/><line y2="0.595" transform="translate(44.83 83.983)" fill="none" stroke="#fff" stroke-linecap="round" stroke-linejoin="round" stroke-width="0.15"/><line y2="0.595" transform="translate(46.076 83.983)" fill="none" stroke="#fff" stroke-linecap="round" stroke-linejoin="round" stroke-width="0.15"/><line y2="0.595" transform="translate(47.321 83.983)" fill="none" stroke="#fff" stroke-linecap="round" stroke-linejoin="round" stroke-width="0.15"/><line y2="0.595" transform="translate(48.567 83.983)" fill="none" stroke="#fff" stroke-linecap="round" stroke-linejoin="round" stroke-width="0.15"/><line y2="0.595" transform="translate(49.812 83.983)" fill="none" stroke="#fff" stroke-linecap="round" stroke-linejoin="round" stroke-width="0.15"/><line y2="0.595" transform="translate(51.057 83.983)" fill="none" stroke="#fff" stroke-linecap="round" stroke-linejoin="round" stroke-width="0.15"/><line y2="0.595" transform="translate(52.303 83.983)" fill="none" stroke="#fff" stroke-linecap="round" stroke-linejoin="round" stroke-width="0.15"/><line y2="0.595" transform="translate(53.548 83.983)" fill="none" stroke="#fff" stroke-linecap="round" stroke-linejoin="round" stroke-width="0.15"/><line y2="0.595" transform="translate(54.794 83.983)" fill="none" stroke="#fff" stroke-linecap="round" stroke-linejoin="round" stroke-width="0.15"/><line y2="0.595" transform="translate(56.039 83.983)" fill="none" stroke="#fff" stroke-linecap="round" stroke-linejoin="round" stroke-width="0.15"/><line y2="0.595" transform="translate(57.285 83.983)" fill="none" stroke="#fff" stroke-linecap="round" stroke-linejoin="round" stroke-width="0.15"/><line y2="0.595" transform="translate(58.53 83.983)" fill="none" stroke="#fff" stroke-linecap="round" stroke-linejoin="round" stroke-width="0.15"/><line y2="0.595" transform="translate(59.775 83.983)" fill="none" stroke="#fff" stroke-linecap="round" stroke-linejoin="round" stroke-width="0.15"/><line y2="0.595" transform="translate(61.021 83.983)" fill="none" stroke="#fff" stroke-linecap="round" stroke-linejoin="round" stroke-width="0.15"/><line y2="0.595" transform="translate(62.266 83.983)" fill="none" stroke="#fff" stroke-linecap="round" stroke-linejoin="round" stroke-width="0.15"/><line y2="0.595" transform="translate(63.512 83.983)" fill="none" stroke="#fff" stroke-linecap="round" stroke-linejoin="round" stroke-width="0.15"/><line y2="0.595" transform="translate(64.757 83.983)" fill="none" stroke="#fff" stroke-linecap="round" stroke-linejoin="round" stroke-width="0.15"/><line y2="0.595" transform="translate(66.002 83.983)" fill="none" stroke="#fff" stroke-linecap="round" stroke-linejoin="round" stroke-width="0.15"/><line y2="0.595" transform="translate(67.248 83.983)" fill="none" stroke="#fff" stroke-linecap="round" stroke-linejoin="round" stroke-width="0.15"/><line y2="0.595" transform="translate(68.493 83.983)" fill="none" stroke="#fff" stroke-linecap="round" stroke-linejoin="round" stroke-width="0.15"/><line y2="0.595" transform="translate(69.739 83.983)" fill="none" stroke="#fff" stroke-linecap="round" stroke-linejoin="round" stroke-width="0.15"/><line y2="0.595" transform="translate(70.984 83.983)" fill="none" stroke="#fff" stroke-linecap="round" stroke-linejoin="round" stroke-width="0.15"/><line y2="0.595" transform="translate(72.23 83.983)" fill="none" stroke="#fff" stroke-linecap="round" stroke-linejoin="round" stroke-width="0.15"/><line y2="0.595" transform="translate(73.475 83.983)" fill="none" stroke="#fff" stroke-linecap="round" stroke-linejoin="round" stroke-width="0.15"/><line y2="0.595" transform="translate(74.802 83.983)" fill="none" stroke="#fff" stroke-linecap="round" stroke-linejoin="round" stroke-width="0.15"/><line y2="0.595" transform="translate(76.129 83.983)" fill="none" stroke="#fff" stroke-linecap="round" stroke-linejoin="round" stroke-width="0.15"/><line y2="0.595" transform="translate(77.456 83.983)" fill="none" stroke="#fff" stroke-linecap="round" stroke-linejoin="round" stroke-width="0.15"/><line y2="0.595" transform="translate(78.783 83.983)" fill="none" stroke="#fff" stroke-linecap="round" stroke-linejoin="round" stroke-width="0.15"/><line y2="0.595" transform="translate(80.111 83.983)" fill="none" stroke="#fff" stroke-linecap="round" stroke-linejoin="round" stroke-width="0.15"/><line y2="0.595" transform="translate(81.438 83.983)" fill="none" stroke="#fff" stroke-linecap="round" stroke-linejoin="round" stroke-width="0.15"/><line y2="0.595" transform="translate(82.765 83.983)" fill="none" stroke="#fff" stroke-linecap="round" stroke-linejoin="round" stroke-width="0.15"/><line y2="0.595" transform="translate(84.092 83.983)" fill="none" stroke="#fff" stroke-linecap="round" stroke-linejoin="round" stroke-width="0.15"/><line y2="0.595" transform="translate(85.419 83.983)" fill="none" stroke="#fff" stroke-linecap="round" stroke-linejoin="round" stroke-width="0.15"/><line y2="0.595" transform="translate(86.746 83.983)" fill="none" stroke="#fff" stroke-linecap="round" stroke-linejoin="round" stroke-width="0.15"/><line y2="0.595" transform="translate(88.073 83.983)" fill="none" stroke="#fff" stroke-linecap="round" stroke-linejoin="round" stroke-width="0.15"/><line y2="0.595" transform="translate(89.4 83.983)" fill="none" stroke="#fff" stroke-linecap="round" stroke-linejoin="round" stroke-width="0.15"/><line y2="0.595" transform="translate(90.727 83.983)" fill="none" stroke="#fff" stroke-linecap="round" stroke-linejoin="round" stroke-width="0.15"/><line y2="0.595" transform="translate(92.054 83.983)" fill="none" stroke="#fff" stroke-linecap="round" stroke-linejoin="round" stroke-width="0.15"/><line y2="0.595" transform="translate(93.381 83.983)" fill="none" stroke="#fff" stroke-linecap="round" stroke-linejoin="round" stroke-width="0.15"/><line y2="0.595" transform="translate(94.709 83.983)" fill="none" stroke="#fff" stroke-linecap="round" stroke-linejoin="round" stroke-width="0.15"/><line y2="0.595" transform="translate(96.036 83.983)" fill="none" stroke="#fff" stroke-linecap="round" stroke-linejoin="round" stroke-width="0.15"/><line y2="0.595" transform="translate(97.363 83.983)" fill="none" stroke="#fff" stroke-linecap="round" stroke-linejoin="round" stroke-width="0.15"/><line y2="0.595" transform="translate(100.017 83.983)" fill="none" stroke="#fff" stroke-linecap="round" stroke-linejoin="round" stroke-width="0.15"/><line y2="0.595" transform="translate(86.887 83.983)" fill="none" stroke="#fff" stroke-linecap="round" stroke-linejoin="round" stroke-width="0.15"/><line y2="0.595" transform="translate(88.214 83.983)" fill="none" stroke="#fff" stroke-linecap="round" stroke-linejoin="round" stroke-width="0.15"/><line y2="0.595" transform="translate(89.541 83.983)" fill="none" stroke="#fff" stroke-linecap="round" stroke-linejoin="round" stroke-width="0.15"/><line y2="0.595" transform="translate(90.868 83.983)" fill="none" stroke="#fff" stroke-linecap="round" stroke-linejoin="round" stroke-width="0.15"/><line y2="0.595" transform="translate(92.196 83.983)" fill="none" stroke="#fff" stroke-linecap="round" stroke-linejoin="round" stroke-width="0.15"/><line y2="0.595" transform="translate(93.523 83.983)" fill="none" stroke="#fff" stroke-linecap="round" stroke-linejoin="round" stroke-width="0.15"/><line y2="0.595" transform="translate(94.85 83.983)" fill="none" stroke="#fff" stroke-linecap="round" stroke-linejoin="round" stroke-width="0.15"/><line y2="0.595" transform="translate(96.177 83.983)" fill="none" stroke="#fff" stroke-linecap="round" stroke-linejoin="round" stroke-width="0.15"/><line y2="0.595" transform="translate(97.504 83.983)" fill="none" stroke="#fff" stroke-linecap="round" stroke-linejoin="round" stroke-width="0.15"/><rect width="57.661" height="1.205" transform="translate(41.063 85.01)" fill="#d2d5d0"/><rect width="34.855" height="1.205" transform="translate(49.417 87.484)" fill="#283841"/><rect width="2.455" height="1.205" transform="translate(87.512 87.484)" fill="#283841"/><rect width="16.81" height="1.205" transform="translate(41.063 89.99)" fill="#d2d5d0"/><rect width="16.81" height="1.205" transform="translate(77.57 89.99)" fill="#d2d5d0"/><rect width="66.711" height="11.942" transform="translate(31.997 85.01)" fill="none" stroke="#283841" stroke-linecap="round" stroke-linejoin="round" stroke-width="0.15"/><rect width="9.065" height="11.942" transform="translate(31.997 85.01)" fill="none" stroke="#283841" stroke-linecap="round" stroke-linejoin="round" stroke-width="0.15"/><line x2="66.732" transform="translate(31.991 86.215)" fill="none" stroke="#283841" stroke-linecap="round" stroke-linejoin="round" stroke-width="0.15"/><line x2="66.732" transform="translate(31.991 87.484)" fill="none" stroke="#283841" stroke-linecap="round" stroke-linejoin="round" stroke-width="0.15"/><line x2="66.732" transform="translate(31.991 88.753)" fill="none" stroke="#283841" stroke-linecap="round" stroke-linejoin="round" stroke-width="0.15"/><line x2="66.732" transform="translate(31.991 90.022)" fill="none" stroke="#283841" stroke-linecap="round" stroke-linejoin="round" stroke-width="0.15"/><line x2="66.732" transform="translate(31.991 91.29)" fill="none" stroke="#283841" stroke-linecap="round" stroke-linejoin="round" stroke-width="0.15"/><path d="M32.637,59.212l-.327.244L32,59.212v-.952h.634Z" transform="translate(14.136 25.734)" fill="#fff"/><path d="M32.637,59.212l-.327.244L32,59.212v-.952h.634Z" transform="translate(14.136 25.734)" fill="none" stroke="#283841" stroke-linecap="round" stroke-linejoin="round" stroke-width="0.15"/><path d="M47.947,59.212l-.327.244-.307-.244v-.952h.634Z" transform="translate(20.898 25.734)" fill="#fff"/><path d="M47.947,59.212l-.327.244-.307-.244v-.952h.634Z" transform="translate(20.898 25.734)" fill="none" stroke="#283841" stroke-linecap="round" stroke-linejoin="round" stroke-width="0.15"/><path d="M63.258,59.212l-.327.244-.307-.244v-.952h.634Z" transform="translate(27.661 25.734)" fill="#fff"/><path d="M63.258,59.212l-.327.244-.307-.244v-.952h.634Z" transform="translate(27.661 25.734)" fill="none" stroke="#283841" stroke-linecap="round" stroke-linejoin="round" stroke-width="0.15"/><line y2="6.183" transform="translate(46.444 85.191)" fill="none" stroke="#283841" stroke-linecap="round" stroke-linejoin="round" stroke-width="0.15"/><rect width="2.383" height="0.542" transform="translate(38.116 85.309)" fill="#53424c"/><rect width="2.383" height="0.542" transform="translate(38.116 86.554)" fill="#53424c"/><rect width="2.383" height="0.542" transform="translate(38.116 87.8)" fill="#53424c"/><rect width="2.383" height="0.542" transform="translate(38.116 89.046)" fill="#53424c"/><rect width="2.383" height="0.542" transform="translate(38.116 90.291)" fill="#53424c"/><rect width="1.462" height="0.542" transform="translate(36.22 85.309)" fill="#53424c"/><rect width="1.462" height="0.542" transform="translate(36.22 86.554)" fill="#53424c"/><rect width="1.462" height="0.542" transform="translate(36.22 87.8)" fill="#53424c"/><rect width="1.462" height="0.542" transform="translate(36.22 89.046)" fill="#53424c"/><rect width="1.462" height="0.542" transform="translate(36.22 90.291)" fill="#53424c"/><rect width="23.396" height="30.707" transform="translate(72.003 31.449)" fill="#a99b9d"/><rect width="23.396" height="30.707" transform="translate(72.003 31.449)" fill="none" stroke="#283841" stroke-linecap="round" stroke-linejoin="round" stroke-width="0.15"/><rect width="23.396" height="2.507" transform="translate(72.003 30.822)" fill="#283841"/><rect width="23.396" height="2.507" transform="translate(72.003 30.822)" fill="none" stroke="#283841" stroke-linecap="round" stroke-linejoin="round" stroke-width="0.15"/><rect width="9.554" height="8.803" rx="0.521" transform="translate(78.532 35.476)" fill="none" stroke="#283841" stroke-linecap="round" stroke-linejoin="round" stroke-width="0.15"/><path d="M61.128,28.084a1.02,1.02,0,1,1-1.019-1.019,1.019,1.019,0,0,1,1.019,1.019" transform="translate(26.1 11.955)" fill="#d2d5d0"/><path d="M61.128,28.084a1.02,1.02,0,1,1-1.019-1.019A1.019,1.019,0,0,1,61.128,28.084Z" transform="translate(26.1 11.955)" fill="none" stroke="#283841" stroke-linecap="round" stroke-linejoin="round" stroke-width="0.15"/><line x1="13.957" transform="translate(77.106 47.972)" fill="none" stroke="#283841" stroke-linecap="round" stroke-linejoin="round" stroke-width="0.15"/><line x1="13.957" transform="translate(77.106 51.193)" fill="none" stroke="#283841" stroke-linecap="round" stroke-linejoin="round" stroke-width="0.15"/><line x1="13.957" transform="translate(77.106 54.413)" fill="none" stroke="#283841" stroke-linecap="round" stroke-linejoin="round" stroke-width="0.15"/><line x1="13.957" transform="translate(77.106 57.634)" fill="none" stroke="#283841" stroke-linecap="round" stroke-linejoin="round" stroke-width="0.15"/><path d="M61.145,33.586a1.02,1.02,0,1,1-1.019-1.019,1.019,1.019,0,0,1,1.019,1.019" transform="translate(26.107 14.385)" fill="#d2d5d0"/><path d="M61.145,33.586a1.02,1.02,0,1,1-1.019-1.019A1.019,1.019,0,0,1,61.145,33.586Z" transform="translate(26.107 14.385)" fill="none" stroke="#283841" stroke-linecap="round" stroke-linejoin="round" stroke-width="0.15"/><path d="M57.72,37.905A1.02,1.02,0,1,1,56.7,36.886a1.019,1.019,0,0,1,1.019,1.019" transform="translate(24.594 16.293)" fill="#d2d5d0"/><path d="M57.72,37.905A1.02,1.02,0,1,1,56.7,36.886,1.019,1.019,0,0,1,57.72,37.905Z" transform="translate(24.594 16.293)" fill="none" stroke="#283841" stroke-linecap="round" stroke-linejoin="round" stroke-width="0.15"/><path d="M62.486,40.214a1.02,1.02,0,1,1-1.019-1.019,1.019,1.019,0,0,1,1.019,1.019" transform="translate(26.699 17.313)" fill="#d2d5d0"/><path d="M62.486,40.214a1.02,1.02,0,1,1-1.019-1.019A1.019,1.019,0,0,1,62.486,40.214Z" transform="translate(26.699 17.313)" fill="none" stroke="#283841" stroke-linecap="round" stroke-linejoin="round" stroke-width="0.15"/><path d="M61.145,35.746a1.02,1.02,0,1,1-1.019-1.019,1.019,1.019,0,0,1,1.019,1.019" transform="translate(26.107 15.34)" fill="#d2d5d0"/><path d="M61.145,35.746a1.02,1.02,0,1,1-1.019-1.019A1.019,1.019,0,0,1,61.145,35.746Z" transform="translate(26.107 15.34)" fill="none" stroke="#283841" stroke-linecap="round" stroke-linejoin="round" stroke-width="0.15"/><path d="M52.324,22.493a.671.671,0,1,1-.672-.672.672.672,0,0,1,.672.672" transform="translate(22.519 9.639)" fill="#806e73"/><path d="M52.324,22.493a.671.671,0,1,1-.672-.672A.672.672,0,0,1,52.324,22.493Z" transform="translate(22.519 9.639)" fill="none" stroke="#283841" stroke-linecap="round" stroke-linejoin="round" stroke-width="0.15"/><path d="M53.877,22.493a.672.672,0,1,1-.673-.672.672.672,0,0,1,.673.672" transform="translate(23.204 9.639)" fill="#806e73"/><path d="M53.877,22.493a.672.672,0,1,1-.673-.672A.672.672,0,0,1,53.877,22.493Z" transform="translate(23.204 9.639)" fill="none" stroke="#283841" stroke-linecap="round" stroke-linejoin="round" stroke-width="0.15"/><path d="M55.427,22.493a.671.671,0,1,1-.672-.672.672.672,0,0,1,.672.672" transform="translate(23.89 9.639)" fill="#806e73"/><path d="M55.427,22.493a.671.671,0,1,1-.672-.672A.672.672,0,0,1,55.427,22.493Z" transform="translate(23.89 9.639)" fill="none" stroke="#283841" stroke-linecap="round" stroke-linejoin="round" stroke-width="0.15"/></g></g></g></svg>