<svg xmlns="http://www.w3.org/2000/svg" width="110.78" height="108.011" viewBox="0 0 110.78 108.011"><path d="M19.617,0H91.163A19.617,19.617,0,0,1,110.78,19.617V88.393a19.617,19.617,0,0,1-19.617,19.617H19.617A19.617,19.617,0,0,1,0,88.393V19.617A19.617,19.617,0,0,1,19.617,0" fill="#00005b"/><path d="M60.467,96.966H43.3l-3.493,10.871a.875.875,0,0,1-.892.669H30.221q-.744,0-.52-.817L44.564,65.06c.149-.446.3-.882.446-1.452a15.907,15.907,0,0,0,.3-3.01.46.46,0,0,1,.39-.52.47.47,0,0,1,.13,0H57.643q.519,0,.595.372l16.869,47.313q.223.744-.446.743H65a.687.687,0,0,1-.743-.52ZM45.976,87.8H57.717q-.446-1.486-1.04-3.344T55.414,80.48l-1.338-4.236q-.669-2.117-1.226-4.087t-1-3.6h-.074A60.034,60.034,0,0,1,50.212,74.5q-1.042,3.344-2.118,6.837T45.976,87.8" transform="translate(-15.964 -32.345)" fill="#99f"/><path d="M158.168,105.657h-14.64a10.439,10.439,0,0,0,1.412,4.094,7.649,7.649,0,0,0,3.381,2.787,14.124,14.124,0,0,0,5.908,1.158,26.757,26.757,0,0,0,4.793-.526,17.674,17.674,0,0,0,4.121-1.074c.247-.2.372-.074.372.372v7.06a1.1,1.1,0,0,1-.112.557,1.063,1.063,0,0,1-.335.335,18.882,18.882,0,0,1-4.6,1.371,32.677,32.677,0,0,1-6.54.558,21.194,21.194,0,0,1-8.843-1.635,15.765,15.765,0,0,1-5.8-4.385,17.171,17.171,0,0,1-3.2-6.057,23.846,23.846,0,0,1-.966-6.725,23.423,23.423,0,0,1,1.152-7.32,19.119,19.119,0,0,1,3.455-6.317,16.605,16.605,0,0,1,5.574-4.385,17.452,17.452,0,0,1,7.729-1.447A16.766,16.766,0,0,1,158.2,85.49a12.637,12.637,0,0,1,4.868,3.676,16.909,16.909,0,0,1,2.75,5.239,18.676,18.676,0,0,1,.892,5.648q0,1.635-.112,2.973t-.186,1.932a.674.674,0,0,1-.669.595q-.446,0-1.524.111t-2.675.149c-1.066.025-2.193-.156-3.382-.156m-14.64-6.77h9.735q1.784,0,2.638-.037a2.593,2.593,0,0,0,1.078-.357v-.446a5.929,5.929,0,0,0-.3-1.709,6.07,6.07,0,0,0-6.02-4.236,6.456,6.456,0,0,0-6.131,3.493,10.763,10.763,0,0,0-1,3.292" transform="translate(-71.676 -45.266)" fill="#99f"/><rect width="110.78" height="108.01" fill="none"/></svg>