<svg xmlns="http://www.w3.org/2000/svg" width="295" height="295" viewBox="0 0 295 295"><g transform="translate(-496.264 -11411)"><rect width="295" height="295" transform="translate(496.264 11411)" fill="#662d91"/><rect width="73.75" height="73.75" transform="translate(496.264 11632.25)" fill="#662d91"/><rect width="73.75" height="73.75" transform="translate(570.01 11632.25)" fill="#8c62ad"/><rect width="73.75" height="73.75" transform="translate(643.76 11632.25)" fill="#b396c8"/><rect width="73.75" height="73.75" transform="translate(717.264 11632.25)" fill="#d9cbe4"/><path d="M115.625,20.359l3.4-12.422h4.594L117.875,25h-4.5l-5.7-17.062h4.559ZM128.844,25h-3.961V12.32h3.961Zm-4.2-15.949a1.763,1.763,0,0,1,.609-1.383,2.591,2.591,0,0,1,3.164,0,1.763,1.763,0,0,1,.609,1.383,1.763,1.763,0,0,1-.609,1.383,2.591,2.591,0,0,1-3.164,0A1.763,1.763,0,0,1,124.648,9.051Zm6.129,9.492a7.484,7.484,0,0,1,.738-3.381,5.28,5.28,0,0,1,2.121-2.279,6.388,6.388,0,0,1,3.246-.8,5.83,5.83,0,0,1,4.488,1.764,6.768,6.768,0,0,1,1.641,4.8v.141a6.566,6.566,0,0,1-1.646,4.705,5.846,5.846,0,0,1-4.459,1.74,5.912,5.912,0,0,1-4.348-1.623,6.348,6.348,0,0,1-1.77-4.4Zm3.949.246a4.718,4.718,0,0,0,.551,2.578,1.835,1.835,0,0,0,1.629.82q2.109,0,2.156-3.246v-.4q0-3.41-2.18-3.41-1.98,0-2.145,2.941ZM148.918,25h-3.961V7h3.961Zm8.566.234a6.518,6.518,0,0,1-4.723-1.74,6.009,6.009,0,0,1-1.8-4.529v-.328a7.787,7.787,0,0,1,.721-3.434,5.274,5.274,0,0,1,2.1-2.3,6.35,6.35,0,0,1,3.281-.814,5.489,5.489,0,0,1,4.219,1.658,6.516,6.516,0,0,1,1.547,4.623V19.9h-7.852a2.846,2.846,0,0,0,.926,1.676,2.755,2.755,0,0,0,1.852.609,3.549,3.549,0,0,0,2.93-1.312l1.8,2.133a5.045,5.045,0,0,1-2.092,1.623A7.069,7.069,0,0,1,157.484,25.234Zm-.445-10.1q-1.734,0-2.062,2.3h3.984v-.3a1.956,1.956,0,0,0-.48-1.471A1.912,1.912,0,0,0,157.039,15.133Zm11.977-5.965V12.32H171.1v2.742h-2.086v5.8a1.481,1.481,0,0,0,.258,1,1.383,1.383,0,0,0,1.02.281,5.793,5.793,0,0,0,.984-.07v2.824a7.288,7.288,0,0,1-2.227.34,4.137,4.137,0,0,1-3.012-.961,3.939,3.939,0,0,1-.973-2.918V15.063h-1.617V12.32h1.617V9.168ZM179.8,25a4.459,4.459,0,0,1-.375-1.137,3.672,3.672,0,0,1-3.047,1.371,4.5,4.5,0,0,1-3.047-1.084,3.45,3.45,0,0,1-1.254-2.725,3.546,3.546,0,0,1,1.523-3.117,7.761,7.761,0,0,1,4.43-1.055h1.219v-.668q0-1.746-1.512-1.746a1.233,1.233,0,0,0-1.406,1.383h-3.949a3.546,3.546,0,0,1,1.564-2.988,6.569,6.569,0,0,1,3.99-1.148,5.764,5.764,0,0,1,3.832,1.184,4.115,4.115,0,0,1,1.441,3.246v5.613a5.748,5.748,0,0,0,.539,2.672V25Zm-2.473-2.578a2.2,2.2,0,0,0,1.225-.316,1.983,1.983,0,0,0,.7-.715V19.363H178.1q-2.062,0-2.062,1.852a1.131,1.131,0,0,0,.363.873A1.315,1.315,0,0,0,177.324,22.422Z" transform="translate(499.264 11513)" fill="#fff"/></g></svg>