<svg xmlns="http://www.w3.org/2000/svg" xmlns:xlink="http://www.w3.org/1999/xlink" width="505" height="411" viewBox="0 0 505 411"><defs><clipPath id="a"><rect width="350.218" height="333.69" fill="none"/></clipPath><clipPath id="b"><rect width="47.058" height="21.291" fill="none"/></clipPath><clipPath id="c"><rect width="11.856" height="21.291" fill="none"/></clipPath><clipPath id="d"><rect width="10.01" height="21.291" fill="none"/></clipPath><clipPath id="e"><rect width="6.245" height="21.291" fill="none"/></clipPath><clipPath id="f"><rect width="20.021" height="21.291" fill="none"/></clipPath><clipPath id="g"><rect width="35.041" height="21.291" fill="none"/></clipPath><clipPath id="i"><rect width="48.806" height="21.291" fill="none"/></clipPath><clipPath id="j"><rect width="12.89" height="21.291" fill="none"/></clipPath><clipPath id="n"><rect width="36.496" height="21.291" fill="none"/></clipPath><clipPath id="o"><rect width="12.758" height="21.291" fill="none"/></clipPath><clipPath id="p"><rect width="24.019" height="21.291" fill="none"/></clipPath><clipPath id="q"><rect width="69.667" height="21.291" fill="none"/></clipPath><clipPath id="r"><rect width="14.886" height="21.291" fill="none"/></clipPath><clipPath id="s"><rect width="9.847" height="21.291" fill="none"/></clipPath><clipPath id="t"><rect width="30.03" height="21.291" fill="none"/></clipPath><clipPath id="u"><rect width="4.894" height="21.291" fill="none"/></clipPath><clipPath id="v"><rect width="10.009" height="21.291" fill="none"/></clipPath><clipPath id="w"><rect width="65.036" height="21.291" fill="none"/></clipPath><clipPath id="y"><rect width="34.961" height="20.108" fill="none"/></clipPath></defs><g transform="translate(-810.264 -1965)"><path d="M188.57,15.5a4.78,4.78,0,0,1-1.61,3.433,5.653,5.653,0,0,1-3.827,1.252,5.083,5.083,0,0,1-4.087-1.749,7.171,7.171,0,0,1-1.489-4.8V12.81a8.1,8.1,0,0,1,.687-3.433A5.145,5.145,0,0,1,180.206,7.1a6.132,6.132,0,0,1,6.731.459,5.137,5.137,0,0,1,1.651,3.516h-2.783a2.821,2.821,0,0,0-.728-1.9,2.7,2.7,0,0,0-1.906-.589,2.365,2.365,0,0,0-2.083,1,5.589,5.589,0,0,0-.71,3.094V13.7a5.982,5.982,0,0,0,.663,3.2,2.321,2.321,0,0,0,2.092,1.011,2.748,2.748,0,0,0,1.925-.589,2.661,2.661,0,0,0,.728-1.823Zm1.234-.612a5.953,5.953,0,0,1,.575-2.663,4.211,4.211,0,0,1,1.656-1.809,4.831,4.831,0,0,1,2.51-.64,4.571,4.571,0,0,1,3.317,1.243,4.989,4.989,0,0,1,1.433,3.377l.019.687a5.247,5.247,0,0,1-1.29,3.706,5,5,0,0,1-6.926,0,5.339,5.339,0,0,1-1.294-3.785Zm2.681.195a3.742,3.742,0,0,0,.538,2.185,1.935,1.935,0,0,0,3.062.009,4.094,4.094,0,0,0,.547-2.389,3.7,3.7,0,0,0-.547-2.171,1.78,1.78,0,0,0-1.54-.77,1.751,1.751,0,0,0-1.521.765A4.164,4.164,0,0,0,192.485,15.083ZM203.794,20H201.1V5.75h2.69Zm1.791-5.112a5.953,5.953,0,0,1,.575-2.663,4.211,4.211,0,0,1,1.656-1.809,4.831,4.831,0,0,1,2.51-.64,4.571,4.571,0,0,1,3.317,1.243,4.989,4.989,0,0,1,1.433,3.377l.019.687a5.247,5.247,0,0,1-1.29,3.706,5,5,0,0,1-6.926,0,5.339,5.339,0,0,1-1.294-3.785Zm2.681.195a3.742,3.742,0,0,0,.538,2.185,1.935,1.935,0,0,0,3.062.009,4.094,4.094,0,0,0,.547-2.389,3.7,3.7,0,0,0-.547-2.171,1.78,1.78,0,0,0-1.54-.77,1.751,1.751,0,0,0-1.521.765A4.164,4.164,0,0,0,208.266,15.083Zm14.12-2.607a7.284,7.284,0,0,0-.965-.074,1.964,1.964,0,0,0-1.995,1.03V20h-2.681V9.962h2.533l.074,1.2a2.484,2.484,0,0,1,2.236-1.382,2.809,2.809,0,0,1,.835.121Zm5.91,7.709a4.928,4.928,0,0,1-3.595-1.354,4.815,4.815,0,0,1-1.387-3.609v-.26a6.064,6.064,0,0,1,.584-2.7,4.289,4.289,0,0,1,1.656-1.837A4.648,4.648,0,0,1,228,9.776a4.166,4.166,0,0,1,3.242,1.3,5.278,5.278,0,0,1,1.183,3.683v1.095h-6.392a2.491,2.491,0,0,0,.784,1.577,2.37,2.37,0,0,0,1.656.594,2.894,2.894,0,0,0,2.421-1.123l1.317,1.475a4.025,4.025,0,0,1-1.633,1.331A5.357,5.357,0,0,1,228.3,20.186Zm-.306-8.238a1.679,1.679,0,0,0-1.294.538,2.78,2.78,0,0,0-.635,1.54h3.729v-.213a1.982,1.982,0,0,0-.482-1.378A1.733,1.733,0,0,0,227.989,11.947Zm11.393,5.279a.864.864,0,0,0-.487-.775,5.533,5.533,0,0,0-1.563-.506q-3.581-.751-3.581-3.043a2.758,2.758,0,0,1,1.109-2.231,4.472,4.472,0,0,1,2.9-.9,4.813,4.813,0,0,1,3.057.9,2.836,2.836,0,0,1,1.146,2.338H239.28a1.3,1.3,0,0,0-.371-.951,1.57,1.57,0,0,0-1.16-.376,1.6,1.6,0,0,0-1.048.306.966.966,0,0,0-.371.779.826.826,0,0,0,.422.719,4.343,4.343,0,0,0,1.424.473,11.632,11.632,0,0,1,1.688.45,2.774,2.774,0,0,1,2.125,2.7,2.618,2.618,0,0,1-1.178,2.222,5.083,5.083,0,0,1-3.043.849,5.309,5.309,0,0,1-2.24-.45,3.759,3.759,0,0,1-1.535-1.234,2.867,2.867,0,0,1-.557-1.693h2.542a1.4,1.4,0,0,0,.529,1.095,2.1,2.1,0,0,0,1.317.38,1.941,1.941,0,0,0,1.164-.292A.909.909,0,0,0,239.382,17.226Zm18.1-2.152a6.02,6.02,0,0,1-1.053,3.716,3.376,3.376,0,0,1-2.844,1.4,3.127,3.127,0,0,1-2.458-1.058v4.731h-2.681V9.962h2.486l.093.983a3.151,3.151,0,0,1,2.542-1.169,3.4,3.4,0,0,1,2.885,1.373,6.183,6.183,0,0,1,1.03,3.785Zm-2.681-.195a3.951,3.951,0,0,0-.5-2.162,1.617,1.617,0,0,0-1.443-.761,1.756,1.756,0,0,0-1.735.965v4.11a1.786,1.786,0,0,0,1.753.993Q254.8,18.024,254.8,14.879ZM261.972,20h-2.69V9.962h2.69ZM259.124,7.364a1.32,1.32,0,0,1,.4-.993,1.739,1.739,0,0,1,2.194,0,1.313,1.313,0,0,1,.408.993,1.316,1.316,0,0,1-.413,1,1.72,1.72,0,0,1-2.18,0A1.316,1.316,0,0,1,259.124,7.364Zm4.667,7.542a5.883,5.883,0,0,1,1.1-3.72,3.562,3.562,0,0,1,2.964-1.41,3.124,3.124,0,0,1,2.57,1.132l.111-.946h2.431v9.7a4.29,4.29,0,0,1-.6,2.292,3.843,3.843,0,0,1-1.684,1.484,5.919,5.919,0,0,1-2.542.51,5.5,5.5,0,0,1-2.152-.441,3.82,3.82,0,0,1-1.586-1.136l1.188-1.633a3.141,3.141,0,0,0,2.431,1.123,2.3,2.3,0,0,0,1.661-.571,2.14,2.14,0,0,0,.594-1.619v-.538a3.1,3.1,0,0,1-2.44,1.048,3.553,3.553,0,0,1-2.927-1.415,5.881,5.881,0,0,1-1.118-3.753Zm2.681.195a3.653,3.653,0,0,0,.547,2.138,1.742,1.742,0,0,0,1.5.775,1.862,1.862,0,0,0,1.753-.918V12.875a1.858,1.858,0,0,0-1.735-.918,1.753,1.753,0,0,0-1.517.789A4.117,4.117,0,0,0,266.472,15.1Zm11.068-5.14.083,1.123a3.528,3.528,0,0,1,2.885-1.308,2.677,2.677,0,0,1,2.663,1.531,3.447,3.447,0,0,1,3.015-1.531,2.994,2.994,0,0,1,2.431.951,4.371,4.371,0,0,1,.8,2.862V20h-2.69V13.6a1.911,1.911,0,0,0-.334-1.248,1.48,1.48,0,0,0-1.178-.394,1.673,1.673,0,0,0-1.67,1.15L283.551,20H280.87V13.608a1.888,1.888,0,0,0-.343-1.262,1.5,1.5,0,0,0-1.169-.39,1.738,1.738,0,0,0-1.651.946V20h-2.681V9.962Zm18.555,10.224a4.928,4.928,0,0,1-3.595-1.354,4.815,4.815,0,0,1-1.387-3.609v-.26a6.064,6.064,0,0,1,.584-2.7,4.289,4.289,0,0,1,1.656-1.837,4.648,4.648,0,0,1,2.445-.645,4.166,4.166,0,0,1,3.242,1.3,5.278,5.278,0,0,1,1.183,3.683v1.095h-6.392a2.491,2.491,0,0,0,.784,1.577,2.37,2.37,0,0,0,1.656.594,2.894,2.894,0,0,0,2.421-1.123l1.317,1.475a4.025,4.025,0,0,1-1.633,1.331A5.357,5.357,0,0,1,296.094,20.186Zm-.306-8.238a1.679,1.679,0,0,0-1.294.538,2.78,2.78,0,0,0-.635,1.54h3.729v-.213a1.982,1.982,0,0,0-.482-1.378A1.733,1.733,0,0,0,295.788,11.947Zm8.424-1.985.083,1.16a3.5,3.5,0,0,1,2.885-1.345,2.913,2.913,0,0,1,2.375.937,4.372,4.372,0,0,1,.8,2.8V20h-2.681V13.58a1.739,1.739,0,0,0-.371-1.239,1.661,1.661,0,0,0-1.234-.385,1.845,1.845,0,0,0-1.7.965V20h-2.681V9.962ZM315.6,7.494V9.962h1.716v1.967H315.6v5.01a1.2,1.2,0,0,0,.213.8,1.072,1.072,0,0,0,.816.241,4.276,4.276,0,0,0,.789-.065v2.032a5.52,5.52,0,0,1-1.624.241,2.56,2.56,0,0,1-2.876-2.848V11.929h-1.466V9.962h1.466V7.494Zm2.514,7.394a5.953,5.953,0,0,1,.575-2.663,4.211,4.211,0,0,1,1.656-1.809,4.831,4.831,0,0,1,2.51-.64,4.571,4.571,0,0,1,3.317,1.243A4.989,4.989,0,0,1,327.6,14.4l.019.687a5.247,5.247,0,0,1-1.29,3.706,5,5,0,0,1-6.926,0,5.339,5.339,0,0,1-1.294-3.785Zm2.681.195a3.742,3.742,0,0,0,.538,2.185,1.935,1.935,0,0,0,3.062.009,4.1,4.1,0,0,0,.547-2.389,3.7,3.7,0,0,0-.547-2.171,1.78,1.78,0,0,0-1.54-.77,1.751,1.751,0,0,0-1.521.765A4.163,4.163,0,0,0,320.791,15.083Z" transform="translate(810.264 1982)" fill="#12263f"/><rect width="505" height="411" transform="translate(810.264 1965)" fill="none"/><g transform="translate(887 2018)"><g clip-path="url(#a)"><path d="M133.245,124.189A108.733,108.733,0,0,1,175.112,22.426,108.954,108.954,0,1,0,67.694,209.88a109.057,109.057,0,0,1,65.55-85.695" transform="translate(0 0)" fill="#0099df"/><path d="M133.245,124.189A108.733,108.733,0,0,1,175.112,22.426,108.954,108.954,0,1,0,67.694,209.88,109.06,109.06,0,0,1,133.245,124.189Z" transform="translate(0 0)" fill="none" stroke="#000" stroke-miterlimit="10" stroke-width="0.25"/><path d="M350.1,109.083A108.94,108.94,0,0,0,175.122,22.426,108.684,108.684,0,0,1,217.034,123.8a109.048,109.048,0,0,1,66.5,85.695,108.986,108.986,0,0,0,66.567-100.4" transform="translate(-0.011 0)" fill="#e93179"/><path d="M350.1,109.083A108.94,108.94,0,0,0,175.122,22.426,108.684,108.684,0,0,1,217.034,123.8a109.048,109.048,0,0,1,66.5,85.695A108.985,108.985,0,0,0,350.1,109.083Z" transform="translate(-0.011 0)" fill="none" stroke="#000" stroke-miterlimit="10" stroke-width="0.25"/><path d="M132.188,109.085a109.546,109.546,0,0,0,1.068,15.106,109.18,109.18,0,0,1,83.78-.394A108.68,108.68,0,0,0,175.12,22.427a108.762,108.762,0,0,0-42.932,86.658" transform="translate(-0.008 -0.001)" fill="#012072"/><path d="M132.188,109.085a109.546,109.546,0,0,0,1.068,15.106,109.18,109.18,0,0,1,83.78-.394A108.68,108.68,0,0,0,175.12,22.427,108.762,108.762,0,0,0,132.188,109.085Z" transform="translate(-0.008 -0.001)" fill="none" stroke="#000" stroke-miterlimit="10" stroke-width="0.25"/><path d="M175.115,195.751A108.955,108.955,0,0,1,67.694,209.887a108.957,108.957,0,1,0,215.832-.395A109.043,109.043,0,0,1,175.11,195.75" transform="translate(-0.004 -0.012)" fill="#fef011"/><path d="M175.115,195.751A108.955,108.955,0,0,1,67.694,209.887a108.957,108.957,0,1,0,215.832-.395,109.036,109.036,0,0,1-108.411-13.741Z" transform="translate(-0.004 -0.012)" fill="none" stroke="#000" stroke-miterlimit="10" stroke-width="0.25"/><path d="M175.116,195.747A108.842,108.842,0,0,1,133.249,124.2,109.067,109.067,0,0,0,67.7,209.888a108.937,108.937,0,0,0,107.417-14.141" transform="translate(-0.004 -0.008)" fill="#178f48"/><path d="M175.116,195.747A108.842,108.842,0,0,1,133.249,124.2,109.067,109.067,0,0,0,67.7,209.888,108.937,108.937,0,0,0,175.116,195.747Z" transform="translate(-0.004 -0.008)" fill="none" stroke="#000" stroke-miterlimit="10" stroke-width="0.25"/><path d="M217.037,123.8a108.835,108.835,0,0,1-41.915,71.943,109.031,109.031,0,0,0,108.416,13.746,109.05,109.05,0,0,0-66.5-85.695" transform="translate(-0.011 -0.008)" fill="#eb2d16"/><path d="M217.037,123.8a108.835,108.835,0,0,1-41.915,71.943,109.031,109.031,0,0,0,108.416,13.746A109.051,109.051,0,0,0,217.037,123.8Z" transform="translate(-0.011 -0.008)" fill="none" stroke="#000" stroke-miterlimit="10" stroke-width="0.25"/><path d="M133.253,124.2a108.831,108.831,0,0,0,41.867,71.547,108.83,108.83,0,0,0,41.911-71.94,109.16,109.16,0,0,0-83.783.394" transform="translate(-0.008 -0.007)"/><path d="M133.253,124.2a108.831,108.831,0,0,0,41.867,71.547,108.83,108.83,0,0,0,41.911-71.94,109.16,109.16,0,0,0-83.783.394Z" transform="translate(-0.008 -0.007)" fill="none" stroke="#000" stroke-miterlimit="10" stroke-width="0.25"/><g transform="translate(91.854 171.24)" style="isolation:isolate"><g clip-path="url(#b)"><g style="isolation:isolate"><g clip-path="url(#c)"><path d="M4.79,0,.075-12.169H1.818L4.98-3.329q.382,1.063.639,1.992.282-1,.656-1.992l3.287-8.84h1.644L6.441,0Z" transform="translate(0 14.447)" fill="#fff"/></g></g><g transform="translate(11.123)" style="isolation:isolate"><g clip-path="url(#d)"><path d="M7.155-2.839,8.7-2.648a3.767,3.767,0,0,1-1.353,2.1A4.068,4.068,0,0,1,4.823.2,4.032,4.032,0,0,1,1.756-.992,4.654,4.654,0,0,1,.623-4.333,4.871,4.871,0,0,1,1.768-7.786,3.877,3.877,0,0,1,4.74-9.015a3.769,3.769,0,0,1,2.889,1.2A4.782,4.782,0,0,1,8.749-4.424q0,.133-.008.4H2.167A3.388,3.388,0,0,0,2.988-1.8a2.446,2.446,0,0,0,1.843.772,2.286,2.286,0,0,0,1.4-.432A2.865,2.865,0,0,0,7.155-2.839ZM2.25-5.254H7.172a2.986,2.986,0,0,0-.564-1.668,2.29,2.29,0,0,0-1.851-.863A2.374,2.374,0,0,0,3.026-7.1,2.727,2.727,0,0,0,2.25-5.254Z" transform="translate(0 14.447)" fill="#fff"/></g></g><g transform="translate(21.134)" style="isolation:isolate"><g clip-path="url(#e)"><path d="M1.1,0V-8.815H2.449v1.336A3.647,3.647,0,0,1,3.4-8.716a1.659,1.659,0,0,1,.959-.3,2.914,2.914,0,0,1,1.536.481L5.379-7.147a2.138,2.138,0,0,0-1.1-.324,1.423,1.423,0,0,0-.88.295,1.6,1.6,0,0,0-.556.818A5.82,5.82,0,0,0,2.6-4.615V0Z" transform="translate(0 14.447)" fill="#fff"/></g></g><g transform="translate(27.037)" style="isolation:isolate"><g clip-path="url(#f)"><path d="M6.84,0V-1.112A2.742,2.742,0,0,1,4.375.2,3.457,3.457,0,0,1,2.436-.382,3.821,3.821,0,0,1,1.067-2,5.609,5.609,0,0,1,.581-4.4a6.268,6.268,0,0,1,.44-2.395,3.47,3.47,0,0,1,1.32-1.648,3.529,3.529,0,0,1,1.967-.573,2.94,2.94,0,0,1,1.419.336A2.968,2.968,0,0,1,6.74-7.8v-4.366H8.226V0ZM2.117-4.4a3.828,3.828,0,0,0,.714,2.532,2.153,2.153,0,0,0,1.685.838,2.113,2.113,0,0,0,1.664-.8,3.693,3.693,0,0,0,.685-2.445,4.146,4.146,0,0,0-.7-2.656,2.145,2.145,0,0,0-1.718-.847,2.07,2.07,0,0,0-1.664.813A4.015,4.015,0,0,0,2.117-4.4ZM16.61-2.839l1.544.191A3.767,3.767,0,0,1,16.8-.548,4.068,4.068,0,0,1,14.277.2,4.032,4.032,0,0,1,11.21-.992a4.654,4.654,0,0,1-1.133-3.341,4.871,4.871,0,0,1,1.146-3.453,3.877,3.877,0,0,1,2.972-1.229,3.769,3.769,0,0,1,2.889,1.2A4.782,4.782,0,0,1,18.2-4.424q0,.133-.008.4H11.621A3.388,3.388,0,0,0,12.443-1.8a2.446,2.446,0,0,0,1.843.772,2.286,2.286,0,0,0,1.4-.432A2.865,2.865,0,0,0,16.61-2.839ZM11.7-5.254h4.922a2.986,2.986,0,0,0-.564-1.668,2.29,2.29,0,0,0-1.851-.863A2.374,2.374,0,0,0,12.48-7.1,2.727,2.727,0,0,0,11.7-5.254Z" transform="translate(0 14.447)" fill="#fff"/></g></g></g></g><g transform="translate(155.918 76.671)" style="isolation:isolate"><g clip-path="url(#g)"><g style="isolation:isolate"><g clip-path="url(#g)"><path d="M-.025,0,4.648-12.169H6.383L11.364,0H9.529L8.11-3.686H3.021L1.685,0ZM3.486-5H7.612l-1.27-3.37Q5.761-9.9,5.479-10.891a15.513,15.513,0,0,1-.656,2.324Zm8.185,5V-1.212l5.611-6.441q-.955.05-1.685.05H12V-8.815h7.205v.988L14.435-2.233l-.921,1.021q1-.075,1.884-.075h4.076V0ZM26.737,0V-1.295A3.227,3.227,0,0,1,23.939.2a3.565,3.565,0,0,1-1.457-.3,2.4,2.4,0,0,1-1-.751,2.815,2.815,0,0,1-.461-1.108,7.587,7.587,0,0,1-.091-1.395V-8.815H22.42v4.889a8.713,8.713,0,0,0,.091,1.577,1.558,1.558,0,0,0,.6.926,1.852,1.852,0,0,0,1.129.336A2.459,2.459,0,0,0,25.5-1.432a1.915,1.915,0,0,0,.834-.938,4.707,4.707,0,0,0,.245-1.722V-8.815h1.494V0Zm3.644,0V-12.169h1.494V0Z" transform="translate(0.027 14.447)" fill="#fff"/></g></g></g></g><g transform="translate(146.79 131.525)" style="isolation:isolate"><g clip-path="url(#i)"><g style="isolation:isolate"><g clip-path="url(#j)"><path d="M1.295,0V-12.169H2.947L9.338-2.615v-9.554h1.544V0H9.23L2.839-9.562V0Z" transform="translate(-0.001 14.447)" fill="#fff"/></g></g><g transform="translate(12.889)" style="isolation:isolate"><g clip-path="url(#f)"><path d="M7.155-2.839,8.7-2.648a3.767,3.767,0,0,1-1.353,2.1A4.068,4.068,0,0,1,4.823.2,4.032,4.032,0,0,1,1.756-.992,4.654,4.654,0,0,1,.623-4.333,4.871,4.871,0,0,1,1.768-7.786,3.877,3.877,0,0,1,4.74-9.015a3.769,3.769,0,0,1,2.889,1.2A4.782,4.782,0,0,1,8.749-4.424q0,.133-.008.4H2.167A3.388,3.388,0,0,0,2.988-1.8a2.446,2.446,0,0,0,1.843.772,2.286,2.286,0,0,0,1.4-.432A2.865,2.865,0,0,0,7.155-2.839ZM2.25-5.254H7.172a2.986,2.986,0,0,0-.564-1.668,2.29,2.29,0,0,0-1.851-.863A2.374,2.374,0,0,0,3.026-7.1,2.727,2.727,0,0,0,2.25-5.254ZM10.3.73l1.453.216a1.384,1.384,0,0,0,.506.979,2.488,2.488,0,0,0,1.519.415,2.668,2.668,0,0,0,1.6-.415A2.043,2.043,0,0,0,16.145.764a9.543,9.543,0,0,0,.108-1.917A3.073,3.073,0,0,1,13.813,0,3.327,3.327,0,0,1,11-1.312a5.051,5.051,0,0,1-1-3.146,5.855,5.855,0,0,1,.457-2.328,3.653,3.653,0,0,1,1.324-1.648,3.575,3.575,0,0,1,2.038-.581,3.16,3.16,0,0,1,2.573,1.262V-8.815h1.378V-1.2a7.227,7.227,0,0,1-.419,2.918A3.066,3.066,0,0,1,16.025,3.08a4.6,4.6,0,0,1-2.237.5,4.219,4.219,0,0,1-2.548-.71A2.4,2.4,0,0,1,10.3.73Zm1.237-5.3a3.824,3.824,0,0,0,.689,2.532,2.188,2.188,0,0,0,1.727.8A2.208,2.208,0,0,0,15.68-2.03a3.7,3.7,0,0,0,.7-2.486,3.615,3.615,0,0,0-.718-2.44,2.22,2.22,0,0,0-1.731-.822,2.157,2.157,0,0,0-1.693.809A3.594,3.594,0,0,0,11.538-4.565Z" transform="translate(0 14.447)" fill="#fff"/></g></g><g transform="translate(32.91)" style="isolation:isolate"><g clip-path="url(#e)"><path d="M1.1,0V-8.815H2.449v1.336A3.647,3.647,0,0,1,3.4-8.716a1.659,1.659,0,0,1,.959-.3,2.914,2.914,0,0,1,1.536.481L5.379-7.147a2.138,2.138,0,0,0-1.1-.324,1.423,1.423,0,0,0-.88.295,1.6,1.6,0,0,0-.556.818A5.82,5.82,0,0,0,2.6-4.615V0Z" transform="translate(-0.001 14.447)" fill="#fff"/></g></g><g transform="translate(38.796)" style="isolation:isolate"><g clip-path="url(#d)"><path d="M.564-4.408A4.544,4.544,0,0,1,1.926-8.035,4.1,4.1,0,0,1,4.7-9.015,3.955,3.955,0,0,1,7.67-7.823,4.532,4.532,0,0,1,8.824-4.532a5.832,5.832,0,0,1-.51,2.677A3.614,3.614,0,0,1,6.827-.34,4.326,4.326,0,0,1,4.7.2,3.963,3.963,0,0,1,1.706-.988,4.741,4.741,0,0,1,.564-4.408Zm1.536,0a3.755,3.755,0,0,0,.739,2.536A2.368,2.368,0,0,0,4.7-1.029a2.354,2.354,0,0,0,1.851-.847,3.844,3.844,0,0,0,.739-2.582,3.642,3.642,0,0,0-.743-2.478A2.363,2.363,0,0,0,4.7-7.778a2.373,2.373,0,0,0-1.859.838A3.738,3.738,0,0,0,2.1-4.408Z" transform="translate(0 14.447)" fill="#fff"/></g></g></g></g><g transform="translate(208.79 171.24)" style="isolation:isolate"><g clip-path="url(#n)"><g style="isolation:isolate"><g clip-path="url(#o)"><path d="M1.336,0V-12.169h5.4a7.181,7.181,0,0,1,2.474.328,2.7,2.7,0,0,1,1.353,1.158,3.455,3.455,0,0,1,.506,1.834,3.06,3.06,0,0,1-.838,2.183,4.243,4.243,0,0,1-2.59,1.129,4.176,4.176,0,0,1,.971.606A8.367,8.367,0,0,1,9.944-3.312L12.061,0H10.036L8.425-2.532q-.706-1.1-1.162-1.677a3.654,3.654,0,0,0-.818-.813,2.417,2.417,0,0,0-.735-.324,4.838,4.838,0,0,0-.9-.058H2.947V0Zm1.61-6.8H6.408a5.191,5.191,0,0,0,1.727-.228,1.837,1.837,0,0,0,.946-.73A1.976,1.976,0,0,0,9.4-8.849a1.813,1.813,0,0,0-.627-1.419,2.932,2.932,0,0,0-1.98-.556H2.947Z" transform="translate(0 14.447)" fill="#fff"/></g></g><g transform="translate(12.476)" style="isolation:isolate"><g clip-path="url(#p)"><path d="M.564-4.408A4.544,4.544,0,0,1,1.926-8.035,4.1,4.1,0,0,1,4.7-9.015,3.955,3.955,0,0,1,7.67-7.823,4.532,4.532,0,0,1,8.824-4.532a5.832,5.832,0,0,1-.51,2.677A3.614,3.614,0,0,1,6.827-.34,4.326,4.326,0,0,1,4.7.2,3.963,3.963,0,0,1,1.706-.988,4.741,4.741,0,0,1,.564-4.408Zm1.536,0a3.755,3.755,0,0,0,.739,2.536A2.368,2.368,0,0,0,4.7-1.029a2.354,2.354,0,0,0,1.851-.847,3.844,3.844,0,0,0,.739-2.582,3.642,3.642,0,0,0-.743-2.478A2.363,2.363,0,0,0,4.7-7.778a2.373,2.373,0,0,0-1.859.838A3.738,3.738,0,0,0,2.1-4.408Zm8.467-6.026v-1.735h1.494v1.735ZM8.674,3.42l.282-1.27a3,3,0,0,0,.706.116.792.792,0,0,0,.681-.3A3.093,3.093,0,0,0,10.567.448V-8.815h1.494v9.3a4.361,4.361,0,0,1-.423,2.266,1.976,1.976,0,0,1-1.793.83A4.329,4.329,0,0,1,8.674,3.42ZM13.8-4.408a4.544,4.544,0,0,1,1.361-3.627,4.1,4.1,0,0,1,2.772-.979A3.955,3.955,0,0,1,20.9-7.823a4.532,4.532,0,0,1,1.154,3.291,5.832,5.832,0,0,1-.51,2.677A3.614,3.614,0,0,1,20.059-.34,4.326,4.326,0,0,1,17.93.2,3.963,3.963,0,0,1,14.937-.988,4.741,4.741,0,0,1,13.8-4.408Zm1.536,0a3.755,3.755,0,0,0,.739,2.536,2.368,2.368,0,0,0,1.859.843,2.354,2.354,0,0,0,1.851-.847,3.844,3.844,0,0,0,.739-2.582,3.642,3.642,0,0,0-.743-2.478,2.363,2.363,0,0,0-1.847-.843,2.373,2.373,0,0,0-1.859.838A3.738,3.738,0,0,0,15.332-4.408Z" transform="translate(0 14.447)" fill="#fff"/></g></g></g></g><g transform="translate(239.227 76.671)" style="isolation:isolate"><g clip-path="url(#q)"><g style="isolation:isolate"><g clip-path="url(#r)"><path d="M1.262,0V-12.169H3.686l2.88,8.616q.4,1.2.581,1.8.208-.664.647-1.951l2.914-8.467h2.167V0H11.322V-10.185L7.786,0H6.333L2.814-10.359V0Z" transform="translate(0 14.447)" fill="#fff"/></g></g><g transform="translate(14.886)" style="isolation:isolate"><g clip-path="url(#s)"><path d="M6.873-1.087a5.564,5.564,0,0,1-1.6,1A4.617,4.617,0,0,1,3.627.2,3.2,3.2,0,0,1,1.395-.51a2.343,2.343,0,0,1-.78-1.814A2.412,2.412,0,0,1,.909-3.507a2.439,2.439,0,0,1,.772-.859,3.63,3.63,0,0,1,1.075-.49A10.676,10.676,0,0,1,4.084-5.08a13.657,13.657,0,0,0,2.665-.515q.008-.307.008-.39a1.65,1.65,0,0,0-.423-1.287,2.5,2.5,0,0,0-1.7-.506,2.639,2.639,0,0,0-1.556.369A2.257,2.257,0,0,0,2.333-6.1L.872-6.3a3.62,3.62,0,0,1,.656-1.515A2.874,2.874,0,0,1,2.847-8.7a5.887,5.887,0,0,1,2-.311,5.3,5.3,0,0,1,1.834.266,2.417,2.417,0,0,1,1.038.668,2.35,2.35,0,0,1,.465,1.017,8.413,8.413,0,0,1,.075,1.378v1.992a21.145,21.145,0,0,0,.1,2.635A3.325,3.325,0,0,0,8.732,0H7.172A3.168,3.168,0,0,1,6.873-1.087ZM6.749-4.424a10.962,10.962,0,0,1-2.44.564,5.645,5.645,0,0,0-1.3.3,1.3,1.3,0,0,0-.589.486,1.276,1.276,0,0,0-.208.71,1.272,1.272,0,0,0,.452,1,1.946,1.946,0,0,0,1.324.4A3.081,3.081,0,0,0,5.52-1.349a2.326,2.326,0,0,0,.988-1.033,3.609,3.609,0,0,0,.241-1.494Z" transform="translate(-0.001 14.447)" fill="#fff"/></g></g><g transform="translate(24.733)" style="isolation:isolate"><g clip-path="url(#t)"><path d="M.847.73,2.3.946a1.384,1.384,0,0,0,.506.979,2.488,2.488,0,0,0,1.519.415,2.668,2.668,0,0,0,1.6-.415A2.042,2.042,0,0,0,6.69.764,9.543,9.543,0,0,0,6.8-1.154,3.073,3.073,0,0,1,4.358,0,3.327,3.327,0,0,1,1.544-1.312a5.051,5.051,0,0,1-1-3.146A5.855,5.855,0,0,1,1-6.786,3.653,3.653,0,0,1,2.328-8.434a3.575,3.575,0,0,1,2.038-.581A3.16,3.16,0,0,1,6.939-7.753V-8.815H8.317V-1.2A7.227,7.227,0,0,1,7.9,1.722,3.066,3.066,0,0,1,6.57,3.08a4.6,4.6,0,0,1-2.237.5,4.219,4.219,0,0,1-2.548-.71A2.4,2.4,0,0,1,.847.73Zm1.237-5.3a3.824,3.824,0,0,0,.689,2.532,2.188,2.188,0,0,0,1.727.8A2.208,2.208,0,0,0,6.226-2.03a3.7,3.7,0,0,0,.7-2.486A3.615,3.615,0,0,0,6.2-6.956a2.22,2.22,0,0,0-1.731-.822,2.157,2.157,0,0,0-1.693.809A3.594,3.594,0,0,0,2.083-4.565ZM16.61-2.839l1.544.191A3.767,3.767,0,0,1,16.8-.548,4.068,4.068,0,0,1,14.277.2,4.032,4.032,0,0,1,11.21-.992a4.654,4.654,0,0,1-1.133-3.341,4.871,4.871,0,0,1,1.146-3.453,3.877,3.877,0,0,1,2.972-1.229,3.769,3.769,0,0,1,2.889,1.2A4.782,4.782,0,0,1,18.2-4.424q0,.133-.008.4H11.621A3.388,3.388,0,0,0,12.443-1.8a2.446,2.446,0,0,0,1.843.772,2.286,2.286,0,0,0,1.4-.432A2.865,2.865,0,0,0,16.61-2.839ZM11.7-5.254h4.922a2.986,2.986,0,0,0-.564-1.668,2.29,2.29,0,0,0-1.851-.863A2.374,2.374,0,0,0,12.48-7.1,2.727,2.727,0,0,0,11.7-5.254ZM20.03,0V-8.815h1.345v1.253A3.169,3.169,0,0,1,24.18-9.015a3.681,3.681,0,0,1,1.465.286,2.3,2.3,0,0,1,1,.751,2.884,2.884,0,0,1,.465,1.1,8.556,8.556,0,0,1,.083,1.453V0H25.7V-5.362a4.025,4.025,0,0,0-.174-1.365,1.436,1.436,0,0,0-.618-.722,1.967,1.967,0,0,0-1.042-.27,2.421,2.421,0,0,0-1.648.606,2.989,2.989,0,0,0-.693,2.3V0Z" transform="translate(0.001 14.447)" fill="#fff"/></g></g><g transform="translate(54.764)" style="isolation:isolate"><g clip-path="url(#u)"><path d="M4.383-1.336,4.6-.017A5.542,5.542,0,0,1,3.47.116,2.556,2.556,0,0,1,2.208-.141a1.441,1.441,0,0,1-.631-.677,5.35,5.35,0,0,1-.183-1.764V-7.653H.3V-8.815h1.1V-11l1.486-.9v3.08h1.5v1.162H2.88V-2.5a2.6,2.6,0,0,0,.079.822.622.622,0,0,0,.257.291.994.994,0,0,0,.51.108A4.86,4.86,0,0,0,4.383-1.336Z" transform="translate(0.001 14.447)" fill="#fff"/></g></g><g transform="translate(59.657)" style="isolation:isolate"><g clip-path="url(#v)"><path d="M6.873-1.087a5.564,5.564,0,0,1-1.6,1A4.617,4.617,0,0,1,3.627.2,3.2,3.2,0,0,1,1.395-.51a2.343,2.343,0,0,1-.78-1.814A2.412,2.412,0,0,1,.909-3.507a2.439,2.439,0,0,1,.772-.859,3.63,3.63,0,0,1,1.075-.49A10.676,10.676,0,0,1,4.084-5.08a13.657,13.657,0,0,0,2.665-.515q.008-.307.008-.39a1.65,1.65,0,0,0-.423-1.287,2.5,2.5,0,0,0-1.7-.506,2.639,2.639,0,0,0-1.556.369A2.257,2.257,0,0,0,2.333-6.1L.872-6.3a3.62,3.62,0,0,1,.656-1.515A2.874,2.874,0,0,1,2.847-8.7a5.887,5.887,0,0,1,2-.311,5.3,5.3,0,0,1,1.834.266,2.417,2.417,0,0,1,1.038.668,2.35,2.35,0,0,1,.465,1.017,8.413,8.413,0,0,1,.075,1.378v1.992a21.145,21.145,0,0,0,.1,2.635A3.325,3.325,0,0,0,8.732,0H7.172A3.168,3.168,0,0,1,6.873-1.087ZM6.749-4.424a10.962,10.962,0,0,1-2.44.564,5.645,5.645,0,0,0-1.3.3,1.3,1.3,0,0,0-.589.486,1.276,1.276,0,0,0-.208.71,1.272,1.272,0,0,0,.452,1,1.946,1.946,0,0,0,1.324.4A3.081,3.081,0,0,0,5.52-1.349a2.326,2.326,0,0,0,.988-1.033,3.609,3.609,0,0,0,.241-1.494Z" transform="translate(-0.001 14.447)" fill="#fff"/></g></g></g></g><g transform="translate(137.872 246.658)" style="isolation:isolate"><g clip-path="url(#w)"><g style="isolation:isolate"><g clip-path="url(#w)"><path d="M-.025,0,4.648-12.169H6.383L11.364,0H9.529L8.11-3.686H3.021L1.685,0ZM3.486-5H7.612l-1.27-3.37Q5.761-9.9,5.479-10.891a15.513,15.513,0,0,1-.656,2.324Zm8.973,5V-8.815H13.8v1.237A3.142,3.142,0,0,1,14.9-8.62a3.1,3.1,0,0,1,1.569-.394,2.9,2.9,0,0,1,1.606.407,2.177,2.177,0,0,1,.884,1.137,3.165,3.165,0,0,1,2.723-1.544,2.684,2.684,0,0,1,2.017.726A3.1,3.1,0,0,1,24.4-6.051V0H22.918V-5.553a4.089,4.089,0,0,0-.145-1.291,1.25,1.25,0,0,0-.527-.635,1.645,1.645,0,0,0-.9-.241,2.086,2.086,0,0,0-1.544.618,2.724,2.724,0,0,0-.614,1.98V0H17.7V-5.728a2.52,2.52,0,0,0-.365-1.494,1.383,1.383,0,0,0-1.2-.5,2.171,2.171,0,0,0-1.166.332,1.883,1.883,0,0,0-.776.971,5.467,5.467,0,0,0-.241,1.843V0ZM32.373-1.087a5.564,5.564,0,0,1-1.6,1A4.617,4.617,0,0,1,29.127.2a3.2,3.2,0,0,1-2.233-.71,2.343,2.343,0,0,1-.78-1.814,2.412,2.412,0,0,1,.295-1.183,2.439,2.439,0,0,1,.772-.859,3.63,3.63,0,0,1,1.075-.49,10.676,10.676,0,0,1,1.328-.224,13.657,13.657,0,0,0,2.665-.515q.008-.307.008-.39a1.65,1.65,0,0,0-.423-1.287,2.5,2.5,0,0,0-1.7-.506,2.639,2.639,0,0,0-1.556.369A2.257,2.257,0,0,0,27.833-6.1l-1.461-.2a3.62,3.62,0,0,1,.656-1.515,2.874,2.874,0,0,1,1.32-.888,5.887,5.887,0,0,1,2-.311,5.3,5.3,0,0,1,1.834.266,2.417,2.417,0,0,1,1.038.668,2.35,2.35,0,0,1,.465,1.017,8.413,8.413,0,0,1,.075,1.378v1.992a21.145,21.145,0,0,0,.1,2.635A3.325,3.325,0,0,0,34.232,0H32.672A3.168,3.168,0,0,1,32.373-1.087Zm-.125-3.337a10.962,10.962,0,0,1-2.44.564,5.645,5.645,0,0,0-1.3.3,1.3,1.3,0,0,0-.589.486,1.276,1.276,0,0,0-.208.71,1.272,1.272,0,0,0,.452,1,1.946,1.946,0,0,0,1.324.4,3.081,3.081,0,0,0,1.536-.378,2.326,2.326,0,0,0,.988-1.033,3.609,3.609,0,0,0,.241-1.494ZM36.059,0V-8.815H37.4v1.336a3.647,3.647,0,0,1,.95-1.237,1.659,1.659,0,0,1,.959-.3,2.914,2.914,0,0,1,1.536.481l-.515,1.386a2.138,2.138,0,0,0-1.1-.324,1.423,1.423,0,0,0-.88.295,1.6,1.6,0,0,0-.556.818,5.82,5.82,0,0,0-.249,1.743V0Zm5.686-10.451v-1.718h1.494v1.718ZM41.745,0V-8.815h1.494V0ZM45.48,0V-12.169h1.494V0Zm3.777,0V-12.169h1.494V0Zm3.254-4.408a4.544,4.544,0,0,1,1.361-3.627,4.1,4.1,0,0,1,2.772-.979,3.955,3.955,0,0,1,2.972,1.191A4.532,4.532,0,0,1,60.77-4.532a5.832,5.832,0,0,1-.51,2.677A3.614,3.614,0,0,1,58.774-.34,4.326,4.326,0,0,1,56.645.2,3.963,3.963,0,0,1,53.652-.988,4.741,4.741,0,0,1,52.511-4.408Zm1.536,0a3.755,3.755,0,0,0,.739,2.536,2.368,2.368,0,0,0,1.859.843A2.354,2.354,0,0,0,58.5-1.876a3.844,3.844,0,0,0,.739-2.582,3.642,3.642,0,0,0-.743-2.478,2.363,2.363,0,0,0-1.847-.843,2.373,2.373,0,0,0-1.859.838A3.738,3.738,0,0,0,54.046-4.408Z" transform="translate(0.027 14.447)"/></g></g></g></g><g transform="translate(45.318 76.529)" style="isolation:isolate"><g clip-path="url(#y)"><g style="isolation:isolate"><g clip-path="url(#y)"><path d="M9.406-4.016l1.516.383A5.1,5.1,0,0,1,9.207-.785,4.725,4.725,0,0,1,6.18.2,5.44,5.44,0,0,1,3.168-.559,4.707,4.707,0,0,1,1.4-2.742,7.791,7.791,0,0,1,.8-5.812,6.749,6.749,0,0,1,1.48-8.934a4.684,4.684,0,0,1,1.945-2.023A5.684,5.684,0,0,1,6.2-11.648a4.7,4.7,0,0,1,2.891.875,4.544,4.544,0,0,1,1.633,2.461l-1.492.352a3.54,3.54,0,0,0-1.156-1.82,3.081,3.081,0,0,0-1.906-.57,3.7,3.7,0,0,0-2.207.633,3.342,3.342,0,0,0-1.246,1.7,6.841,6.841,0,0,0-.359,2.2A6.989,6.989,0,0,0,2.785-3.27,3.172,3.172,0,0,0,4.109-1.641,3.714,3.714,0,0,0,6.055-1.1a3.26,3.26,0,0,0,2.156-.734A3.758,3.758,0,0,0,9.406-4.016Zm3.211-5.82v-1.617h1.406v1.617Zm0,9.836V-8.3h1.406V0Zm8.961-1.023a5.236,5.236,0,0,1-1.5.938,4.346,4.346,0,0,1-1.551.273,3.016,3.016,0,0,1-2.1-.668,2.2,2.2,0,0,1-.734-1.707A2.27,2.27,0,0,1,15.965-3.3a2.3,2.3,0,0,1,.727-.809A3.416,3.416,0,0,1,17.7-4.57a10.049,10.049,0,0,1,1.25-.211,12.853,12.853,0,0,0,2.508-.484q.008-.289.008-.367a1.553,1.553,0,0,0-.4-1.211,2.353,2.353,0,0,0-1.6-.477A2.483,2.483,0,0,0,18-6.973a2.124,2.124,0,0,0-.7,1.23L15.93-5.93a3.407,3.407,0,0,1,.617-1.426,2.705,2.705,0,0,1,1.242-.836,5.541,5.541,0,0,1,1.883-.293,4.983,4.983,0,0,1,1.727.25,2.275,2.275,0,0,1,.977.629,2.212,2.212,0,0,1,.438.957,7.918,7.918,0,0,1,.07,1.3v1.875A19.9,19.9,0,0,0,22.973-1a3.129,3.129,0,0,0,.355,1H21.859A2.982,2.982,0,0,1,21.578-1.023Zm-.117-3.141a10.317,10.317,0,0,1-2.3.531,5.313,5.313,0,0,0-1.227.281,1.223,1.223,0,0,0-.555.457,1.2,1.2,0,0,0-.2.668,1.2,1.2,0,0,0,.426.938,1.832,1.832,0,0,0,1.246.375A2.9,2.9,0,0,0,20.3-1.27a2.189,2.189,0,0,0,.93-.973,3.4,3.4,0,0,0,.227-1.406ZM25.063,0V-8.3h1.266v1.18a2.982,2.982,0,0,1,2.641-1.367,3.464,3.464,0,0,1,1.379.27,2.169,2.169,0,0,1,.941.707,2.714,2.714,0,0,1,.438,1.039A8.052,8.052,0,0,1,31.8-5.1V0H30.4V-5.047a3.788,3.788,0,0,0-.164-1.285,1.352,1.352,0,0,0-.582-.68,1.851,1.851,0,0,0-.98-.254,2.278,2.278,0,0,0-1.551.57,2.813,2.813,0,0,0-.652,2.164V0Z" transform="translate(0 13.589)" fill="#fff"/></g></g></g></g></g></g></g></svg>