<svg xmlns="http://www.w3.org/2000/svg" width="295" height="295" viewBox="0 0 295 295"><g transform="translate(-181.264 -11081)"><rect width="295" height="295" transform="translate(181.264 11081)" fill="red"/><rect width="73.75" height="73.75" transform="translate(181.264 11302.25)" fill="red"/><rect width="73.75" height="73.75" transform="translate(255.01 11302.25)" fill="#ff4040"/><rect width="73.75" height="73.75" transform="translate(328.76 11302.25)" fill="#ff7f7f"/><rect width="73.75" height="73.75" transform="translate(402.264 11302.25)" fill="#ffbfbf"/><path d="M129.084,18.977h-2.227V25h-4.113V7.938h6.715a7.489,7.489,0,0,1,4.746,1.348,4.568,4.568,0,0,1,1.711,3.809,5.55,5.55,0,0,1-.721,2.953,5.117,5.117,0,0,1-2.256,1.9l3.563,6.879V25H132.1ZM126.857,15.8h2.6a2.339,2.339,0,0,0,1.764-.615,2.375,2.375,0,0,0,.592-1.717,2.4,2.4,0,0,0-.6-1.729,2.317,2.317,0,0,0-1.758-.627h-2.6Zm10.863,2.742a7.484,7.484,0,0,1,.738-3.381,5.28,5.28,0,0,1,2.121-2.279,6.388,6.388,0,0,1,3.246-.8,5.83,5.83,0,0,1,4.488,1.764,6.768,6.768,0,0,1,1.641,4.8v.141a6.566,6.566,0,0,1-1.646,4.705,5.846,5.846,0,0,1-4.459,1.74,5.912,5.912,0,0,1-4.348-1.623,6.348,6.348,0,0,1-1.77-4.4Zm3.949.246a4.718,4.718,0,0,0,.551,2.578,1.835,1.835,0,0,0,1.629.82q2.109,0,2.156-3.246v-.4q0-3.41-2.18-3.41-1.98,0-2.145,2.941Zm14.273-6.469V25.434a4.6,4.6,0,0,1-1.289,3.469,4.952,4.952,0,0,1-3.562,1.219,8.411,8.411,0,0,1-1.863-.2V26.934a7.556,7.556,0,0,0,1.113.105,1.445,1.445,0,0,0,1.641-1.629V12.32Zm-4.254-3.27a1.763,1.763,0,0,1,.609-1.383,2.591,2.591,0,0,1,3.164,0,1.763,1.763,0,0,1,.609,1.383,1.763,1.763,0,0,1-.609,1.383,2.591,2.591,0,0,1-3.164,0A1.763,1.763,0,0,1,151.689,9.051Zm5.988,9.492a7.484,7.484,0,0,1,.738-3.381,5.28,5.28,0,0,1,2.121-2.279,6.388,6.388,0,0,1,3.246-.8,5.83,5.83,0,0,1,4.488,1.764,6.768,6.768,0,0,1,1.641,4.8v.141a6.566,6.566,0,0,1-1.646,4.705,5.846,5.846,0,0,1-4.459,1.74,5.912,5.912,0,0,1-4.348-1.623,6.348,6.348,0,0,1-1.77-4.4Zm3.949.246a4.718,4.718,0,0,0,.551,2.578,1.835,1.835,0,0,0,1.629.82q2.109,0,2.156-3.246v-.4q0-3.41-2.18-3.41-1.98,0-2.145,2.941Z" transform="translate(184.264 11183)" fill="#fff"/></g></svg>