<svg xmlns="http://www.w3.org/2000/svg" width="295" height="295" viewBox="0 0 295 295"><g transform="translate(-1127.264 -11411)"><rect width="295" height="295" transform="translate(1127.264 11411)" fill="#754c24"/><rect width="73.75" height="73.75" transform="translate(1127.264 11632.25)" fill="#754c24"/><rect width="73.75" height="73.75" transform="translate(1201.01 11632.25)" fill="#98795b"/><rect width="73.75" height="73.75" transform="translate(1274.76 11632.25)" fill="#baa692"/><rect width="73.75" height="73.75" transform="translate(1348.264 11632.25)" fill="#ddd3c9"/><path d="M113.205,7.938l3.809,11.871,3.8-11.871h5.414V25H122.1V21.016l.4-8.156L118.373,25h-2.719l-4.137-12.152.4,8.168V25H107.8V7.938ZM135.8,25a4.459,4.459,0,0,1-.375-1.137,3.672,3.672,0,0,1-3.047,1.371,4.5,4.5,0,0,1-3.047-1.084,3.45,3.45,0,0,1-1.254-2.725,3.546,3.546,0,0,1,1.523-3.117,7.761,7.761,0,0,1,4.43-1.055h1.219v-.668q0-1.746-1.512-1.746a1.233,1.233,0,0,0-1.406,1.383h-3.949a3.546,3.546,0,0,1,1.564-2.988,6.569,6.569,0,0,1,3.99-1.148,5.764,5.764,0,0,1,3.832,1.184,4.115,4.115,0,0,1,1.441,3.246v5.613a5.748,5.748,0,0,0,.539,2.672V25Zm-2.473-2.578a2.2,2.2,0,0,0,1.225-.316,1.983,1.983,0,0,0,.7-.715V19.363H134.1q-2.062,0-2.062,1.852a1.131,1.131,0,0,0,.363.873A1.315,1.315,0,0,0,133.326,22.422Zm15.738-6.527-1.3-.094a2.336,2.336,0,0,0-2.391,1.172V25h-3.949V12.32h3.7l.129,1.629a3.058,3.058,0,0,1,2.777-1.863,3.851,3.851,0,0,1,1.1.141Zm9.094,0-1.3-.094a2.336,2.336,0,0,0-2.391,1.172V25h-3.949V12.32h3.7l.129,1.629a3.058,3.058,0,0,1,2.777-1.863,3.851,3.851,0,0,1,1.1.141Zm.926,2.648a7.484,7.484,0,0,1,.738-3.381,5.28,5.28,0,0,1,2.121-2.279,6.388,6.388,0,0,1,3.246-.8,5.83,5.83,0,0,1,4.488,1.764,6.768,6.768,0,0,1,1.641,4.8v.141a6.566,6.566,0,0,1-1.646,4.705,5.846,5.846,0,0,1-4.459,1.74,5.912,5.912,0,0,1-4.348-1.623,6.348,6.348,0,0,1-1.77-4.4Zm3.949.246a4.718,4.718,0,0,0,.551,2.578,1.835,1.835,0,0,0,1.629.82q2.109,0,2.156-3.246v-.4q0-3.41-2.18-3.41-1.98,0-2.145,2.941ZM165.729,7H169.9l-3.258,3.68H163.42Zm10.957,5.32.129,1.488a4.3,4.3,0,0,1,3.621-1.723,3.618,3.618,0,0,1,2.959,1.184,5.635,5.635,0,0,1,1.014,3.563V25h-3.961V17a2.14,2.14,0,0,0-.387-1.412,1.789,1.789,0,0,0-1.406-.451,1.883,1.883,0,0,0-1.723.914V25h-3.949V12.32Z" transform="translate(1130.264 11513)" fill="#fff"/></g></svg>