<svg xmlns="http://www.w3.org/2000/svg" width="295" height="295" viewBox="0 0 295 295"><g transform="translate(-496.264 -11741)"><rect width="295" height="295" transform="translate(496.264 11741)" fill="#999"/><rect width="73.75" height="73.75" transform="translate(496.264 11962.25)" fill="#999"/><rect width="73.75" height="73.75" transform="translate(570.01 11962.25)" fill="#b3b3b3"/><rect width="73.75" height="73.75" transform="translate(643.76 11962.25)" fill="#ccc"/><rect width="73.75" height="73.75" transform="translate(717.264 11962.25)" fill="#e6e6e6"/><path d="M139.086,22.891a6.614,6.614,0,0,1-2.777,1.7,11.979,11.979,0,0,1-4.008.645,7.146,7.146,0,0,1-5.355-2.051,8.3,8.3,0,0,1-2.145-5.707L124.789,16a10.182,10.182,0,0,1,.891-4.4,6.614,6.614,0,0,1,2.549-2.895,7.21,7.21,0,0,1,3.838-1.014,7.559,7.559,0,0,1,4.951,1.459,6.182,6.182,0,0,1,2.057,4.354h-3.961a3.235,3.235,0,0,0-.914-2.039,2.949,2.949,0,0,0-1.992-.609,2.684,2.684,0,0,0-2.391,1.313,7.008,7.008,0,0,0-.855,3.75v1.031a6.86,6.86,0,0,0,.873,3.838,3.088,3.088,0,0,0,2.748,1.283,3.456,3.456,0,0,0,2.391-.715V18.707h-2.859V15.883h6.973Zm9.879-7-1.3-.094a2.336,2.336,0,0,0-2.391,1.172V25h-3.949V12.32h3.7l.129,1.629a3.058,3.058,0,0,1,2.777-1.863,3.851,3.851,0,0,1,1.1.141ZM154.555,25h-3.961V12.32h3.961Zm-4.2-15.949a1.763,1.763,0,0,1,.609-1.383,2.591,2.591,0,0,1,3.164,0,1.763,1.763,0,0,1,.609,1.383,1.763,1.763,0,0,1-.609,1.383,2.591,2.591,0,0,1-3.164,0A1.763,1.763,0,0,1,150.359,9.051Zm13.266,12.387a.912.912,0,0,0-.527-.809,8.021,8.021,0,0,0-2-.633,9.138,9.138,0,0,1-2.437-.861,4.083,4.083,0,0,1-1.465-1.295,3.092,3.092,0,0,1-.5-1.746,3.5,3.5,0,0,1,1.441-2.877,5.938,5.938,0,0,1,3.773-1.131,6.579,6.579,0,0,1,4.031,1.137,3.555,3.555,0,0,1,1.523,2.988H163.5q0-1.523-1.605-1.523a1.591,1.591,0,0,0-1.043.346,1.07,1.07,0,0,0-.422.861.982.982,0,0,0,.516.855,4.872,4.872,0,0,0,1.646.539,14.228,14.228,0,0,1,1.986.5q2.859.984,2.859,3.527a3.321,3.321,0,0,1-1.541,2.824,6.758,6.758,0,0,1-3.99,1.09A6.9,6.9,0,0,1,159,24.648,4.86,4.86,0,0,1,157,23.055a3.609,3.609,0,0,1-.715-2.121h3.691a1.526,1.526,0,0,0,.586,1.283,2.41,2.41,0,0,0,1.441.4,1.9,1.9,0,0,0,1.213-.328A1.05,1.05,0,0,0,163.625,21.438Z" transform="translate(499.264 11843)" fill="#fff"/></g></svg>