<svg xmlns="http://www.w3.org/2000/svg" xmlns:xlink="http://www.w3.org/1999/xlink" width="673.157" height="694.247" viewBox="0 0 673.157 694.247"><defs><clipPath id="a"><rect width="673.157" height="694.247" fill="none"/></clipPath><clipPath id="c"><rect width="442.969" height="442.969" fill="none"/></clipPath><clipPath id="d"><rect width="367.28" height="367.28" fill="none"/></clipPath><clipPath id="e"><rect width="216.7" height="216.7" fill="none"/></clipPath><clipPath id="f"><rect width="141.418" height="141.418" fill="none"/></clipPath></defs><g clip-path="url(#a)"><g clip-path="url(#a)"><path d="M602.21,235.074A221.183,221.183,0,0,0,503.1,177.85L445.752,391.841,602.414,235.187Z" transform="translate(-109.373 -43.639)" fill="#fac712"/><path d="M484.456,175.413a223.139,223.139,0,0,0-114.7,0l1.622,6.037c.581,2.188,1.185,4.43,1.8,6.724l.973,3.622c.566,2.121,1.147,4.3,1.758,6.558l.309,1.177c.46,1.713.936,3.494,1.426,5.282l3.351,12.5.2.755,2.6,9.667.694,2.6,42.607,159.024,35.905-133.842Z" transform="translate(-90.725 -41.201)" fill="#feef00"/><path d="M659.761,353.147h0a221.318,221.318,0,0,0-57.216-99.113l-.121-.2-.038.045-42.644,42.637-113.95,113.95Z" transform="translate(-109.383 -62.282)" fill="#f69f23"/><path d="M484.464,675.411h0L463,595.33,427.119,461.42,369.782,675.411a223.106,223.106,0,0,0,114.7,0Z" transform="translate(-90.732 -113.217)" fill="#7421b0"/><path d="M394.829,461.42,238.182,618.059l.181.106a221.311,221.311,0,0,0,99.129,57.246l21.454-80.074Z" transform="translate(-58.442 -113.217)" fill="#3a48ba"/><path d="M602.212,618.195l.2-.121-.038-.045-58.6-58.6-98.012-98,57.352,213.991a221.317,221.317,0,0,0,99.1-57.216" transform="translate(-109.375 -113.217)" fill="#d2298e"/><path d="M376.183,461.42,162.192,518.772a221.293,221.293,0,0,0,57.216,99.106l.106.2h.045l58.6-58.6Z" transform="translate(-39.797 -113.217)" fill="#006fc4"/><path d="M659.746,518.772h0l-80.074-21.454-133.91-35.9L602.416,618.059l.113-.2a221.1,221.1,0,0,0,57.216-99.083" transform="translate(-109.375 -113.217)" fill="#ff2600"/><path d="M667.247,442.772a221.59,221.59,0,0,0-7.494-57.352l-80.082,21.469-133.91,35.883,213.991,57.352a221.655,221.655,0,0,0,7.494-57.352" transform="translate(-109.375 -94.569)" fill="#fb6312"/><path d="M373.745,442.772,159.754,385.42a223.107,223.107,0,0,0,0,114.7l80.074-21.454Z" transform="translate(-37.359 -94.569)" fill="#00c2af"/><path d="M394.826,391.841,358.943,257.947c-.272-1.034-.536-2-.807-3.019l-2.113-7.886c-.958-3.592-1.887-7.056-2.762-10.323L350.68,227.1l-.807-3.019-2.4-8.867c-.068-.241-.128-.468-.189-.7l-9.81-36.66a221.14,221.14,0,0,0-99.106,57.231l-.2.106Z" transform="translate(-58.44 -43.639)" fill="#7fd200"/><path d="M376.183,410.484,219.537,253.83l-.106.189a221.222,221.222,0,0,0-57.239,99.129L242.266,374.6Z" transform="translate(-39.797 -62.282)" fill="#00b500"/><g transform="translate(114.902 126.718)" opacity="0.3" style="isolation:isolate"><g clip-path="url(#c)"><path d="M373.747,167.92c-122.326,0-221.485,99.159-221.485,221.485s99.159,221.485,221.485,221.485S595.232,511.731,595.232,389.4,496.073,167.92,373.747,167.92m0,405.125A183.638,183.638,0,0,1,190.107,389.4c0-101.423,82.255-183.64,183.64-183.64s183.64,82.195,183.64,183.64A183.624,183.624,0,0,1,373.747,573.045Z" transform="translate(-152.262 -167.92)"/></g></g><g transform="translate(152.747 164.563)" opacity="0.15" style="isolation:isolate"><g clip-path="url(#d)"><path d="M386.052,218.07c-101.423,0-183.64,82.255-183.64,183.64s82.255,183.64,183.64,183.64,183.64-82.217,183.64-183.64a183.638,183.638,0,0,0-183.64-183.64m0,329.639a145.984,145.984,0,1,1,146-145.969,146,146,0,0,1-146,145.969" transform="translate(-202.412 -218.07)"/></g></g><g transform="translate(228.036 239.852)" opacity="0.5" style="isolation:isolate"><g clip-path="url(#e)"><path d="M410.532,317.84a108.35,108.35,0,1,0,108.35,108.35,108.35,108.35,0,0,0-108.35-108.35m0,179.059a70.709,70.709,0,1,1,70.709-70.709A70.709,70.709,0,0,1,410.532,496.9" transform="translate(-302.182 -317.84)" fill="#fff"/></g></g><g transform="translate(265.678 277.494)" opacity="0.75" style="isolation:isolate"><g clip-path="url(#f)"><path d="M422.771,367.72a70.709,70.709,0,1,0,70.709,70.709,70.709,70.709,0,0,0-70.709-70.709m0,103.77a33.053,33.053,0,1,1,.015,0Z" transform="translate(-352.062 -367.72)" fill="#fff"/></g></g><path d="M435.012,417.61a33.06,33.06,0,1,1-33.06,33.06,33.06,33.06,0,0,1,33.06-33.06" transform="translate(-98.626 -102.468)" fill="#fff"/><path d="M407.559,142.339l-1.313-2.581-4.988.634-.634,2.822-1.132.151,2.6-11.267,1.26-.158,5.335,10.255Zm-6.037-2.966,4.279-.543-2.9-5.682Z" transform="translate(-98.022 -32.374)"/><path d="M425.568,140.6l-1.034.076-1.419-9.131-3.019,9.471-.6.045-4.362-8.837-.038,9.176-1.041.075V130.607l1.336-.106,4.3,8.671,2.913-9.214,1.351-.1Z" transform="translate(-101.595 -31.863)"/><path d="M439.839,140.236l-1.049-2.694-5.026.128-.913,2.762h-1.139l3.72-10.942H436.7l4.294,10.716Zm-5.743-3.577,4.309-.113-2.309-5.924Z" transform="translate(-105.928 -31.773)"/><path d="M452.9,140.3l-2.694-4.981h-2.068l-.083,4.935h-1.079l.174-10.837,3.486.053a3.139,3.139,0,0,1,2.347.883,3.02,3.02,0,0,1,.755,2.173,2.852,2.852,0,0,1-.672,1.9,2.747,2.747,0,0,1-1.819.913l2.86,5.033Zm-4.686-9.946-.06,4.022,2.264.038a2.392,2.392,0,0,0,1.713-.513,1.91,1.91,0,0,0,.589-1.449,1.931,1.931,0,0,0-.551-1.509,2.317,2.317,0,0,0-1.683-.581Z" transform="translate(-109.672 -31.755)"/><path d="M459.762,140.469l.483-10.829,1.079.045-.483,10.829Z" transform="translate(-112.811 -31.809)"/><path d="M467.019,139.9l3.879.272-.068.989-4.958-.34.755-10.814,1.079.076Z" transform="translate(-114.31 -31.9)"/><path d="M476.542,140.678l3.871.377-.1,1-4.943-.49,1.072-10.791,1.072.106Z" transform="translate(-116.641 -32.087)"/><path d="M488.8,143.383a5.538,5.538,0,0,1-2.6-1.019,4.841,4.841,0,0,1-1.638-2.188,6.566,6.566,0,0,1,.823-5.894,4.827,4.827,0,0,1,2.173-1.653,5.505,5.505,0,0,1,2.777-.272,5.571,5.571,0,0,1,2.015.664,5.139,5.139,0,0,1,1.509,1.313,5.037,5.037,0,0,1,.89,1.9,6.339,6.339,0,0,1,.083,2.37,6.257,6.257,0,0,1-.755,2.264,4.79,4.79,0,0,1-1.373,1.585,5.012,5.012,0,0,1-1.826.845,5.529,5.529,0,0,1-2.083.083m-1.464-1.562a4.531,4.531,0,0,0,1.607.536,4.368,4.368,0,0,0,1.69-.075,3.966,3.966,0,0,0,1.456-.672,3.862,3.862,0,0,0,1.094-1.29,5.755,5.755,0,0,0,.536-3.811A3.88,3.88,0,0,0,493.01,135a4.056,4.056,0,0,0-1.215-1.041,4.649,4.649,0,0,0-3.3-.46,4.038,4.038,0,0,0-1.464.664,3.837,3.837,0,0,0-1.1,1.283,5.207,5.207,0,0,0-.6,1.856,5.4,5.4,0,0,0,.06,1.954,3.773,3.773,0,0,0,1.939,2.588Z" transform="translate(-118.809 -32.459)"/><path d="M395.358,96.97a3.772,3.772,0,0,1,3.019.755,4.022,4.022,0,0,1,1.464,2.686,3.892,3.892,0,0,1-.679,2.958,3.774,3.774,0,0,1-2.686,1.509l-2.566.355.611,4.415-2.558.347-1.69-12.3Zm.362,5.818a1.9,1.9,0,0,0,1.343-.672,1.857,1.857,0,0,0,.279-1.4,1.811,1.811,0,0,0-.649-1.245,1.88,1.88,0,0,0-1.509-.3l-2.136.294.5,3.622Z" transform="translate(-95.76 -23.778)"/><path d="M413.242,107.462l-3.773-5.139-.755.068.521,5.448-2.573.241-1.17-12.368,4.483-.423a5.275,5.275,0,0,1,1.826.121,3.024,3.024,0,0,1,1.321.672,3.457,3.457,0,0,1,.815,1.1,4.252,4.252,0,0,1,.37,1.426,3.057,3.057,0,0,1-.483,2.1,3.4,3.4,0,0,1-1.841,1.245l4.249,5.222ZM408.307,97.6l.279,2.958,1.509-.143c1.283-.121,1.879-.672,1.788-1.66a1.374,1.374,0,0,0-.574-1.041,2.3,2.3,0,0,0-1.509-.257Z" transform="translate(-99.494 -23.373)"/><path d="M421.9,106.907l-.755-12.391,2.573-.166.755,12.4Z" transform="translate(-103.334 -23.15)"/><path d="M443.688,105.978l-2.573.053L440.1,96.689l-2.951,9.425h-1.668l-3.335-9.191-.634,9.373-2.573.053L429.75,93.9l3.683-.075,2.807,7.735,2.52-7.848,3.675-.075Z" transform="translate(-105.248 -22.976)"/><path d="M459.711,106.427l-.815-2.6-5.215-.174-.989,2.528-2.641-.091,5-12.255,3.147.106,4.15,12.572ZM454.55,101.5l3.7.121-1.668-5.328Z" transform="translate(-110.428 -23.025)"/><path d="M475.182,107.326l-2.792-5.675-.755-.06-.43,5.448-2.573-.2.981-12.384,4.49.355a5.145,5.145,0,0,1,1.773.43,3.166,3.166,0,0,1,1.185.89,3.43,3.43,0,0,1,.611,1.23,4.408,4.408,0,0,1,.121,1.464,3.071,3.071,0,0,1-.838,1.985,3.48,3.48,0,0,1-2.03.913l3.283,5.871Zm-3.154-10.565-.234,2.958,1.509.121c1.283.106,1.97-.34,2.045-1.321a1.334,1.334,0,0,0-.385-1.124,2.266,2.266,0,0,0-1.426-.513Z" transform="translate(-114.987 -23.177)"/><rect width="12.422" height="2.574" transform="matrix(0.111, -0.994, 0.994, 0.111, 365.01, 84.626)"/><path d="M496.579,110.119a6.8,6.8,0,0,1-3.117-1.253,5.673,5.673,0,0,1-1.909-2.551,7.32,7.32,0,0,1,1-6.671,5.588,5.588,0,0,1,2.573-1.864,7.236,7.236,0,0,1,6.445.958,5.587,5.587,0,0,1,1.909,2.543,7.3,7.3,0,0,1-1,6.663,5.692,5.692,0,0,1-2.573,1.887,6.793,6.793,0,0,1-3.328.287M494.4,106.3a3.66,3.66,0,0,0,2.528,1.509,3.623,3.623,0,0,0,2.845-.672,4.565,4.565,0,0,0,.868-5.8,3.947,3.947,0,0,0-5.373-.8,4.528,4.528,0,0,0-.868,5.788Z" transform="translate(-120.514 -23.902)"/><path d="M730.418,600.255l5.652-.355.9-1.864-4.452-2.143.468-.974,9.772,4.7-1.509,3.139a3.141,3.141,0,0,1-1.788,1.766,2.951,2.951,0,0,1-2.264-.2,2.885,2.885,0,0,1-1.441-1.411,2.772,2.772,0,0,1-.068-2.038l-5.773.5Zm10.995-.075-3.63-1.751-1,2.06a2.4,2.4,0,0,0-.249,1.766,1.908,1.908,0,0,0,1.064,1.147,1.976,1.976,0,0,0,1.577.121,2.37,2.37,0,0,0,1.238-1.283Z" transform="translate(-179.096 -145.974)"/><path d="M725.3,610.417a5.538,5.538,0,0,1,1.856-2.083,4.749,4.749,0,0,1,2.611-.755,6.512,6.512,0,0,1,5.282,2.792,4.819,4.819,0,0,1,.807,2.6,5.545,5.545,0,0,1-.694,2.7,5.688,5.688,0,0,1-1.321,1.668,5.221,5.221,0,0,1-1.758.989,4.9,4.9,0,0,1-2.09.174,6.726,6.726,0,0,1-4.12-2.2,4.942,4.942,0,0,1-1.019-1.834,5.072,5.072,0,0,1-.166-2,5.624,5.624,0,0,1,.611-2.06m1.97-.838a4.385,4.385,0,0,0-1.049,1.328,4.53,4.53,0,0,0-.513,1.607,4.062,4.062,0,0,0,.128,1.6,3.872,3.872,0,0,0,.838,1.509,5.764,5.764,0,0,0,3.4,1.811,3.851,3.851,0,0,0,1.683-.136,3.958,3.958,0,0,0,1.4-.755,4.431,4.431,0,0,0,1.049-1.321,4.657,4.657,0,0,0,.521-1.615,4.1,4.1,0,0,0-.128-1.607,3.832,3.832,0,0,0-.823-1.509,5.511,5.511,0,0,0-3.373-1.811,3.9,3.9,0,0,0-1.69.136,4.06,4.06,0,0,0-1.434.762" transform="translate(-177.807 -149.08)"/><path d="M720.007,620.382a4.364,4.364,0,0,1,1.638-1.592l.558.883a2.965,2.965,0,0,0-1.3,1.192,1.849,1.849,0,0,0-.2,1.638,2.623,2.623,0,0,0,1.23,1.366l6.52,3.833-.551.928-6.663-3.917a3.281,3.281,0,0,1-1.615-1.939,3.018,3.018,0,0,1,.377-2.392" transform="translate(-176.549 -151.831)"/><path d="M712.254,632.506a5.572,5.572,0,0,1,2.015-1.924,4.865,4.865,0,0,1,2.671-.566,6.588,6.588,0,0,1,5,3.23,4.813,4.813,0,0,1,.589,2.664,5.587,5.587,0,0,1-.921,2.634,5.724,5.724,0,0,1-1.456,1.509,5.047,5.047,0,0,1-1.834.838,4.918,4.918,0,0,1-2.1,0,6.79,6.79,0,0,1-3.924-2.528,4.962,4.962,0,0,1-.86-1.909,5.031,5.031,0,0,1,0-2.015,5.57,5.57,0,0,1,.815-1.932m2.03-.672a4.766,4.766,0,0,0-1.8,2.8,3.939,3.939,0,0,0,0,1.6,3.838,3.838,0,0,0,.709,1.509,5.743,5.743,0,0,0,3.23,2.09,3.871,3.871,0,0,0,1.69,0,4.177,4.177,0,0,0,1.456-.664,4.521,4.521,0,0,0,1.155-1.238,4.431,4.431,0,0,0,.649-1.562,4.118,4.118,0,0,0,0-1.607,3.942,3.942,0,0,0-.7-1.509,5.694,5.694,0,0,0-3.237-2.083,3.908,3.908,0,0,0-1.7,0,4.164,4.164,0,0,0-1.449.664" transform="translate(-174.539 -154.582)"/><path d="M780.978,601.7a3.773,3.773,0,0,1-2.181,2.188,4.06,4.06,0,0,1-3.019-.113,3.938,3.938,0,0,1-2.2-2.09,3.772,3.772,0,0,1,.091-3.079l1-2.385-4.105-1.728,1-2.377,11.44,4.822Zm-5.192-2.656a1.9,1.9,0,0,0-.1,1.509,1.841,1.841,0,0,0,1.049.958,1.888,1.888,0,0,0,1.411.075,1.864,1.864,0,0,0,1-1.117l.838-1.985-3.366-1.419Z" transform="translate(-189.073 -145.287)"/><path d="M761.9,611.651l6.324-.589.317-.679-4.943-2.332,1.1-2.332L775.926,611,774,615.077a5.19,5.19,0,0,1-1.026,1.509,3.147,3.147,0,0,1-1.26.792,3.46,3.46,0,0,1-1.358.136,4.254,4.254,0,0,1-1.419-.407,3.016,3.016,0,0,1-1.555-1.509,3.409,3.409,0,0,1-.136-2.219l-6.656.989Zm10.995.755-2.687-1.26-.649,1.373c-.551,1.162-.377,1.962.513,2.377a1.327,1.327,0,0,0,1.192.038,2.268,2.268,0,0,0,.981-1.147Z" transform="translate(-186.624 -148.624)"/><path d="M759.089,619.31l11.055,5.66-1.177,2.264-11.055-5.66Z" transform="translate(-185.967 -151.958)"/><path d="M746.822,638.239l1.268-2.264,8.55,3.894-6.6-7.343.823-1.456,9.689,1.872-7.735-5.328,1.268-2.264,10.293,7.026-1.811,3.2-8.082-1.509,5.464,6.173-1.811,3.207Z" transform="translate(-183.246 -153.44)"/><path d="M738.611,651.895l2.641.619,2.815-4.392-1.668-2.143,1.419-2.219,8,10.565-1.705,2.656-12.919-2.853Zm6.867-1.97-2,3.117,5.433,1.283Z" transform="translate(-180.883 -157.958)"/><path d="M730.268,664.728l6.331.513.43-.611-4.46-3.154,1.509-2.105,10.142,7.161-2.6,3.683a5.14,5.14,0,0,1-1.275,1.305,3.1,3.1,0,0,1-1.373.566,3.492,3.492,0,0,1-1.366-.106,4.19,4.19,0,0,1-1.321-.641,3.019,3.019,0,0,1-1.275-1.736,3.411,3.411,0,0,1,.249-2.211l-6.731-.166Zm10.7,2.656-2.422-1.713-.883,1.245q-1.109,1.585.1,2.43a1.35,1.35,0,0,0,1.162.249,2.265,2.265,0,0,0,1.162-.973Z" transform="translate(-178.758 -161.788)"/><path d="M726.521,671.63l9.916,7.486-1.555,2.053-9.871-7.478Z" transform="translate(-177.894 -164.796)"/><path d="M717.248,682.356a6.79,6.79,0,0,1,2.664-2.037,5.666,5.666,0,0,1,3.169-.347,6.792,6.792,0,0,1,3.132,1.509,6.676,6.676,0,0,1,2.09,2.769,5.626,5.626,0,0,1,.3,3.162,6.789,6.789,0,0,1-1.464,3.018,6.7,6.7,0,0,1-2.656,2.038,5.606,5.606,0,0,1-3.154.34,6.642,6.642,0,0,1-3.139-1.509,6.739,6.739,0,0,1-2.09-2.769,5.652,5.652,0,0,1-.3-3.169,6.725,6.725,0,0,1,1.449-3m4.392.075a3.939,3.939,0,0,0-3.434,4.2,4.527,4.527,0,0,0,4.528,3.705,3.939,3.939,0,0,0,3.434-4.211A4.527,4.527,0,0,0,721.64,682.432Z" transform="translate(-175.608 -166.821)"/><path d="M175.336,630.571l-1.743,2.347,2.747,4.211,2.807-.664.626.958L168.506,640l-.694-1.064,6.943-9.312Zm0,6.792-2.354-3.615-3.849,5.086Z" transform="translate(-41.176 -154.488)"/><path d="M170.264,625.318l-3.479-5.735.845-.513,4.2,6.89-.755.475-11.033-.921,3.381,5.569-.845.513-4.052-6.663.755-.483Z" transform="translate(-38.896 -151.899)"/><path d="M163.273,611.3a4.342,4.342,0,0,1,.551,1.932,3.351,3.351,0,0,1-.475,1.819,3.7,3.7,0,0,1-1.472,1.373l-6.437,3.486-.521-.951,6.309-3.411a2.741,2.741,0,0,0,1.464-1.668,3.018,3.018,0,0,0-1.9-3.509,2.7,2.7,0,0,0-2.2.3l-6.3,3.411-.513-.943,6.445-3.486a3.44,3.44,0,0,1,2.868-.309,3.931,3.931,0,0,1,2.188,1.954" transform="translate(-37.24 -149.468)"/><path d="M157.721,601.714,156,598.235l.89-.445,2.2,4.452-9.72,4.807-.475-.973Z" transform="translate(-36.533 -146.678)"/><path d="M156.33,685.522a3.773,3.773,0,0,1-.86-2.966,4,4,0,0,1,1.577-2.619,3.938,3.938,0,0,1,2.89-.913,3.833,3.833,0,0,1,2.656,1.57l1.6,2.03,3.494-2.747,1.6,2.022-9.765,7.659Zm4.83-3.252a1.865,1.865,0,0,0-1.26-.815,1.813,1.813,0,0,0-1.343.46,1.839,1.839,0,0,0-.755,1.192,1.9,1.9,0,0,0,.491,1.419l1.336,1.7,2.868-2.264Z" transform="translate(-38.138 -166.607)"/><path d="M156.425,663.308l-2.543,5.818.438.611,4.437-3.2,1.509,2.1-10.082,7.26-2.634-3.622a5.192,5.192,0,0,1-.823-1.63,3.234,3.234,0,0,1-.083-1.509,3.538,3.538,0,0,1,.543-1.26,4.266,4.266,0,0,1,1.041-1.041,3.019,3.019,0,0,1,2.053-.641,3.38,3.38,0,0,1,2.007.958l2.354-6.309Zm-6.037,9.244,2.407-1.736-.883-1.238q-1.132-1.562-2.332-.7a1.351,1.351,0,0,0-.611,1.019,2.259,2.259,0,0,0,.536,1.419Z" transform="translate(-35.969 -162.149)"/><path d="M152.187,658.141l-10.323,6.9-1.441-2.136,10.308-6.92Z" transform="translate(-34.455 -160.958)"/><path d="M138.621,636.59l1.343,2.188-7.546,5.592,9.614-2.2.875,1.419-6.331,7.546,8.407-4.188,1.351,2.2L135.2,654.754l-1.924-3.132,5.282-6.339-8.044,1.8-1.924-3.132Z" transform="translate(-31.552 -156.198)"/><path d="M131.758,623.234l-1.819,2.007,2.483,4.588,2.679-.423,1.26,2.317-13.1,1.894-1.509-2.777,8.746-9.931Zm-1.592,6.958-1.766-3.26-3.773,4.135Z" transform="translate(-29.874 -152.351)"/><path d="M125.058,610.09l-3.509,5.282.324.672,4.92-2.377,1.124,2.317-11.184,5.426-1.962-4.052a5.375,5.375,0,0,1-.528-1.743,3.221,3.221,0,0,1,.174-1.509,3.477,3.477,0,0,1,.755-1.147,4.323,4.323,0,0,1,1.2-.845,3.019,3.019,0,0,1,2.136-.279,3.477,3.477,0,0,1,1.811,1.29l3.411-5.8Zm-7.546,8.059,2.664-1.29-.664-1.366q-.838-1.743-2.173-1.1a1.345,1.345,0,0,0-.755.906,2.214,2.214,0,0,0,.279,1.509Z" transform="translate(-28.026 -149.016)"/><rect width="12.397" height="2.578" transform="translate(82.64 459.361) rotate(-24.069)"/><path d="M116.292,590.133a6.793,6.793,0,0,1,.5,3.313,5.63,5.63,0,0,1-1.238,2.935,7.282,7.282,0,0,1-6.256,2.513,5.659,5.659,0,0,1-2.913-1.268,7.273,7.273,0,0,1-2.43-6.037,5.621,5.621,0,0,1,1.23-2.928,7.3,7.3,0,0,1,6.256-2.513,5.686,5.686,0,0,1,2.92,1.268,6.662,6.662,0,0,1,1.932,2.717m-2.188,3.773a3.924,3.924,0,0,0-2.022-5.041,4,4,0,0,0-3.124.106,3.792,3.792,0,1,0,2.822,7.018,4.023,4.023,0,0,0,2.324-2.053Z" transform="translate(-25.501 -143.813)"/><path d="M112.212,339.062a6.035,6.035,0,0,1-2.068,2.913,3.775,3.775,0,0,1-3.079.664l.34-2.709a2.265,2.265,0,0,0,1.758-.241,2.651,2.651,0,0,0,1.1-1.449,2.192,2.192,0,0,0,.106-1.4,1.275,1.275,0,0,0-.883-.868,1.192,1.192,0,0,0-1.019.1,2.782,2.782,0,0,0-.823.626c-.2.234-.506.619-.913,1.155-.053.068-.1.121-.121.158-.2.272-.377.491-.513.657s-.3.362-.521.6a5.418,5.418,0,0,1-.589.558,4.5,4.5,0,0,1-.626.407,2.4,2.4,0,0,1-.7.272,2.875,2.875,0,0,1-.755.038,3,3,0,0,1-.868-.189,3.314,3.314,0,0,1-1.645-1.215,3.576,3.576,0,0,1-.634-1.894,5.693,5.693,0,0,1,.37-2.264,7.3,7.3,0,0,1,.755-1.456,5.4,5.4,0,0,1,1.019-1.17,3.419,3.419,0,0,1,1.351-.755,3.859,3.859,0,0,1,1.645-.106l-.272,2.558a2.008,2.008,0,0,0-2.423,1.479l-.007.03a2.374,2.374,0,0,0-.136,1.419,1.214,1.214,0,0,0,.838.883,1.26,1.26,0,0,0,1.343-.475,11.969,11.969,0,0,0,1.147-1.419l.528-.687c.136-.174.317-.392.551-.649a5.574,5.574,0,0,1,.626-.6,7.476,7.476,0,0,1,.672-.453,2.657,2.657,0,0,1,.755-.309,3.285,3.285,0,0,1,.838-.053,3.014,3.014,0,0,1,.943.2,3.764,3.764,0,0,1,1.238.709,3.053,3.053,0,0,1,.755,1,3.758,3.758,0,0,1,.332,1.215,4.659,4.659,0,0,1,0,1.336,7.631,7.631,0,0,1-.415,1.4" transform="translate(-24.477 -81.325)"/><path d="M115.662,320.68l.543.249-2.483,6.037a2.161,2.161,0,0,0,2.868-1.268,2.107,2.107,0,0,0,.158-1.2,1.833,1.833,0,0,0-.543-1.019l1.17-1.977a3.862,3.862,0,0,1,1.336,2.219,4.578,4.578,0,0,1-.309,2.694,4.746,4.746,0,0,1-2.422,2.724,5.083,5.083,0,0,1-6.248-2.558,4.626,4.626,0,0,1,.143-3.517,4.046,4.046,0,0,1,5.8-2.354Zm-4.173,3.019a1.962,1.962,0,0,0,.755,2.634l1.509-3.773a1.848,1.848,0,0,0-1.4.083,1.976,1.976,0,0,0-.86,1.041Z" transform="translate(-26.856 -78.571)"/><path d="M123.728,314.109a4.7,4.7,0,0,1-2.566,2.581,4.83,4.83,0,0,1-6.037-2.732,5.282,5.282,0,0,1,2.219-5.894,3.775,3.775,0,0,1,2.792-.355l-.717,2.188a1.983,1.983,0,0,0-1.358.189,2.261,2.261,0,0,0-.906,1.064,2.031,2.031,0,0,0,0,1.773,2.859,2.859,0,0,0,1.509,1.351,2.786,2.786,0,0,0,1.985.219,2.008,2.008,0,0,0,1.328-1.17,2.2,2.2,0,0,0,.2-1.373,2.046,2.046,0,0,0-.755-1.162l1.17-1.977a3.854,3.854,0,0,1,1.57,2.347,4.674,4.674,0,0,1-.438,2.951" transform="translate(-28.198 -75.472)"/><path d="M121.863,296.041l1.109-2.211,7.9,3.962-1.049,2.1-.981-.43a3.373,3.373,0,0,1-.158,3.071,3.427,3.427,0,0,1-1.8,1.826,2.952,2.952,0,0,1-2.407-.257l-5.282-2.664,1.109-2.219,4.845,2.422a1.51,1.51,0,0,0,1.283.151,1.713,1.713,0,0,0,.86-.853,2,2,0,0,0,.181-1.509,2.128,2.128,0,0,0-1.215-1.23Z" transform="translate(-29.246 -72.096)"/><path d="M128.337,283.713a3.446,3.446,0,0,1,1.894-1.728,2.944,2.944,0,0,1,2.392.37l5.177,2.936-1.253,2.158-4.716-2.664a1.511,1.511,0,0,0-1.275-.219,1.667,1.667,0,0,0-.9.8,2.261,2.261,0,0,0-.272.7,1.869,1.869,0,0,0,0,.709,1.554,1.554,0,0,0,.362.709,3.013,3.013,0,0,0,.807.649l4.241,2.4-1.215,2.158-7.69-4.354,1.215-2.151.853.483a3.426,3.426,0,0,1,.377-2.958" transform="translate(-30.89 -69.164)"/><path d="M132.492,266.873l1.29-2.113,11.282,6.852-1.215,2-1.019-.543a2.494,2.494,0,0,1,.272,1.509,3.718,3.718,0,0,1-.551,1.6,4.28,4.28,0,0,1-1.132,1.245,3.914,3.914,0,0,1-3.185.717,5.239,5.239,0,0,1-1.826-.717,5.015,5.015,0,0,1-1.8-1.773,3.98,3.98,0,0,1-.574-2.151,4.342,4.342,0,0,1,.641-2.105,3.964,3.964,0,0,1,1.109-1.2,2.521,2.521,0,0,1,1.358-.468Zm8.6,7.72a2.18,2.18,0,0,0,.264-1.788,2.573,2.573,0,0,0-1.23-1.509,2.6,2.6,0,0,0-1.932-.385,2.211,2.211,0,0,0-1.472,1.056,2.264,2.264,0,0,0-.279,1.8,2.617,2.617,0,0,0,1.253,1.509,2.589,2.589,0,0,0,1.932.392A2.2,2.2,0,0,0,141.087,274.593Z" transform="translate(-32.509 -64.963)"/><path d="M150.772,260.524a8.408,8.408,0,0,0,1.917,1.011l.2.136-1.275,1.924-.913-.362a2.876,2.876,0,0,1,0,1.509,4.579,4.579,0,0,1-.649,1.509,4.063,4.063,0,0,1-.521.649,3.027,3.027,0,0,1-.626.475,2.371,2.371,0,0,1-.755.257,1.859,1.859,0,0,1-.807-.045,2.8,2.8,0,0,1-.89-.4,2.608,2.608,0,0,1-.709-.664,2.3,2.3,0,0,1-.362-.755,2.89,2.89,0,0,1-.053-.868,5.268,5.268,0,0,1,.174-.936,9.776,9.776,0,0,1,.347-1.034l.528-1.389a1.623,1.623,0,0,0,.128-.7.567.567,0,0,0-.264-.408.905.905,0,0,0-.943-.106,2,2,0,0,0-.8.755,1.509,1.509,0,0,0,.115,2.131c.019.017.038.034.058.05l-1.509,1.615a3.017,3.017,0,0,1-.973-2.181,5.114,5.114,0,0,1,.989-2.679q2.052-3.094,4.709-1.336Zm-1.66,4.128a1.964,1.964,0,0,0,.309-1.63,2.664,2.664,0,0,0-1.253-1.509l-.657,2.075a2.443,2.443,0,0,0-.189.936.86.86,0,0,0,1.117.717A1.336,1.336,0,0,0,149.112,264.652Z" transform="translate(-34.889 -63.316)"/><path d="M150.912,251.29a2.943,2.943,0,0,1-.2-1.562,3.5,3.5,0,0,1,.634-1.668l1.8,1.275a3.3,3.3,0,0,0-.755,2.03,2.324,2.324,0,0,0,1.162,1.63l3.517,2.483-1.434,2.038-7.222-5.1,1.373-1.939Z" transform="translate(-36.418 -60.866)"/><path d="M152.417,243.332a1.426,1.426,0,0,1-1.994.306l-.006,0a1.358,1.358,0,0,1-.551-.936,1.419,1.419,0,1,1,2.807-.423,1.374,1.374,0,0,1-.257,1.056m7.418,7.056-7.1-5.282,1.509-2,7.1,5.282Z" transform="translate(-36.768 -59.148)"/><path d="M167.809,241.488a5.613,5.613,0,0,1-1.97,1.63,4.053,4.053,0,0,1-2.309.362,4.75,4.75,0,0,1-2.324-1.034,4.325,4.325,0,0,1-1.8-3.124,5.607,5.607,0,0,1,4.324-5.509,4.883,4.883,0,0,1,5.282,4.15,4.944,4.944,0,0,1-1.2,3.524m-1.562-1.2a2.266,2.266,0,0,0,.513-1.819,3.064,3.064,0,0,0-3.019-2.362,2.263,2.263,0,0,0-1.653.928,2.16,2.16,0,0,0-.475,1.781,3.065,3.065,0,0,0,3.019,2.354,2.189,2.189,0,0,0,1.615-.9Z" transform="translate(-39.112 -57.365)"/><path d="M722.7,242.72a6.038,6.038,0,0,1-1.366-3.305,3.82,3.82,0,0,1,1.079-2.958l2.113,1.736a2.26,2.26,0,0,0-.755,1.607,2.772,2.772,0,0,0,.641,1.713,2.264,2.264,0,0,0,1.132.838,1.289,1.289,0,0,0,1.207-.287,1.2,1.2,0,0,0,.46-.913,2.829,2.829,0,0,0-.091-1.034c-.091-.294-.257-.755-.491-1.381l-.068-.189-.287-.755c-.068-.2-.143-.453-.226-.755a5.231,5.231,0,0,1-.158-.792,4.837,4.837,0,0,1,0-.755,2.223,2.223,0,0,1,.143-.755,3.071,3.071,0,0,1,1-1.313,3.324,3.324,0,0,1,1.9-.755,3.551,3.551,0,0,1,1.947.468,5.683,5.683,0,0,1,1.7,1.509,7.1,7.1,0,0,1,.853,1.389,5.464,5.464,0,0,1,.445,1.509,3.459,3.459,0,0,1-.1,1.509,3.81,3.81,0,0,1-.755,1.441l-2.022-1.592a2.014,2.014,0,0,0,0-2.849l0,0a2.439,2.439,0,0,0-1.132-.875,1.231,1.231,0,0,0-1.192.241,1.253,1.253,0,0,0-.317,1.389,12.367,12.367,0,0,0,.589,1.728c.128.332.226.6.3.815s.159.475.249.815a4.7,4.7,0,0,1,.181.853,6.88,6.88,0,0,1,0,.807,2.481,2.481,0,0,1-.151.815,3.107,3.107,0,0,1-.4.755,3.071,3.071,0,0,1-.672.694,3.711,3.711,0,0,1-1.26.664,3.019,3.019,0,0,1-1.253.106,3.977,3.977,0,0,1-1.2-.362,5.133,5.133,0,0,1-1.117-.755,6.723,6.723,0,0,1-.936-1.019" transform="translate(-176.99 -57.088)"/><path d="M737.512,255.526l-.5.324-3.773-5.328a2.158,2.158,0,0,0-.531,3.006c.023.032.046.064.071.1a2.262,2.262,0,0,0,.928.755,1.869,1.869,0,0,0,1.155.091l1.049,2.038a3.85,3.85,0,0,1-2.588-.053,4.616,4.616,0,0,1-2.12-1.7,4.79,4.79,0,0,1-1.011-3.509,5.1,5.1,0,0,1,5.494-3.917,4.639,4.639,0,0,1,2.958,2.022,4.037,4.037,0,0,1-.435,5.693,4,4,0,0,1-.667.465Zm-.317-5.132a1.947,1.947,0,0,0-2.626-.755l2.354,3.3a1.855,1.855,0,0,0,.672-1.23A1.919,1.919,0,0,0,737.2,250.395Z" transform="translate(-179.158 -60.68)"/><path d="M738.726,265.825a4.752,4.752,0,0,1-.815-3.547,4.83,4.83,0,0,1,5.539-3.652,5.283,5.283,0,0,1,3.773,5.018,3.775,3.775,0,0,1-1.192,2.551l-1.464-1.773a1.945,1.945,0,0,0,.558-1.253,2.2,2.2,0,0,0-.415-1.336,2.037,2.037,0,0,0-1.509-.951,3.26,3.26,0,0,0-3.185,2.1,2.023,2.023,0,0,0,.279,1.751,2.265,2.265,0,0,0,1.064.9,2,2,0,0,0,1.373,0l1.049,2.045a3.773,3.773,0,0,1-2.822.075,4.722,4.722,0,0,1-2.234-1.924" transform="translate(-181.043 -63.44)"/><path d="M754.408,273.632l1.283,2.12-7.546,4.566-1.215-2.007.883-.6a3.366,3.366,0,0,1-2.513-1.766,3.423,3.423,0,0,1-.581-2.5,2.951,2.951,0,0,1,1.509-1.9l5.094-3.071L752.6,270.6l-4.656,2.792a1.509,1.509,0,0,0-.807,1,1.665,1.665,0,0,0,.264,1.185,1.986,1.986,0,0,0,1.155.936,2.143,2.143,0,0,0,1.69-.37Z" transform="translate(-182.719 -65.874)"/><path d="M761.308,285.893a3.449,3.449,0,0,1,.46,2.528,2.963,2.963,0,0,1-1.592,1.819l-5.245,2.822-1.17-2.188,4.769-2.566a1.51,1.51,0,0,0,.86-.966,1.675,1.675,0,0,0-.2-1.192,2.423,2.423,0,0,0-.453-.6,1.869,1.869,0,0,0-.6-.377,1.514,1.514,0,0,0-.8-.075,3.141,3.141,0,0,0-.974.34l-4.294,2.309-1.177-2.181,7.788-4.188,1.17,2.181-.86.46a3.433,3.433,0,0,1,2.309,1.871" transform="translate(-184.247 -69.041)"/><path d="M772.626,298.2l1.1,2.211-11.81,5.894-1.049-2.1,1-.566a2.543,2.543,0,0,1-1.4-.558,3.841,3.841,0,0,1-1.056-1.321,4.179,4.179,0,0,1-.453-1.622,3.946,3.946,0,0,1,1.094-3.079,5.457,5.457,0,0,1,1.577-1.162,5,5,0,0,1,2.468-.574,3.92,3.92,0,0,1,2.121.664,4.157,4.157,0,0,1,1.434,1.66,3.865,3.865,0,0,1,.43,1.577,2.534,2.534,0,0,1-.324,1.4Zm-11.116,3.154a2.265,2.265,0,0,0,1.381,1.177,2.565,2.565,0,0,0,1.947-.226,2.6,2.6,0,0,0,1.358-1.426,2.181,2.181,0,0,0-.113-1.811,2.212,2.212,0,0,0-1.373-1.192,2.928,2.928,0,0,0-3.328,1.66A2.262,2.262,0,0,0,761.51,301.359Z" transform="translate(-186.222 -72.464)"/><path d="M769.541,317.432a7.915,7.915,0,0,0-1.879,1.087l-.219.1-.951-2.105.755-.581a2.8,2.8,0,0,1-1.283-.755,4.616,4.616,0,0,1-1.185-2.12,2.73,2.73,0,0,1-.068-.755,2.254,2.254,0,0,1,.166-.755,2.187,2.187,0,0,1,.468-.664,2.943,2.943,0,0,1,.815-.536,2.6,2.6,0,0,1,.936-.241,2.275,2.275,0,0,1,.83.1,2.76,2.76,0,0,1,.755.415,5.711,5.711,0,0,1,.7.641,10.305,10.305,0,0,1,.679.845l.9,1.192a1.635,1.635,0,0,0,.528.483.575.575,0,0,0,.483,0,.912.912,0,0,0,.6-.755,2.062,2.062,0,0,0-.2-1.064,1.509,1.509,0,0,0-1.861-1.046l-.086.027-.536-2.158a2.928,2.928,0,0,1,2.362.34,5.088,5.088,0,0,1,1.736,2.264q1.509,3.373-1.381,4.694Zm-2.611-3.6a1.985,1.985,0,0,0,1.215,1.124,2.657,2.657,0,0,0,1.97-.234l-1.4-1.668a2.607,2.607,0,0,0-.687-.657.757.757,0,0,0-.709,0,.822.822,0,0,0-.505.589,1.361,1.361,0,0,0,.121.845" transform="translate(-187.634 -75.738)"/><path d="M777.172,322.654a2.833,2.833,0,0,1,1.426.664,3.535,3.535,0,0,1,1.072,1.426l-2.045.845a3.352,3.352,0,0,0-1.3-1.751,2.339,2.339,0,0,0-2,.121l-3.977,1.653-.958-2.264,8.165-3.388.906,2.188Z" transform="translate(-188.784 -78.508)"/><path d="M772.732,331.1l8.233-3.215.906,2.324-8.233,3.207Zm9.923-2.513a1.421,1.421,0,0,1,1.841-1.865l.039.017a1.412,1.412,0,0,1,.755.792,1.374,1.374,0,0,1,0,1.079,1.358,1.358,0,0,1-.755.755,1.379,1.379,0,0,1-1.094,0,1.349,1.349,0,0,1-.785-.777" transform="translate(-189.603 -80.141)"/><path d="M776.626,341.82a5.489,5.489,0,0,1-.325-2.536,4,4,0,0,1,.921-2.151,4.677,4.677,0,0,1,2.113-1.411,4.323,4.323,0,0,1,3.607.136,5.607,5.607,0,0,1,2.354,6.6,4.875,4.875,0,0,1-6.331,2.264,4.991,4.991,0,0,1-2.339-2.9m1.849-.687a2.262,2.262,0,0,0,1.268,1.411,3.071,3.071,0,0,0,3.592-1.283,2.265,2.265,0,0,0,.091-1.887,2.157,2.157,0,0,0-1.253-1.358,3.064,3.064,0,0,0-3.584,1.275,2.172,2.172,0,0,0-.113,1.834Z" transform="translate(-190.471 -82.294)"/><path d="M497.406,807.957a6.032,6.032,0,0,1,3.554.423,3.833,3.833,0,0,1,2.053,2.377l-2.543,1a2.263,2.263,0,0,0-1.049-1.426,2.694,2.694,0,0,0-1.8-.279,2.261,2.261,0,0,0-1.283.581,1.276,1.276,0,0,0-.34,1.192,1.2,1.2,0,0,0,.574.845,2.653,2.653,0,0,0,.943.423q.453.105,1.449.249h.2l.823.136c.211.038.468.1.755.174a6.633,6.633,0,0,1,.755.249,6.549,6.549,0,0,1,.657.355,2.334,2.334,0,0,1,.574.49,2.942,2.942,0,0,1,.407.664,3.027,3.027,0,0,1,.249.853,3.3,3.3,0,0,1-.279,2.022,3.568,3.568,0,0,1-1.358,1.464,5.581,5.581,0,0,1-2.151.755,7.463,7.463,0,0,1-1.63.068,5.952,5.952,0,0,1-1.509-.332,3.63,3.63,0,0,1-1.3-.838,3.89,3.89,0,0,1-.875-1.4l2.377-.981a2.015,2.015,0,0,0,2.471,1.42l0,0a2.494,2.494,0,0,0,1.313-.558,1.229,1.229,0,0,0,.37-1.162c-.068-.453-.423-.755-1.056-.951a13.064,13.064,0,0,0-1.8-.332l-.853-.128q-.325-.06-.838-.181a4.942,4.942,0,0,1-.83-.264,5.366,5.366,0,0,1-.717-.37,2.529,2.529,0,0,1-.641-.528,3.392,3.392,0,0,1-.453-.709,3.534,3.534,0,0,1-.279-.928,3.891,3.891,0,0,1,.038-1.426,3.2,3.2,0,0,1,.521-1.147,4,4,0,0,1,.906-.868,4.769,4.769,0,0,1,1.185-.611,7.124,7.124,0,0,1,1.411-.324" transform="translate(-121.039 -198.222)"/><path d="M479.88,814.978v-.6l6.5-.717a2.265,2.265,0,0,0-.875-1.509,2.2,2.2,0,0,0-1.607-.377,2.133,2.133,0,0,0-1.124.43,1.854,1.854,0,0,0-.641.966l-2.264-.083a3.889,3.889,0,0,1,1.313-2.264,4.588,4.588,0,0,1,2.513-1.019,4.745,4.745,0,0,1,3.554.83,4.43,4.43,0,0,1,1.645,3.207,4.529,4.529,0,0,1-.906,3.5,4.649,4.649,0,0,1-3.2,1.592,4.045,4.045,0,0,1-4.845-3.969Zm4.633,2.226a1.954,1.954,0,0,0,1.947-1.924l-4.03.445a1.857,1.857,0,0,0,.755,1.185,1.919,1.919,0,0,0,1.321.294Z" transform="translate(-117.745 -198.685)"/><path d="M470.262,811.05a4.688,4.688,0,0,1,3.494,1.019,4.822,4.822,0,0,1,.483,6.618,5.229,5.229,0,0,1-6.226.868,3.818,3.818,0,0,1-1.653-2.264l2.264-.415a1.931,1.931,0,0,0,.823,1.1,2.173,2.173,0,0,0,1.366.287,2.013,2.013,0,0,0,1.555-.83,3.236,3.236,0,0,0-.272-3.773,2.037,2.037,0,0,0-1.668-.611,2.26,2.26,0,0,0-1.306.483,2,2,0,0,0-.657,1.215l-2.264-.083a3.774,3.774,0,0,1,1.313-2.5,4.587,4.587,0,0,1,2.747-1.117" transform="translate(-114.391 -198.997)"/><path d="M455.422,820.8l-2.475.083-.294-8.829,2.347-.083.091,1.064a3.367,3.367,0,0,1,2.77-1.328,3.437,3.437,0,0,1,2.468.709,3.019,3.019,0,0,1,.928,2.264l.2,5.946-2.483.083-.181-5.411a1.51,1.51,0,0,0-.483-1.2,1.678,1.678,0,0,0-1.162-.347,1.994,1.994,0,0,0-1.381.551,2.165,2.165,0,0,0-.506,1.653Z" transform="translate(-111.066 -199.161)"/><path d="M441.276,821.148a3.464,3.464,0,0,1-2.43-.83,2.936,2.936,0,0,1-.807-2.264l.091-5.954,2.49.045-.091,5.411a1.51,1.51,0,0,0,.423,1.23,1.645,1.645,0,0,0,1.132.407,2.3,2.3,0,0,0,.755-.106,1.854,1.854,0,0,0,.626-.332,1.618,1.618,0,0,0,.453-.664,2.861,2.861,0,0,0,.181-1.019l.083-4.875,2.475.045-.158,8.829-2.475-.045v-.981a3.381,3.381,0,0,1-2.747,1.1" transform="translate(-107.478 -199.263)"/><path d="M425.21,824.824l-2.468-.113.619-13.191,2.339.113v1.155a2.493,2.493,0,0,1,1.17-.951,3.778,3.778,0,0,1,1.668-.279,4.419,4.419,0,0,1,1.638.392,4.236,4.236,0,0,1,1.306.966,4.078,4.078,0,0,1,.845,1.509,5.42,5.42,0,0,1,.249,1.947,5.064,5.064,0,0,1-.7,2.438,4.009,4.009,0,0,1-1.615,1.509,4.229,4.229,0,0,1-2.151.445,3.961,3.961,0,0,1-1.585-.4,2.506,2.506,0,0,1-1.064-.966Zm2.671-11.244a2.21,2.21,0,0,0-1.7.626,2.9,2.9,0,0,0-.174,3.7,2.172,2.172,0,0,0,1.63.755,2.211,2.211,0,0,0,1.713-.611,2.6,2.6,0,0,0,.755-1.834,2.558,2.558,0,0,0-.581-1.887A2.264,2.264,0,0,0,427.881,813.58Z" transform="translate(-103.727 -199.12)"/><path d="M410.35,812.847a8.323,8.323,0,0,0,0-2.166v-.241l2.309.2.113.974a2.863,2.863,0,0,1,1.306-.755,4.452,4.452,0,0,1,1.615-.143,4.394,4.394,0,0,1,.815.143,2.817,2.817,0,0,1,.717.324,2.23,2.23,0,0,1,.574.513,2.065,2.065,0,0,1,.355.755,2.915,2.915,0,0,1,.068.974,2.584,2.584,0,0,1-.241.936,2.309,2.309,0,0,1-.491.679,2.533,2.533,0,0,1-.755.46,4.4,4.4,0,0,1-.906.3,9.592,9.592,0,0,1-1.064.189l-1.509.2a1.672,1.672,0,0,0-.679.226.551.551,0,0,0-.226.423.907.907,0,0,0,.355.883,2.011,2.011,0,0,0,1.026.347,1.509,1.509,0,0,0,1.823-1.109c.007-.027.013-.055.018-.083l2.151.581a3.018,3.018,0,0,1-1.449,1.9,5.156,5.156,0,0,1-2.822.408c-2.468-.211-3.607-1.381-3.426-3.494Zm4.422-.521a1.992,1.992,0,0,0-1.577.513,2.661,2.661,0,0,0-.755,1.834l2.143-.415a2.467,2.467,0,0,0,.906-.279.755.755,0,0,0,.355-.611.808.808,0,0,0-.264-.755,1.35,1.35,0,0,0-.807-.249Z" transform="translate(-100.602 -198.855)"/><path d="M402.453,817.135a2.782,2.782,0,0,1-1.275.921,3.448,3.448,0,0,1-1.766.242l.257-2.2a3.376,3.376,0,0,0,2.166-.279,2.354,2.354,0,0,0,.868-1.8l.5-4.279,2.475.287-1.026,8.776-2.354-.272Z" transform="translate(-98.003 -198.684)"/><path d="M394.927,818.833a1.383,1.383,0,0,1,.951.551,1.366,1.366,0,0,1,.272,1.056,1.334,1.334,0,0,1-.558.936,1.4,1.4,0,0,1-1.057.272,1.432,1.432,0,0,1-1.207-1.6,1.426,1.426,0,0,1,1.6-1.215m2.687-9.893-1.215,8.754-2.468-.34,1.215-8.754Z" transform="translate(-96.506 -198.404)"/><path d="M385.266,806.954a5.593,5.593,0,0,1,2.377.951,4.047,4.047,0,0,1,1.426,1.856,4.7,4.7,0,0,1,.2,2.536,4.331,4.331,0,0,1-1.887,3.079,5.607,5.607,0,0,1-6.9-1.17,4.867,4.867,0,0,1,1.124-6.618,4.951,4.951,0,0,1,3.66-.634m-.3,1.947a2.262,2.262,0,0,0-1.849.415,3.071,3.071,0,0,0-.634,3.773,2.266,2.266,0,0,0,1.607,1,2.2,2.2,0,0,0,1.788-.43,3.109,3.109,0,0,0,.641-3.773,2.174,2.174,0,0,0-1.555-.966Z" transform="translate(-93.154 -197.972)"/><path d="M292.922,791.613l.566-1.283,2.837,1.26,4.339-9.81,1.4.619-4.339,9.81,2.845,1.26L300,794.752Z" transform="translate(-71.874 -191.823)"/><path d="M287.316,779.974l.189-.355,5.954,2.845a2.972,2.972,0,0,0,.2-2.264,2.634,2.634,0,0,0-1.411-1.509,2.509,2.509,0,0,0-1.434-.242,2.567,2.567,0,0,0-1.351.589l-1.087-.83a3.775,3.775,0,0,1,2.083-1.011,3.93,3.93,0,0,1,2.309.37,4.076,4.076,0,0,1,2.264,2.377,5.011,5.011,0,0,1-2.777,5.788,4.038,4.038,0,0,1-3.207-.234,3.81,3.81,0,0,1-2.1-2.2,4.323,4.323,0,0,1,.362-3.32m2.2,4.467a2.673,2.673,0,0,0,1.849.219,2.762,2.762,0,0,0,1.555-1.185l-4.573-2.188a2.542,2.542,0,0,0-.083,1.887A2.417,2.417,0,0,0,289.512,784.441Z" transform="translate(-70.365 -190.689)"/><path d="M280.4,779.563a2.551,2.551,0,0,1-1.456.536,3.235,3.235,0,0,1-1.645-.347l.641-1.245a2.777,2.777,0,0,0,2.03.34,2.6,2.6,0,0,0,1.509-1.472l2.068-4.015,1.321.679-3.864,7.546-1.29-.664Z" transform="translate(-68.041 -189.757)"/><path d="M274.6,768.2a4.043,4.043,0,0,1,2.075,2.513,4.31,4.31,0,0,1-.468,3.358,4.353,4.353,0,0,1-2.566,2.211,4.422,4.422,0,0,1-5.033-2.211,3.711,3.711,0,0,1-.264-2.483l1.328.468a2.58,2.58,0,0,0,.211,1.615,2.627,2.627,0,0,0,1.117,1.14,2.5,2.5,0,0,0,2.136.174,3.342,3.342,0,0,0,1.766-1.63,3.273,3.273,0,0,0,.415-2.362,2.5,2.5,0,0,0-1.306-1.7,2.566,2.566,0,0,0-1.562-.325,2.62,2.62,0,0,0-1.472.694l-1.109-.868a3.774,3.774,0,0,1,2.264-1.117,4.107,4.107,0,0,1,2.468.521" transform="translate(-65.818 -188.359)"/><path d="M261.324,773.027a1,1,0,0,1,.355,1.373.929.929,0,0,1-.611.46,1,1,0,0,1-.755-.106,1.011,1.011,0,0,1-.453-.611.944.944,0,0,1,.106-.755.929.929,0,0,1,.611-.46.944.944,0,0,1,.747.1m5.946-8.61-4.286,7.282-1.29-.755,4.286-7.275Z" transform="translate(-63.752 -187.38)"/><path d="M260.22,759.3a2.881,2.881,0,0,1,1.275,1.464,2.112,2.112,0,0,1-.294,1.856,2.4,2.4,0,0,1-.755.815,1.874,1.874,0,0,1-.989.294,4.522,4.522,0,0,1-1.094-.113,9.78,9.78,0,0,1-1.253-.423l-1.283-.528a.754.754,0,0,0-1.035.26l-.007.011a1.509,1.509,0,0,0-.219,1.351,2.183,2.183,0,0,0,.928,1.041,2.206,2.206,0,0,0,1.328.37,1.623,1.623,0,0,0,1.162-.679l.989.943a2.6,2.6,0,0,1-1.849.989,3.944,3.944,0,0,1-2.264-.7,4.606,4.606,0,0,1-.966-.755,3.408,3.408,0,0,1-.619-.943,2.174,2.174,0,0,1-.143-1.155,3.322,3.322,0,0,1,.513-1.321l1.834-2.966a1.509,1.509,0,0,0,.3-.853.839.839,0,0,0-.453-.543l-.113-.075.566-.913.626.392a1.411,1.411,0,0,1,.755,1.811l.053.038a3.214,3.214,0,0,1,3,.332m-.921.838a2.263,2.263,0,0,0-1.977-.257,3.348,3.348,0,0,0-1.758,1.509l2.128.807a3.06,3.06,0,0,0,1.358.294,1.094,1.094,0,0,0,.845-.566,1.049,1.049,0,0,0,.143-1A1.751,1.751,0,0,0,259.3,760.141Z" transform="translate(-62.105 -185.677)"/><path d="M246.671,759.981a2.569,2.569,0,0,1-1.509.37,3.114,3.114,0,0,1-1.6-.521l.755-1.17a2.792,2.792,0,0,0,1.985.558,2.64,2.64,0,0,0,1.668-1.306l2.475-3.773,1.245.815-4.649,7.056-1.207-.792Z" transform="translate(-59.762 -185.041)"/><path d="M238.793,758.858a.953.953,0,0,1,.415.649.966.966,0,0,1-.151.755.928.928,0,0,1-.649.415,1,1,0,1,1,.385-1.811Zm6.528-8.15-4.777,6.965-1.215-.868,4.784-6.965Z" transform="translate(-58.208 -183.986)"/><path d="M237.163,744.405a4.441,4.441,0,0,1,1.449,1.7,3.859,3.859,0,0,1,.332,2.136,4.783,4.783,0,0,1-.921,2.219,4.325,4.325,0,0,1-2.845,1.871,4.528,4.528,0,0,1-4.943-3.6,4.844,4.844,0,0,1,3.773-5.154,4.134,4.134,0,0,1,3.154.83m-.755,1a2.633,2.633,0,0,0-2.128-.475,3.683,3.683,0,0,0-2.686,3.7A2.732,2.732,0,0,0,234.648,751c.057-.007.112-.016.168-.026a3.705,3.705,0,0,0,2.686-3.7,2.6,2.6,0,0,0-1.056-1.887Z" transform="translate(-56.488 -182.438)"/><path d="M80.312,492.516l1.389-.136.309,3.086,10.648-1.049.151,1.509-10.648,1.056.3,3.094-1.4.136Z" transform="translate(-19.706 -120.814)"/><path d="M88.444,480.99h.408l.46,6.58a2.958,2.958,0,0,0,2.1-.951,2.647,2.647,0,0,0,.619-1.977,2.516,2.516,0,0,0-.506-1.366,2.57,2.57,0,0,0-1.177-.883l.189-1.358a3.772,3.772,0,0,1,1.909,1.313,3.98,3.98,0,0,1,.815,2.2,4.06,4.06,0,0,1-.966,3.117,5,5,0,0,1-6.4.438,4.051,4.051,0,0,1-1.389-2.905,3.856,3.856,0,0,1,.883-2.905,4.3,4.3,0,0,1,3.056-1.3m-2.792,4.12a2.6,2.6,0,0,0,.755,1.705,2.731,2.731,0,0,0,1.8.755l-.355-5.048a2.474,2.474,0,0,0-1.683.86,2.342,2.342,0,0,0-.528,1.713Z" transform="translate(-20.729 -118.019)"/><path d="M85.582,475.121a2.552,2.552,0,0,1-1.177-1,3.193,3.193,0,0,1-.513-1.607l1.4-.06a2.753,2.753,0,0,0,.7,1.939,2.639,2.639,0,0,0,2.03.6l4.528-.189.06,1.509-8.437.347-.06-1.449Z" transform="translate(-20.584 -115.924)"/><path d="M92.433,464.151a4.084,4.084,0,0,1-1.162,3.019,4.807,4.807,0,0,1-6.339.106,4.423,4.423,0,0,1-.566-5.471,3.771,3.771,0,0,1,2.03-1.456l.249,1.389a2.535,2.535,0,0,0-1.736,2.513,2.488,2.488,0,0,0,.9,1.947,3.335,3.335,0,0,0,2.264.755,3.3,3.3,0,0,0,2.264-.807,2.5,2.5,0,0,0,.83-1.97,2.588,2.588,0,0,0-.491-1.509,2.517,2.517,0,0,0-1.328-.928l.211-1.4a3.715,3.715,0,0,1,2.068,1.4,4.045,4.045,0,0,1,.807,2.415" transform="translate(-20.53 -112.952)"/><path d="M80.609,455.929a.975.975,0,0,1-.309.7.99.99,0,0,1-.717.287.943.943,0,0,1-.694-.309.99.99,0,0,1-.287-.717,1,1,0,0,1,.309-.694.987.987,0,0,1,.709-.287,1,1,0,0,1,.7.309.979.979,0,0,1,.287.709m10.421.921-8.452-.136V455.2l8.444.136Z" transform="translate(-19.286 -111.62)"/><path d="M92.628,447.287a2.866,2.866,0,0,1-.649,1.826,2.084,2.084,0,0,1-1.758.657,2.464,2.464,0,0,1-1.094-.272,1.92,1.92,0,0,1-.755-.755,4.2,4.2,0,0,1-.445-1.011,9.035,9.035,0,0,1-.249-1.3l-.174-1.373c-.075-.5-.324-.755-.755-.755a1.509,1.509,0,0,0-1.275.483,2.446,2.446,0,0,0-.121,2.656,1.638,1.638,0,0,0,1.162.672l-.332,1.328a2.557,2.557,0,0,1-1.766-1.124A3.92,3.92,0,0,1,83.9,446a4.916,4.916,0,0,1,.2-1.215,3.406,3.406,0,0,1,.513-1,2.161,2.161,0,0,1,.936-.7,3.394,3.394,0,0,1,1.4-.2l3.486.128a1.334,1.334,0,0,0,.883-.158.829.829,0,0,0,.257-.657v-.136h1.072v.755a1.4,1.4,0,0,1-1.2,1.555v.068a3.244,3.244,0,0,1,1.185,2.86m-1.185-.392a2.264,2.264,0,0,0-.755-1.841,3.351,3.351,0,0,0-2.211-.755l.347,2.264a3.019,3.019,0,0,0,.415,1.328,1.079,1.079,0,0,0,.906.46,1.064,1.064,0,0,0,.943-.37,1.773,1.773,0,0,0,.355-1.056Z" transform="translate(-20.582 -108.465)"/><path d="M86.124,436.09a2.509,2.509,0,0,1-1.064-1.117,3.23,3.23,0,0,1-.34-1.653l1.4.091a2.831,2.831,0,0,0,.5,2.007,2.636,2.636,0,0,0,1.955.8l4.528.3-.1,1.509-8.437-.558.1-1.456Z" transform="translate(-20.749 -106.323)"/><path d="M81.922,429.27a.971.971,0,0,1-.355.687,1,1,0,0,1-1.4-.112l-.007-.008a1,1,0,0,1-.226-.755.935.935,0,0,1,.347-.672.966.966,0,0,1,.755-.241.981.981,0,0,1,.679.362.944.944,0,0,1,.211.74m10.331,1.645-8.414-.717.128-1.509,8.414.755Z" transform="translate(-19.611 -105.057)"/><path d="M94.675,419.76a4.522,4.522,0,0,1-.755,2.1,3.9,3.9,0,0,1-1.7,1.343,4.756,4.756,0,0,1-2.385.294,4.31,4.31,0,0,1-3.019-1.547,4.528,4.528,0,0,1,.687-6.082,4.867,4.867,0,0,1,6.339.755,4.16,4.16,0,0,1,.83,3.139m-1.23-.128a2.576,2.576,0,0,0-.641-2.083,3.214,3.214,0,0,0-2.181-1.049,3.262,3.262,0,0,0-2.354.536,2.708,2.708,0,0,0-.578,3.788c.042.057.086.113.133.167a3.721,3.721,0,0,0,4.528.513A2.574,2.574,0,0,0,93.445,419.632Z" transform="translate(-21.089 -101.834)"/><path d="M223.857,167.45l.86,1.109-2.46,1.894,6.528,8.475-1.215.936-6.528-8.482-2.468,1.9-.853-1.109Z" transform="translate(-53.422 -41.087)"/><path d="M238.276,168.675l.219.34-5.343,3.871a2.952,2.952,0,0,0,1.924,1.275,2.644,2.644,0,0,0,2-.521,2.564,2.564,0,0,0,.9-1.147,2.619,2.619,0,0,0,.121-1.472l1.253-.558a3.839,3.839,0,0,1-.106,2.317,3.9,3.9,0,0,1-1.426,1.856,4.108,4.108,0,0,1-3.154.83,5.011,5.011,0,0,1-3.773-5.2,4.015,4.015,0,0,1,1.736-2.709,3.773,3.773,0,0,1,2.936-.792,4.292,4.292,0,0,1,2.717,1.909m-4.973-.2a2.644,2.644,0,0,0-1.072,1.509,2.733,2.733,0,0,0,.294,1.932l4.105-2.973a2.53,2.53,0,0,0-1.622-.973A2.37,2.37,0,0,0,233.3,168.479Z" transform="translate(-56.65 -40.908)"/><path d="M242.35,162.722a2.483,2.483,0,0,1,.226-1.509,3.113,3.113,0,0,1,1.087-1.283l.792,1.155a2.786,2.786,0,0,0-1.268,1.622,2.628,2.628,0,0,0,.566,2.038l2.543,3.728-1.23.838-4.754-6.98,1.2-.815Z" transform="translate(-58.965 -39.242)"/><path d="M254.656,163.146a4.053,4.053,0,0,1-3.2.626,4.8,4.8,0,0,1-3.441-5.32,4.058,4.058,0,0,1,1.879-2.664,4.111,4.111,0,0,1,2.46-.709,3.73,3.73,0,0,1,2.309.951l-1.049.943a2.634,2.634,0,0,0-4.226,1.645,3.307,3.307,0,0,0,.6,2.332,3.25,3.25,0,0,0,1.879,1.509A2.679,2.679,0,0,0,255,160.9a2.542,2.542,0,0,0,.091-1.615l1.3-.566a3.722,3.722,0,0,1-.091,2.5,4.09,4.09,0,0,1-1.645,1.932" transform="translate(-60.842 -38.051)"/><path d="M256.669,148.438a1.005,1.005,0,0,1-1.373-.34.938.938,0,0,1-.106-.755.961.961,0,0,1,.453-.611.942.942,0,0,1,.755-.113.98.98,0,0,1,.768,1.155c0,.02-.008.04-.014.06a.95.95,0,0,1-.483.6m4.732,9.335-4.354-7.244,1.283-.755,4.354,7.244Z" transform="translate(-62.606 -35.967)"/><path d="M269.037,154.457a2.822,2.822,0,0,1-1.894.415,2.092,2.092,0,0,1-1.509-1.14,2.48,2.48,0,0,1-.347-1.072,1.994,1.994,0,0,1,.219-1.011,4.05,4.05,0,0,1,.626-.906,9.535,9.535,0,0,1,.958-.906l1.079-.875a.754.754,0,0,0,.266-1.034l-.009-.015a1.511,1.511,0,0,0-1.079-.83,2.446,2.446,0,0,0-2.317,1.313,1.6,1.6,0,0,0,.045,1.336l-1.306.423a2.6,2.6,0,0,1,0-2.1,3.992,3.992,0,0,1,1.705-1.668,4.78,4.78,0,0,1,1.132-.475,3.362,3.362,0,0,1,1.124-.1,2.09,2.09,0,0,1,1.087.43,3.345,3.345,0,0,1,.921,1.072l1.728,3.019a1.455,1.455,0,0,0,.6.664.852.852,0,0,0,.694-.128l.121-.068.528.928-.641.37a1.4,1.4,0,0,1-1.954-.2l-.06.038a3.223,3.223,0,0,1-1.721,2.52m-.3-1.215a2.265,2.265,0,0,0,1.17-1.607,3.32,3.32,0,0,0-.513-2.264l-1.728,1.509a3.018,3.018,0,0,0-.9,1.056,1.092,1.092,0,0,0,.083,1.019,1.078,1.078,0,0,0,.823.536,1.681,1.681,0,0,0,1.064-.249" transform="translate(-64.666 -35.776)"/><path d="M275.727,142.524a2.573,2.573,0,0,1,.392-1.509,3.145,3.145,0,0,1,1.215-1.155l.664,1.23a2.806,2.806,0,0,0-1.434,1.509,2.655,2.655,0,0,0,.347,2.09l2.136,3.977-1.313.7-3.992-7.448,1.283-.687Z" transform="translate(-67.167 -34.317)"/><path d="M279.971,135.445a.926.926,0,0,1-.755.06.988.988,0,0,1-.648-1.238l.007-.022a.95.95,0,0,1,.5-.581.966.966,0,0,1,.755-.06,1,1,0,0,1,.641,1.26.943.943,0,0,1-.5.581m4.075,9.637-3.841-7.546,1.328-.679,3.849,7.546Z" transform="translate(-68.34 -32.77)"/><path d="M293.393,141.605a4.445,4.445,0,0,1-2.181.46,3.768,3.768,0,0,1-2.038-.755,4.672,4.672,0,0,1-1.509-1.864,4.285,4.285,0,0,1-.294-3.388,4.528,4.528,0,0,1,5.524-2.634,4.852,4.852,0,0,1,2.739,5.758,4.16,4.16,0,0,1-2.241,2.422m-.543-1.117a2.6,2.6,0,0,0,1.434-1.638,3.306,3.306,0,0,0-.264-2.407,3.229,3.229,0,0,0-1.705-1.713,2.717,2.717,0,0,0-3.526,1.526c-.024.062-.047.124-.066.187a3.706,3.706,0,0,0,1.97,4.12,2.542,2.542,0,0,0,2.158-.075" transform="translate(-70.457 -32.689)"/><path d="M594.358,125.654l-.558,1.29-2.845-1.245-4.279,9.81-1.4-.611,4.286-9.81-2.852-1.245.558-1.283Z" transform="translate(-143.607 -30.072)"/><path d="M600.251,138.611l-.189.362-5.969-2.822a3.02,3.02,0,0,0-.189,2.264,2.634,2.634,0,0,0,1.419,1.509,2.54,2.54,0,0,0,1.441.234,2.593,2.593,0,0,0,1.343-.6l1.094.83a3.844,3.844,0,0,1-2.075,1.026,3.966,3.966,0,0,1-2.317-.362,4.074,4.074,0,0,1-2.264-2.362,4.383,4.383,0,0,1,.324-3.4,4.332,4.332,0,0,1,2.422-2.4,4.029,4.029,0,0,1,3.207.211,3.77,3.77,0,0,1,2.105,2.2,4.24,4.24,0,0,1-.355,3.32m-2.219-4.452a2.673,2.673,0,0,0-1.849-.211,2.748,2.748,0,0,0-1.509,1.2l4.581,2.158a2.534,2.534,0,0,0,.075-1.887,2.413,2.413,0,0,0-1.3-1.26" transform="translate(-145.342 -32.547)"/><path d="M607.457,139.182a2.555,2.555,0,0,1,1.449-.536,3.123,3.123,0,0,1,1.653.34l-.634,1.245a2.783,2.783,0,0,0-2.037-.324,2.594,2.594,0,0,0-1.509,1.509l-2.038,4.022-1.328-.672,3.826-7.546,1.29.657Z" transform="translate(-147.959 -33.669)"/><path d="M612.993,150.309a4.058,4.058,0,0,1-2.09-2.5,4.83,4.83,0,0,1,3.018-5.592,4.407,4.407,0,0,1,5.049,2.181,3.775,3.775,0,0,1,.279,2.483l-1.336-.46a2.53,2.53,0,0,0-.219-1.615,2.627,2.627,0,0,0-1.124-1.132,2.5,2.5,0,0,0-2.136-.158,3.773,3.773,0,0,0-2.151,4.007,2.477,2.477,0,0,0,1.306,1.683,2.536,2.536,0,0,0,3.019-.385l1.117.86a3.727,3.727,0,0,1-2.264,1.132,4.124,4.124,0,0,1-2.468-.506" transform="translate(-149.866 -34.858)"/><path d="M620.712,153.262l4.249-7.3,1.29.755-4.241,7.3Zm5.9-8.641a.96.96,0,0,1-.46-.619.937.937,0,0,1,.1-.755,1,1,0,0,1,1.826.249.968.968,0,0,1-.1.755.95.95,0,0,1-.611.46.936.936,0,0,1-.755-.091" transform="translate(-152.302 -35.026)"/><path d="M627.453,158.664a2.869,2.869,0,0,1-1.275-1.456,2.076,2.076,0,0,1,.279-1.856,2.4,2.4,0,0,1,.755-.823,1.931,1.931,0,0,1,.989-.3,4.173,4.173,0,0,1,1.094.113,8.522,8.522,0,0,1,1.26.423l1.283.521a.755.755,0,0,0,1.037-.251l.012-.02a1.509,1.509,0,0,0,.2-1.351,2.163,2.163,0,0,0-.936-1.041,2.261,2.261,0,0,0-1.328-.362,1.631,1.631,0,0,0-1.155.687l-1-.943a2.589,2.589,0,0,1,1.879-1.011,3.884,3.884,0,0,1,2.264.687,4.337,4.337,0,0,1,.966.755,3.236,3.236,0,0,1,.626.936,2.182,2.182,0,0,1,.151,1.162,3.575,3.575,0,0,1-.5,1.321l-1.826,2.973a1.452,1.452,0,0,0-.294.853.845.845,0,0,0,.453.543l.113.075-.558.913-.626-.385a1.411,1.411,0,0,1-.755-1.811h-.06a3.228,3.228,0,0,1-3.056-.347m.921-.845a2.263,2.263,0,0,0,1.97.249,3.375,3.375,0,0,0,1.758-1.509l-2.136-.8a3.016,3.016,0,0,0-1.358-.287,1.094,1.094,0,0,0-.845.566,1.073,1.073,0,0,0-.136,1,1.742,1.742,0,0,0,.747.777" transform="translate(-153.618 -37.048)"/><path d="M641.113,158.66a2.548,2.548,0,0,1,1.509-.377,3.109,3.109,0,0,1,1.6.513l-.755,1.17a2.768,2.768,0,0,0-1.985-.543,2.627,2.627,0,0,0-1.66,1.313l-2.46,3.773-1.26-.823,4.6-7.086,1.222.792Z" transform="translate(-156.079 -38.425)"/><path d="M642.532,166.986l4.739-7,1.245.838-4.747,7Zm6.482-8.218a.95.95,0,0,1-.423-.641.965.965,0,0,1,.158-.755,1.011,1.011,0,1,1,.3,1.381Z" transform="translate(-157.656 -38.502)"/><path d="M650.506,173.888a4.434,4.434,0,0,1-1.456-1.69,3.863,3.863,0,0,1-.347-2.136,4.785,4.785,0,0,1,.906-2.226,4.363,4.363,0,0,1,2.83-1.887,4.528,4.528,0,0,1,4.973,3.569,4.852,4.852,0,0,1-3.728,5.177,4.119,4.119,0,0,1-3.177-.807m.709-1.011a2.611,2.611,0,0,0,2.128.46,3.653,3.653,0,0,0,2.664-3.705,2.576,2.576,0,0,0-1.117-1.871,2.534,2.534,0,0,0-2.113-.453,3.3,3.3,0,0,0-1.97,1.4,3.252,3.252,0,0,0-.694,2.309,2.582,2.582,0,0,0,1.079,1.864Z" transform="translate(-159.163 -40.71)"/><path d="M807.781,427.287l-1.381.159-.3-3.086-10.655,1.056-.151-1.509,10.655-1.056-.309-3.094,1.4-.136Z" transform="translate(-195.139 -102.961)"/><path d="M800.839,438.748h-.407l-.453-6.58a3.019,3.019,0,0,0-2.105.951,2.678,2.678,0,0,0-.611,1.977,2.426,2.426,0,0,0,.5,1.366,2.571,2.571,0,0,0,1.177.883l-.189,1.358a3.833,3.833,0,0,1-1.909-1.313,3.981,3.981,0,0,1-.815-2.2,4.107,4.107,0,0,1,.966-3.117,5.01,5.01,0,0,1,6.407-.438,4.046,4.046,0,0,1,1.381,2.905,3.774,3.774,0,0,1-.883,2.905,4.3,4.3,0,0,1-3.056,1.3m2.8-4.113a2.7,2.7,0,0,0-.717-1.713,2.749,2.749,0,0,0-1.8-.755l.355,5.049a2.5,2.5,0,0,0,1.683-.853,2.393,2.393,0,0,0,.483-1.728" transform="translate(-195.312 -105.676)"/><path d="M803.725,445.819a2.508,2.508,0,0,1,1.177,1,3.074,3.074,0,0,1,.513,1.6l-1.4.06a2.792,2.792,0,0,0-.709-1.939,2.658,2.658,0,0,0-2.03-.6l-4.528.189-.06-1.509,8.437-.347.06,1.456Z" transform="translate(-195.482 -109.012)"/><path d="M796.861,455.6a4.054,4.054,0,0,1,1.162-3.019,4.316,4.316,0,0,1,3.154-1.253,4.209,4.209,0,0,1,3.751,6.611,3.771,3.771,0,0,1-2.03,1.456l-.249-1.388a2.527,2.527,0,0,0,1.3-.981,2.606,2.606,0,0,0,.445-1.509,2.489,2.489,0,0,0-.906-1.939,3.252,3.252,0,0,0-2.264-.755,3.307,3.307,0,0,0-2.264.8,2.506,2.506,0,0,0-.83,1.97,2.544,2.544,0,0,0,1.819,2.46l-.211,1.4a3.726,3.726,0,0,1-2.068-1.4,4.1,4.1,0,0,1-.807-2.445" transform="translate(-195.523 -110.739)"/><path d="M797.072,464.837l8.452.136v1.509l-8.452-.136Zm10.422.921a.975.975,0,0,1,.309-.7.99.99,0,0,1,.755-.287.975.975,0,0,1,.7.309,1.009,1.009,0,0,1,.279.717,1.018,1.018,0,0,1-1.019.981,1.019,1.019,0,0,1-.989-1.019Z" transform="translate(-195.575 -114.039)"/><path d="M796.662,472.506a2.869,2.869,0,0,1,.649-1.834,2.089,2.089,0,0,1,1.758-.657,2.435,2.435,0,0,1,1.094.272,1.95,1.95,0,0,1,.755.755,4.161,4.161,0,0,1,.438,1.011,9.039,9.039,0,0,1,.257,1.3l.166,1.373c.075.5.324.755.755.755a1.511,1.511,0,0,0,1.283-.483,2.153,2.153,0,0,0,.445-1.321,2.2,2.2,0,0,0-.332-1.336,1.638,1.638,0,0,0-1.162-.672l.332-1.328a2.558,2.558,0,0,1,1.766,1.124,3.919,3.919,0,0,1,.521,2.324,4.727,4.727,0,0,1-.2,1.223,3.442,3.442,0,0,1-.513,1,2.154,2.154,0,0,1-.936.694,3.386,3.386,0,0,1-1.4.2l-3.494-.128a1.446,1.446,0,0,0-.883.158.829.829,0,0,0-.257.657v.136h-1.079v-.755a1.382,1.382,0,0,1,1.207-1.555v-.068a3.237,3.237,0,0,1-1.177-2.853m1.192.385a2.265,2.265,0,0,0,.755,1.849,3.4,3.4,0,0,0,2.211.755l-.347-2.264a3.019,3.019,0,0,0-.415-1.328,1.238,1.238,0,0,0-1.74-.189c-.038.031-.074.064-.109.1a1.744,1.744,0,0,0-.355,1.079" transform="translate(-195.467 -115.323)"/><path d="M803.245,484.749a2.509,2.509,0,0,1,1.064,1.117,3.077,3.077,0,0,1,.34,1.653l-1.4-.091a2.807,2.807,0,0,0-.5-2,2.6,2.6,0,0,0-1.955-.807l-4.528-.3.1-1.509,8.429.558-.1,1.449Z" transform="translate(-195.379 -118.466)"/><path d="M795.84,490.53l8.414.755-.121,1.509-8.422-.755Zm10.331,1.645a.971.971,0,0,1,.355-.687,1.008,1.008,0,0,1,.755-.234.942.942,0,0,1,.679.355,1.008,1.008,0,0,1,.234.755.973.973,0,0,1-.355.679.951.951,0,0,1-.755.234.972.972,0,0,1-.687-.355A1,1,0,0,1,806.171,492.175Z" transform="translate(-195.242 -120.36)"/><path d="M794.619,499.812a4.4,4.4,0,0,1,.755-2.09,3.769,3.769,0,0,1,1.69-1.343,4.683,4.683,0,0,1,2.385-.3,4.308,4.308,0,0,1,3.018,1.509,4.528,4.528,0,0,1-.687,6.082,4.83,4.83,0,0,1-6.331-.755,4.128,4.128,0,0,1-.83-3.1m1.23.128a2.6,2.6,0,0,0,.641,2.083,3.668,3.668,0,0,0,4.528.513,2.708,2.708,0,0,0,.578-3.787c-.042-.057-.086-.113-.133-.167a3.721,3.721,0,0,0-4.528-.513,2.574,2.574,0,0,0-1.087,1.871" transform="translate(-194.964 -121.711)"/><path d="M654.23,758.5l-.815-1.139,2.52-1.811L649.7,746.86l1.245-.891,6.233,8.693,2.528-1.811.815,1.14Z" transform="translate(-159.416 -183.037)"/><path d="M640.59,758l-.211-.347,5.471-3.683a3.019,3.019,0,0,0-1.871-1.343,2.662,2.662,0,0,0-2.022.453,2.538,2.538,0,0,0-.936,1.117,2.6,2.6,0,0,0-.174,1.464l-1.268.513a3.771,3.771,0,0,1,.181-2.309,3.965,3.965,0,0,1,1.509-1.8,4.068,4.068,0,0,1,3.177-.755,4.416,4.416,0,0,1,2.762,2.022,4.355,4.355,0,0,1,.823,3.305,4.043,4.043,0,0,1-1.826,2.656,3.835,3.835,0,0,1-2.958.687A4.282,4.282,0,0,1,640.59,758m4.958.37a2.621,2.621,0,0,0,1.124-1.509,2.679,2.679,0,0,0-.234-1.939l-4.2,2.83a2.514,2.514,0,0,0,1.585,1.026,2.378,2.378,0,0,0,1.721-.408" transform="translate(-156.906 -184.33)"/><path d="M637.24,763.643a2.543,2.543,0,0,1-.279,1.509,3.2,3.2,0,0,1-1.132,1.245l-.755-1.185a2.778,2.778,0,0,0,1.321-1.577,2.606,2.606,0,0,0-.5-2.053l-2.415-3.818,1.26-.755,4.528,7.139-1.223.755Z" transform="translate(-155.436 -185.745)"/><path d="M624.02,762.97a4.053,4.053,0,0,1,3.215-.513A4.815,4.815,0,0,1,630.5,767.9a4.392,4.392,0,0,1-4.46,3.215,3.684,3.684,0,0,1-2.264-1.034l1.079-.906a2.576,2.576,0,0,0,1.509.641,2.617,2.617,0,0,0,1.509-.385,2.49,2.49,0,0,0,1.23-1.751,3.773,3.773,0,0,0-2.332-3.909,2.638,2.638,0,0,0-3.343,3.071l-1.313.513a3.775,3.775,0,0,1,.174-2.5,4.122,4.122,0,0,1,1.728-1.887" transform="translate(-152.614 -187.05)"/><path d="M617.515,767.32l4.1,7.38-1.306.755-4.105-7.388Zm4.4,9.486a.956.956,0,0,1,.755-.083.987.987,0,0,1,.687,1.23.989.989,0,0,1-1.22.682l-.01,0a.935.935,0,0,1-.6-.468.98.98,0,0,1-.091-.755.958.958,0,0,1,.475-.6" transform="translate(-151.196 -188.275)"/><path d="M608.959,771.064a2.863,2.863,0,0,1,1.909-.347,2.091,2.091,0,0,1,1.449,1.192,2.487,2.487,0,0,1,.309,1.087,1.949,1.949,0,0,1-.249,1,4.465,4.465,0,0,1-.656.891,9.569,9.569,0,0,1-1,.868l-1.1.83a.755.755,0,0,0-.314,1.02l.012.021a1.508,1.508,0,0,0,1.057.868,2.132,2.132,0,0,0,1.366-.264,2.26,2.26,0,0,0,1-.958,1.658,1.658,0,0,0,0-1.343l1.321-.377a2.612,2.612,0,0,1-.1,2.1,3.9,3.9,0,0,1-1.751,1.607,4.978,4.978,0,0,1-1.155.438,3.539,3.539,0,0,1-1.124.06,2.151,2.151,0,0,1-1.072-.468,3.33,3.33,0,0,1-.883-1.109l-1.585-3.086a1.451,1.451,0,0,0-.581-.687.839.839,0,0,0-.694.106l-.128.068-.5-.951.656-.347a1.418,1.418,0,0,1,1.947.264h.06a3.214,3.214,0,0,1,1.8-2.475m.257,1.23a2.264,2.264,0,0,0-1.223,1.562,3.31,3.31,0,0,0,.43,2.3l1.773-1.426a2.943,2.943,0,0,0,.943-1.026,1.08,1.08,0,0,0-.053-1.011,1.094,1.094,0,0,0-.792-.634A1.716,1.716,0,0,0,609.216,772.294Z" transform="translate(-148.323 -189.099)"/><path d="M603.383,782.65a2.6,2.6,0,0,1-.438,1.509,3.152,3.152,0,0,1-1.268,1.117l-.611-1.253a2.8,2.8,0,0,0,1.509-1.434,2.625,2.625,0,0,0-.272-2.09l-1.992-4.052,1.336-.657,3.728,7.546-1.306.641Z" transform="translate(-147.297 -190.353)"/><path d="M594.663,779.11l3.585,7.652-1.358.634-3.577-7.622Zm3.773,9.81a.958.958,0,0,1,.755-.038,1.006,1.006,0,0,1,.573.521.956.956,0,0,1,0,.755,1,1,0,0,1-1.849.083.99.99,0,0,1,0-.755.952.952,0,0,1,.491-.6Z" transform="translate(-145.579 -191.168)"/><path d="M584.543,783.15a4.379,4.379,0,0,1,2.2-.385,3.773,3.773,0,0,1,2.015.8,4.744,4.744,0,0,1,1.449,1.909,4.31,4.31,0,0,1,.166,3.4,4.528,4.528,0,0,1-5.607,2.437,4.867,4.867,0,0,1-2.543-5.848,4.15,4.15,0,0,1,2.324-2.317m.506,1.132a2.587,2.587,0,0,0-1.509,1.592,3.66,3.66,0,0,0,1.819,4.181,2.716,2.716,0,0,0,3.578-1.4c.027-.062.051-.124.074-.187a3.246,3.246,0,0,0-.189-2.4,3.282,3.282,0,0,0-1.638-1.788,2.568,2.568,0,0,0-2.158,0Z" transform="translate(-142.802 -192.061)"/><rect width="0.755" height="62.921" transform="translate(262.394 73.531) rotate(-15.008)"/><rect width="65.215" height="0.754" transform="translate(393.405 134.131) rotate(-73.79)"/><rect width="63.545" height="0.758" transform="translate(62.874 423.077) rotate(-15.005)"/><rect width="59.782" height="0.755" transform="matrix(0.727, -0.687, 0.687, 0.727, 136.021, 545.587)"/><rect width="0.755" height="63.676" transform="translate(550.258 405.912) rotate(-74.992)"/><rect width="0.755" height="66.393" transform="translate(492.772 505.151) rotate(-46.46)"/><path d="M767.945,164.4a8.53,8.53,0,0,1-1.69-2.709,7.323,7.323,0,0,1-.513-2.913,7.139,7.139,0,0,1,.755-2.9,8.667,8.667,0,0,1,2.022-2.641,8.352,8.352,0,0,1,3.773-2.053,6.92,6.92,0,0,1,3.939.219,8.408,8.408,0,0,1,3.434,2.354,8.215,8.215,0,0,1,2.113,4.188,6.792,6.792,0,0,1-.687,4.354l-2.815-1.509a4.223,4.223,0,0,0,.43-2.626,4.754,4.754,0,0,0-1.223-2.46,4.526,4.526,0,0,0-3.26-1.592A5.63,5.63,0,0,0,768.85,159a4.528,4.528,0,0,0,1.26,3.4,4.657,4.657,0,0,0,2.332,1.449,4.191,4.191,0,0,0,2.656-.174l1.2,2.943a6.85,6.85,0,0,1-4.407.264,8.094,8.094,0,0,1-3.947-2.475" transform="translate(-187.887 -37.051)"/><path d="M783.629,183.853l1.743-2.883-4.105-5-3.169,1.155-2.075-2.528,15.508-5.4,2.483,3.019-8.3,14.172Zm.3-8.859,2.913,3.554,3.6-5.924Zm14.293-4.415-3.773-.06-1.2-1.456,4.807-.332Z" transform="translate(-190.41 -41.401)"/><path d="M794.728,192.26l2.92,3.856-2.264,1.705-4.852-6.4,12.285-9.312,1.932,2.551Z" transform="translate(-193.971 -44.684)"/><path d="M798.792,202.574l12.648-8.814,1.826,2.626L800.618,205.2Z" transform="translate(-195.997 -47.542)"/><path d="M804.232,210.27l12.829-8.55,3.1,4.641a8.659,8.659,0,0,1,1.321,2.981,5.9,5.9,0,0,1,0,2.792,6.859,6.859,0,0,1-1.26,2.483,10.99,10.99,0,0,1-5.245,3.494,6.745,6.745,0,0,1-2.777.211,5.9,5.9,0,0,1-2.588-1.041,8.581,8.581,0,0,1-2.264-2.37Zm4.128,1.094,1.23,1.849a3.774,3.774,0,0,0,2.777,1.894,6.943,6.943,0,0,0,6.037-4.03,3.771,3.771,0,0,0-.687-3.29l-1.23-1.841Z" transform="translate(-197.332 -49.495)"/><path d="M819.715,234.435a8.428,8.428,0,0,1-1.245-3.969,7.074,7.074,0,0,1,.943-3.841,8.458,8.458,0,0,1,3.064-3.019,8.339,8.339,0,0,1,4.12-1.268,6.965,6.965,0,0,1,3.818.989,8.494,8.494,0,0,1,2.905,3.019,8.4,8.4,0,0,1,1.245,3.962,6.936,6.936,0,0,1-.936,3.826,8.3,8.3,0,0,1-3.071,3.019,8.42,8.42,0,0,1-4.113,1.268,7.015,7.015,0,0,1-3.826-.989,8.3,8.3,0,0,1-2.905-3m1.954-5.086a4.878,4.878,0,0,0,3.456,5.788,5.66,5.66,0,0,0,6.241-3.728,4.9,4.9,0,0,0-3.456-5.788,5.652,5.652,0,0,0-6.241,3.728" transform="translate(-200.824 -54.554)"/><path d="M830.017,252.872a7.406,7.406,0,0,1-.973-4.332,4.717,4.717,0,0,1,1.924-3.388l2.264,2.558a2.777,2.777,0,0,0-1.238,1.811,3.391,3.391,0,0,0,.423,2.264,2.738,2.738,0,0,0,1.215,1.26,1.577,1.577,0,0,0,1.509-.1,1.509,1.509,0,0,0,.755-1.019,3.674,3.674,0,0,0,.106-1.283c-.053-.377-.151-.981-.317-1.8,0-.113,0-.189-.045-.241q-.113-.626-.181-1.019c-.045-.257-.083-.581-.121-.981a5.7,5.7,0,0,1,.113-1.917,3.011,3.011,0,0,1,.332-.883,4.011,4.011,0,0,1,.6-.755,4.262,4.262,0,0,1,.9-.657,4.161,4.161,0,0,1,2.483-.506,4.365,4.365,0,0,1,2.264.981,7.065,7.065,0,0,1,1.766,2.2,9.164,9.164,0,0,1,.755,1.879,7.15,7.15,0,0,1,.241,1.909,4.4,4.4,0,0,1-.445,1.864,4.75,4.75,0,0,1-1.268,1.607l-2.136-2.37a2.506,2.506,0,0,0,.643-3.484l0,0a3.1,3.1,0,0,0-1.207-1.306,1.509,1.509,0,0,0-1.509.053,1.562,1.562,0,0,0-.679,1.63,17.115,17.115,0,0,0,.362,2.264c.091.43.151.755.2,1.057s.1.626.136,1.049a7.15,7.15,0,0,1,.045,1.079,8.1,8.1,0,0,1-.113.973,3.3,3.3,0,0,1-.355.973,4.037,4.037,0,0,1-.641.815,3.911,3.911,0,0,1-.966.717,4.62,4.62,0,0,1-1.683.543,3.66,3.66,0,0,1-1.555-.128,4.731,4.731,0,0,1-1.4-.694,6.115,6.115,0,0,1-1.207-1.132,9.076,9.076,0,0,1-1-1.5" transform="translate(-203.414 -59.346)"/><path d="M674.145,107.436A334,334,0,0,0,448.412,17.009V13.99A336.981,336.981,0,0,1,676.175,105.3Z" transform="translate(-110.026 -3.433)"/><path d="M457.661,0l2.007,2.256-11.146,9.863,10.655,10.4-2.113,2.158L444.092,12.014Z" transform="translate(-108.966)"/><path d="M836.511,581.106l-2.649-1.449a335.81,335.81,0,0,0,14.632-290.73l2.785-1.177a338.874,338.874,0,0,1-14.768,293.356" transform="translate(-204.602 -70.604)"/><path d="M849.181,667.521l-.974-2.86-14.081,4.815-3.773-14.406-2.92.77,4.6,17.538Z" transform="translate(-203.025 -160.733)"/><path d="M367.487,872.508A337.487,337.487,0,0,1,120.232,764.98l2.2-2.06A335.765,335.765,0,0,0,412.4,866.471l.407,3.019a337.7,337.7,0,0,1-45.323,3.018" transform="translate(-29.501 -187.196)"/><path d="M495.007,912.018l-2.324-1.924,9.523-11.44-12.1-8.663,1.766-2.46,14.738,10.557Z" transform="translate(-120.255 -217.771)"/><path d="M33.809,569.516A339.087,339.087,0,0,1,21.063,304.27l2.83,1.049A336.09,336.09,0,0,0,36.526,568.18Z" transform="translate(0 -74.658)"/><path d="M9.932,309.166l1.373,2.694,13.251-6.784,5.8,13.712,2.785-1.185L26.074,300.91Z" transform="translate(-2.437 -73.833)"/><path d="M91.7,742.134l3.72,4.528,2.709-2.219-3.215-3.917,2.151-1.766,3.215,3.917,4.882-4.007,2.045,2.49-11.916,9.81-5.765-7.026Z" transform="translate(-21.966 -181.245)"/><path d="M92.758,720.4l-2.981,7.3.558.755,5.411-4.1,1.932,2.551-12.285,9.312-3.373-4.46a6.41,6.41,0,0,1-1.072-2,3.773,3.773,0,0,1-.143-1.834,4.139,4.139,0,0,1,.626-1.577,5.192,5.192,0,0,1,1.26-1.321,3.772,3.772,0,0,1,2.528-.86,4.186,4.186,0,0,1,2.52,1.124l2.732-7.893Zm-7.184,11.644,2.936-2.264-1.139-1.509c-.966-1.275-1.939-1.509-2.913-.807a1.675,1.675,0,0,0-.755,1.29,2.841,2.841,0,0,0,.7,1.743Z" transform="translate(-19.814 -176.026)"/><path d="M87.221,714.131l-12.716,8.716-1.8-2.641L85.41,711.49Z" transform="translate(-17.839 -174.576)"/><path d="M77.055,698.419a8.3,8.3,0,0,1,1.411,3.917,6.962,6.962,0,0,1-.755,3.871,9.056,9.056,0,0,1-7,4.588,7.011,7.011,0,0,1-3.856-.83,8.448,8.448,0,0,1-3.019-2.86,8.3,8.3,0,0,1-1.419-3.909,7,7,0,0,1,.755-3.864,9.109,9.109,0,0,1,7-4.588,7.036,7.036,0,0,1,3.864.83,8.3,8.3,0,0,1,3.011,2.845m-1.736,5.169a4.875,4.875,0,0,0-3.7-5.637,5.652,5.652,0,0,0-6.075,3.984,4.9,4.9,0,0,0,3.7,5.637,5.652,5.652,0,0,0,6.075-3.984" transform="translate(-15.309 -170.463)"/><path d="M66.116,680.941a7.475,7.475,0,0,1,1.162,4.279,4.733,4.733,0,0,1-1.788,3.471l-2.332-2.468a2.792,2.792,0,0,0,1.155-1.864,3.351,3.351,0,0,0-.513-2.2,2.747,2.747,0,0,0-1.268-1.215,1.592,1.592,0,0,0-1.509.166,1.509,1.509,0,0,0-.7,1.049,3.578,3.578,0,0,0-.053,1.283c.06.385.2.981.392,1.789a.669.669,0,0,0,.053.234c.1.415.174.755.226,1.011s.106.581.158.973a6.38,6.38,0,0,1,.068,1,6.288,6.288,0,0,1-.1.921,3.023,3.023,0,0,1-.294.891,4.228,4.228,0,0,1-3.9,2.075,4.416,4.416,0,0,1-2.339-.83,7.151,7.151,0,0,1-1.856-2.128,8.352,8.352,0,0,1-.83-1.849,6.816,6.816,0,0,1-.324-1.894,4.356,4.356,0,0,1,.362-1.887,4.742,4.742,0,0,1,1.2-1.653l2.264,2.264a2.512,2.512,0,0,0-.491,3.517,3.019,3.019,0,0,0,1.26,1.245,1.508,1.508,0,0,0,1.509-.106,1.576,1.576,0,0,0,.6-1.66,16.1,16.1,0,0,0-.46-2.219c-.1-.43-.181-.755-.241-1.049s-.121-.619-.189-1.041a7.712,7.712,0,0,1-.083-1.079,7.335,7.335,0,0,1,.1-1,3.4,3.4,0,0,1,.309-.989,4.433,4.433,0,0,1,.611-.845,3.911,3.911,0,0,1,.936-.755,4.776,4.776,0,0,1,1.653-.619,3.852,3.852,0,0,1,1.562.068,4.975,4.975,0,0,1,1.426.634,6.264,6.264,0,0,1,1.253,1.079,9.046,9.046,0,0,1,1.011,1.4" transform="translate(-12.641 -166.289)"/></g></g></svg>