<svg xmlns="http://www.w3.org/2000/svg" xmlns:xlink="http://www.w3.org/1999/xlink" width="128.785" height="126.015" viewBox="0 0 128.785 126.015"><defs><filter id="a" x="0" y="0" width="128.785" height="126.015" filterUnits="userSpaceOnUse"><feOffset dy="3" input="SourceAlpha"/><feGaussianBlur stdDeviation="3" result="b"/><feFlood flood-opacity="0.161"/><feComposite operator="in" in2="b"/></filter></defs><g transform="translate(9 6)"><path d="M19.618,0H91.167a19.618,19.618,0,0,1,19.618,19.618V88.4a19.618,19.618,0,0,1-19.618,19.618H19.618A19.618,19.618,0,0,1,0,88.4V19.618A19.618,19.618,0,0,1,19.618,0" fill="#001e36"/><path d="M111.361,171.06V123.571c0-.346.149-.52.446-.52.792,0,1.515-.012,2.605-.037s2.266-.049,3.53-.074,2.6-.049,4.013-.074,2.812-.037,4.2-.037a27.914,27.914,0,0,1,9.513,1.412,16.508,16.508,0,0,1,6.206,3.79,14.536,14.536,0,0,1,3.381,5.24,17.377,17.377,0,0,1,1.041,5.983,16.509,16.509,0,0,1-2.75,9.81,15.537,15.537,0,0,1-7.432,5.611,29.608,29.608,0,0,1-10.4,1.56q-1.636,0-2.3-.037t-2.006-.037v14.828a.591.591,0,0,1-.5.669.58.58,0,0,1-.167,0h-8.848C111.534,171.655,111.361,171.458,111.361,171.06ZM121.4,131.969v15.489q.965.075,1.784.074h2.452a17.431,17.431,0,0,0,5.314-.848,8.013,8.013,0,0,0,3.79-2.452,7.134,7.134,0,0,0,1.449-4.756,7.515,7.515,0,0,0-1.078-4.088,6.929,6.929,0,0,0-3.233-2.638,13.773,13.773,0,0,0-5.425-.929q-1.784,0-3.159.037T121.4,131.969Z" transform="translate(-86.415 -95.313)" fill="#31a8ff"/><path d="M312.679,184.161a17.368,17.368,0,0,0-4.422-1.561,23.484,23.484,0,0,0-5.165-.595,9.616,9.616,0,0,0-2.787.335,2.5,2.5,0,0,0-1.449.929,2.339,2.339,0,0,0-.371,1.263,1.973,1.973,0,0,0,.446,1.189,5.059,5.059,0,0,0,1.561,1.226,31.141,31.141,0,0,0,3.27,1.523,32.4,32.4,0,0,1,7.1,3.381,10.793,10.793,0,0,1,3.642,3.827,10.206,10.206,0,0,1,1.078,4.757,10.684,10.684,0,0,1-1.784,6.131,11.733,11.733,0,0,1-5.165,4.125,20.8,20.8,0,0,1-8.361,1.487,30.25,30.25,0,0,1-6.28-.595,20.036,20.036,0,0,1-4.719-1.486.962.962,0,0,1-.52-.892V201.18a.436.436,0,0,1,.186-.409.361.361,0,0,1,.409.037,19.853,19.853,0,0,0,5.723,2.267,23.6,23.6,0,0,0,5.425.706,8.333,8.333,0,0,0,3.827-.669,2.1,2.1,0,0,0,1.226-1.932,2.458,2.458,0,0,0-1.115-1.858,18.406,18.406,0,0,0-4.533-2.155,27.313,27.313,0,0,1-6.577-3.344,11.342,11.342,0,0,1-3.493-3.9,10.249,10.249,0,0,1-1.077-4.719,10.653,10.653,0,0,1,1.561-5.574,11.341,11.341,0,0,1,4.831-4.236,18.218,18.218,0,0,1,8.175-1.635,36.186,36.186,0,0,1,5.722.409,15,15,0,0,1,3.984,1.078.678.678,0,0,1,.446.409,2.058,2.058,0,0,1,.075.558v7.506a.5.5,0,0,1-.223.446.718.718,0,0,1-.64,0" transform="translate(-224.064 -134.833)" fill="#31a8ff"/><g transform="matrix(1, 0, 0, 1, -9, -6)" filter="url(#a)"><path d="M0,0H110.785V108.015H0Z" transform="translate(9 6)" fill="#fff"/></g></g></svg>