<svg xmlns="http://www.w3.org/2000/svg" xmlns:xlink="http://www.w3.org/1999/xlink" width="575.7" height="542.037" viewBox="0 0 575.7 542.037"><defs><clipPath id="a"><rect width="575.7" height="542.037" fill="none"/></clipPath></defs><g clip-path="url(#a)"><path d="M366.6,68.5c11.653,0,21.1,3.895,21.1,8.7s-9.447,8.7-21.1,8.7-21.1-3.9-21.1-8.7,9.447-8.7,21.1-8.7" fill="#fff"/><ellipse cx="21.1" cy="8.7" rx="21.1" ry="8.7" transform="translate(345.5 68.5)" fill="none" stroke="#000" stroke-width="1"/><path d="M301.6,201.8a498.9,498.9,0,0,1,129.2,0v42a498.9,498.9,0,0,0-129.2,0Z" fill="#ae676b"/><path d="M301.6,201.8a498.9,498.9,0,0,1,129.2,0v42a498.9,498.9,0,0,0-129.2,0Z" fill="none" stroke="#000" stroke-width="1"/><path d="M157.3,283.7c0-18.9,14.8-36.4,39.9-50.6v42c-25.1,14.2-39.9,31.7-39.9,50.6Z" fill="#8e6fa1"/><path d="M157.3,283.7c0-18.9,14.8-36.4,39.9-50.6v42c-25.1,14.2-39.9,31.7-39.9,50.6Z" fill="none" stroke="#000" stroke-width="1"/><path d="M534.4,232.6c25.6,14.3,40.8,31.9,40.8,51.1v42c0-19.1-15.1-36.8-40.8-51.1Z" fill="#927830"/><path d="M534.4,232.6c25.6,14.3,40.8,31.9,40.8,51.1v42c0-19.1-15.1-36.8-40.8-51.1Z" fill="none" stroke="#000" stroke-width="1"/><path d="M430.8,201.8c41.9,5.6,78,16.5,103.6,30.8v42c-25.6-14.3-61.7-25.2-103.6-30.8Z" fill="#a86d4b"/><path d="M430.8,201.8c41.9,5.6,78,16.5,103.6,30.8v42c-25.6-14.3-61.7-25.2-103.6-30.8Z" fill="none" stroke="#000" stroke-width="1"/><path d="M197.2,233.1c25.7-14.5,62.1-25.6,104.5-31.3v42c-42.4,5.7-78.8,16.8-104.5,31.3Z" fill="#a66885"/><path d="M197.2,233.1c25.7-14.5,62.1-25.6,104.5-31.3v42c-42.4,5.7-78.8,16.8-104.5,31.3Z" fill="none" stroke="#000" stroke-width="1"/><path d="M157.3,283.7c0,19.1,15.1,36.8,40.8,51.1v42c-25.6-14.3-40.8-31.9-40.8-51.1Z" fill="#657bab"/><path d="M157.3,283.7c0,19.1,15.1,36.8,40.8,51.1v42c-25.6-14.3-40.8-31.9-40.8-51.1Z" fill="none" stroke="#000" stroke-width="1"/><path d="M387.7,161.9c-8.8,9.8-33.3,9.7-42.1,0V120.5c8.8,9.7,33.4,9.8,42.1,0Z" fill="#e8e8e8"/><path d="M387.7,161.9c-8.8,9.8-33.3,9.7-42.1,0V120.5c8.8,9.7,33.4,9.8,42.1,0Z" fill="none" stroke="#000" stroke-width="0.923"/><path d="M387.7,120.5c-8.8,9.8-33.3,9.7-42.1,0V79.1c8.8,9.6,33.4,9.8,42.1,0Z" fill="#fff"/><path d="M387.7,120.5c-8.8,9.8-33.3,9.7-42.1,0V79.1c8.8,9.6,33.4,9.8,42.1,0Z" fill="none" stroke="#000" stroke-width="0.923"/><path d="M387.7,203.3c-8.8,9.8-33.3,9.7-42.1,0V161.9c8.8,9.7,33.3,9.8,42.1,0Z" fill="#cbcbcb"/><path d="M387.7,203.3c-8.8,9.8-33.3,9.7-42.1,0V161.9c8.8,9.7,33.3,9.8,42.1,0Z" fill="none" stroke="#000" stroke-width="0.923"/><path d="M387.7,244.6c-8.8,9.7-33.3,9.7-42.1,0V203.2c8.9,9.7,33.3,9.8,42.1,0Z" fill="#b3b3b3"/><path d="M387.7,244.6c-8.8,9.7-33.3,9.7-42.1,0V203.2c8.9,9.7,33.3,9.8,42.1,0Z" fill="none" stroke="#000" stroke-width="0.923"/><path d="M387.7,286c-8.9,9.7-33.3,9.7-42.1,0V244.6c8.9,9.7,33.3,9.7,42.1,0Z" fill="#969696"/><path d="M387.7,286c-8.9,9.7-33.3,9.7-42.1,0V244.6c8.9,9.7,33.3,9.7,42.1,0Z" fill="none" stroke="#000" stroke-width="0.923"/><path d="M387.7,327.4c-8.9,9.7-33.3,9.7-42.1,0V286c8.9,9.7,33.3,9.7,42.1,0Z" fill="#7c7c7c"/><path d="M387.7,327.4c-8.9,9.7-33.3,9.7-42.1,0V286c8.9,9.7,33.3,9.7,42.1,0Z" fill="none" stroke="#000" stroke-width="0.923"/><path d="M387.7,368.8c-8.9,9.7-33.3,9.7-42.1,0V327.4c8.9,9.7,33.3,9.7,42.1,0Z" fill="#616161"/><path d="M387.7,368.8c-8.9,9.7-33.3,9.7-42.1,0V327.4c8.9,9.7,33.3,9.7,42.1,0Z" fill="none" stroke="#000" stroke-width="0.923"/><path d="M387.7,410.1c-8.9,9.7-33.3,9.8-42.1,0V368.7c8.9,9.7,33.3,9.7,42.1,0Z" fill="#464646"/><path d="M387.7,410.1c-8.9,9.7-33.3,9.8-42.1,0V368.7c8.9,9.7,33.3,9.7,42.1,0Z" fill="none" stroke="#000" stroke-width="0.923"/><path d="M387.7,451.5c-8.9,9.7-33.3,9.8-42.1,0V410.1c8.9,9.8,33.2,9.7,42.1,0Z" fill="#303030"/><path d="M387.7,451.5c-8.9,9.7-33.3,9.8-42.1,0V410.1c8.9,9.8,33.2,9.7,42.1,0Z" fill="none" stroke="#000" stroke-width="0.923"/><path d="M387.7,492.9c-8.9,9.6-33.2,9.8-42.1,0V451.5c8.9,9.8,33.2,9.6,42.1,0Z" fill="#1c1c1c"/><path d="M387.7,492.9c-8.9,9.6-33.2,9.8-42.1,0V451.5c8.9,9.8,33.2,9.6,42.1,0Z" fill="none" stroke="#000" stroke-width="0.923"/><path d="M387.7,534.3c-9,9.6-33.3,9.8-42.1,0V492.9c8.9,9.8,33.2,9.6,42.1,0Z"/><path d="M387.7,534.3c-9,9.6-33.3,9.8-42.1,0V492.9c8.9,9.8,33.2,9.6,42.1,0Z" fill="none" stroke="#000" stroke-width="0.923"/><path d="M.6,325.6C.6,359.1,27.1,390,71.9,415V373C27.1,348,.6,317.1.6,283.6v42" fill="#2e7cd6"/><path d="M.6,325.6C.6,359.1,27.1,390,71.9,415V373C27.1,348,.6,317.1.6,283.6Z" fill="none" stroke="#000" stroke-width="1"/><path d="M52.8,283.7c0,28.7,22.7,55.2,61.1,76.6v42L71.8,415.1v-42C27,348.1.5,317.2.5,283.7Z" fill="#2e7cd6"/><path d="M52.8,283.7c0,28.7,22.7,55.2,61.1,76.6v42L71.8,415.1v-42C27,348.1.5,317.2.5,283.7Z" fill="none" stroke="#000" stroke-width="1"/><path d="M105,283.7c0,23.9,18.9,46,51,63.8v42l-42,12.8v-42c-38.4-21.4-61.1-47.9-61.1-76.6Z" fill="#487bc7"/><path d="M105,283.7c0,23.9,18.9,46,51,63.8v42l-42,12.8v-42c-38.4-21.4-61.1-47.9-61.1-76.6Z" fill="none" stroke="#000" stroke-width="1"/><path d="M157.3,283.7c0,19.1,15.1,36.8,40.8,51.1v42L156,389.6v-42c-32-17.9-51-39.9-51-63.8Z" fill="#597bb9"/><path d="M157.3,283.7c0,19.1,15.1,36.8,40.8,51.1v42L156,389.6v-42c-32-17.9-51-39.9-51-63.8Z" fill="none" stroke="#000" stroke-width="1"/><path d="M209.5,283.7c0,14.3,11.4,27.6,30.6,38.3v42l-42,12.8v-42c-25.6-14.3-40.8-31.9-40.8-51.1Z" fill="#657bab"/><path d="M209.5,283.7c0,14.3,11.4,27.6,30.6,38.3v42l-42,12.8v-42c-25.6-14.3-40.8-31.9-40.8-51.1Z" fill="none" stroke="#000" stroke-width="1"/><path d="M282.1,351.2v-42c-12.8-7.1-20.4-16-20.4-25.5H209.5c0,14.3,11.4,27.6,30.6,38.3v42Z" fill="#6f7a9c"/><path d="M282.1,351.2v-42c-12.8-7.1-20.4-16-20.4-25.5H209.5c0,14.3,11.4,27.6,30.6,38.3v42Z" fill="none" stroke="#000" stroke-width="1"/><path d="M282.1,351.2l42-12.8v-42c-6.4-3.6-10.2-8-10.2-12.8H261.7c0,9.6,7.6,18.4,20.4,25.5Z" fill="#787a8e"/><path d="M282.1,351.2l42-12.8v-42c-6.4-3.6-10.2-8-10.2-12.8H261.7c0,9.6,7.6,18.4,20.4,25.5Z" fill="none" stroke="#000" stroke-width="1"/><path d="M349.3,288.8v42l-25.1,7.6v-42c-6.4-3.6-10.2-8-10.2-12.8h31.5c-.1,2.2,2.2,4.1,3.8,5.2" fill="#7c7c7c"/><path d="M349.3,288.8v42l-25.1,7.6v-42c-6.4-3.6-10.2-8-10.2-12.8h31.5C345.4,285.8,347.7,287.7,349.3,288.8Z" fill="none" stroke="#000" stroke-width="1"/><line x1="277.4" y2="84.2" transform="translate(71.9 288.8)" fill="none" stroke="#000" stroke-width="1"/><path d="M430.8,365.5a491.5,491.5,0,0,1-64.6,4.2,493.8,493.8,0,0,1-64.6-4.2v42a491.5,491.5,0,0,0,64.6,4.2,493.8,493.8,0,0,0,64.6-4.2Z" fill="#2d8788"/><path d="M430.8,365.5a491.5,491.5,0,0,1-64.6,4.2,493.8,493.8,0,0,1-64.6-4.2v42a491.5,491.5,0,0,0,64.6,4.2,493.8,493.8,0,0,0,64.6-4.2Z" fill="none" stroke="#000" stroke-width="1"/><path d="M535.3,334.3c-25.7,14.5-62.1,25.6-104.5,31.3v42c42.4-5.7,78.8-16.8,104.5-31.3Z" fill="#42886d"/><path d="M535.3,334.3c-25.7,14.5-62.1,25.6-104.5,31.3v42c42.4-5.7,78.8-16.8,104.5-31.3Z" fill="none" stroke="#000" stroke-width="1"/><path d="M575.2,283.7c0,18.9-14.8,36.4-39.9,50.6v42c25.1-14.2,39.9-31.7,39.9-50.6Z" fill="#72823d"/><path d="M575.2,283.7c0,18.9-14.8,36.4-39.9,50.6v42c25.1-14.2,39.9-31.7,39.9-50.6Z" fill="none" stroke="#000" stroke-width="1"/><path d="M301.6,365.5c-41.9-5.6-78-16.5-103.6-30.8v42c25.6,14.3,61.7,25.2,103.6,30.8Z" fill="#3584a2"/><path d="M301.6,365.5c-41.9-5.6-78-16.5-103.6-30.8v42c25.6,14.3,61.7,25.2,103.6,30.8Z" fill="none" stroke="#000" stroke-width="1"/><line x2="36" y2="32" transform="translate(142.8 238.8)" fill="none" stroke="#000" stroke-width="1"/><line x2="29" y2="46" transform="translate(216.8 189.8)" fill="none" stroke="#000" stroke-width="1"/><line x2="16" y2="37" transform="translate(315.8 180.8)" fill="none" stroke="#000" stroke-width="1"/><line x2="10" y2="75" transform="translate(467.8 160.8)" fill="none" stroke="#000" stroke-width="1"/><line x2="22" y2="69" transform="translate(532.8 200.8)" fill="none" stroke="#000" stroke-width="1"/><line y1="45" x2="12" transform="translate(230.4 379.4)" fill="none" stroke="#000" stroke-width="1"/><line y1="66" x2="57" transform="translate(294.9 392.9)" fill="none" stroke="#000" stroke-width="1"/><line x2="26.4" y2="15.1" transform="translate(520.5 311.8)" fill="none" stroke="#000" stroke-width="1"/><line x2="35.2" y2="36" transform="translate(495.2 370.4)" fill="none" stroke="#000" stroke-width="1"/><line y1="59" x2="2" transform="translate(136.8 375.8)" fill="none" stroke="#000" stroke-width="1"/><path d="M336.2,320.7c-2.5,0-4.3-2.4-4.3-6.7,0-4.4,1.9-6.8,4.5-6.8,2.7,0,4.3,2.4,4.3,6.6,0,4.4-1.6,6.9-4.5,6.9m.1-1.4c1.8,0,2.6-2.1,2.6-5.4,0-3.2-.8-5.3-2.6-5.3-1.6,0-2.6,2-2.6,5.3-.1,3.4.9,5.4,2.6,5.4"/><path d="M300.7,330.4v-1.1l1.4-1.3c3.3-3.2,4.8-4.8,4.8-6.8a2.288,2.288,0,0,0-2.6-2.5,4.5,4.5,0,0,0-2.8,1.1l-.6-1.2a6.1,6.1,0,0,1,3.7-1.3,3.67,3.67,0,0,1,4,3.8c0,2.4-1.7,4.3-4.5,7l-1,1h5.8v1.5Z"/><path d="M246.2,308.4v-3.5h-6v-1.1l5.8-8.3h1.9v8.1h1.8V305h-1.8v3.5Zm0-4.9v-4.3a12.749,12.749,0,0,1,.1-2h-.1a16,16,0,0,1-1.1,1.9l-3.2,4.4Z"/><path d="M200.1,303.3a6.151,6.151,0,0,0-1.3.1,5.182,5.182,0,0,0-4.5,4.6,3.936,3.936,0,0,1,3.2-1.5,3.866,3.866,0,0,1,3.9,4.2,4.337,4.337,0,0,1-4.3,4.6c-2.8,0-4.6-2.2-4.6-5.5a8.157,8.157,0,0,1,2.2-5.9,6.832,6.832,0,0,1,4.2-1.9,6.637,6.637,0,0,1,1.3-.1Zm-3,10.7c1.5,0,2.5-1.3,2.5-3.1,0-1.9-1.1-3-2.7-3a2.636,2.636,0,0,0-2.5,1.6,1.549,1.549,0,0,0-.2.8c.1,2.1,1.1,3.7,2.9,3.7"/><path d="M147.1,308.9c2.5,0,3.8,1.6,3.8,3.2a3.268,3.268,0,0,1-2.2,3v.1a3.6,3.6,0,0,1,2.6,3.4c0,2.3-1.9,3.8-4.4,3.8-2.7,0-4.4-1.6-4.4-3.5a3.817,3.817,0,0,1,2.6-3.5v-.1a3.187,3.187,0,0,1-2.1-2.9c0-2.1,1.8-3.5,4.1-3.5m-.1,12.2a2.349,2.349,0,0,0,2.6-2.3c0-1.6-1.1-2.3-2.9-2.8a2.825,2.825,0,0,0-2.3,2.7,2.364,2.364,0,0,0,2.6,2.4m0-10.9a2.106,2.106,0,0,0-2.3,2.1c0,1.3,1,2,2.5,2.4a2.651,2.651,0,0,0,2-2.4,1.969,1.969,0,0,0-2.2-2.1"/><path d="M90.2,316.8h0L87.9,318l-.3-1.3,2.8-1.5h1.5v13H90.2Z"/><path d="M100.8,328.3c-2.5,0-4.3-2.4-4.3-6.7,0-4.4,1.9-6.8,4.5-6.8,2.7,0,4.3,2.4,4.3,6.6,0,4.5-1.7,6.9-4.5,6.9m.1-1.3c1.8,0,2.6-2.1,2.6-5.4,0-3.2-.8-5.3-2.6-5.3-1.6,0-2.6,2-2.6,5.3-.1,3.3.9,5.4,2.6,5.4"/><path d="M41.5,324.8h0L39.2,326l-.3-1.3,2.8-1.5h1.5v13H41.5Z"/><path d="M48,336.1V335l1.4-1.3c3.3-3.2,4.8-4.8,4.8-6.8a2.288,2.288,0,0,0-2.6-2.5,4.5,4.5,0,0,0-2.8,1.1l-.6-1.2a6.1,6.1,0,0,1,3.7-1.3,3.67,3.67,0,0,1,4,3.8c0,2.4-1.7,4.3-4.5,7l-1,1h5.8v1.5Z"/><path d="M403.8,92.4h0l-2.3,1.2-.3-1.3,2.8-1.5h1.5v13h-1.7Z"/><path d="M414.4,104c-2.5,0-4.3-2.4-4.3-6.7,0-4.4,1.9-6.8,4.5-6.8,2.7,0,4.3,2.4,4.3,6.6,0,4.5-1.6,6.9-4.5,6.9m.1-1.4c1.8,0,2.6-2.1,2.6-5.4,0-3.2-.8-5.3-2.6-5.3-1.6,0-2.6,2-2.6,5.3-.1,3.4.9,5.4,2.6,5.4"/><path d="M404.4,173.6c2.5,0,3.8,1.6,3.8,3.2a3.268,3.268,0,0,1-2.2,3v.1a3.6,3.6,0,0,1,2.6,3.4c0,2.3-1.9,3.8-4.4,3.8-2.7,0-4.4-1.6-4.4-3.5a3.817,3.817,0,0,1,2.6-3.5V180a3.187,3.187,0,0,1-2.1-2.9c0-2.1,1.8-3.5,4.1-3.5m-.1,12.1a2.349,2.349,0,0,0,2.6-2.3c0-1.6-1.1-2.3-2.9-2.8a2.825,2.825,0,0,0-2.3,2.7,2.315,2.315,0,0,0,2.6,2.4m0-10.9a2.106,2.106,0,0,0-2.3,2.1c0,1.3,1,2,2.5,2.4a2.651,2.651,0,0,0,2-2.4,2.015,2.015,0,0,0-2.2-2.1"/><path d="M404.1,522c-2.5,0-4.3-2.4-4.3-6.7,0-4.4,1.9-6.8,4.5-6.8,2.7,0,4.3,2.4,4.3,6.6.1,4.5-1.6,6.9-4.5,6.9m.1-1.4c1.8,0,2.6-2.1,2.6-5.4,0-3.2-.8-5.3-2.6-5.3-1.6,0-2.6,2-2.6,5.3-.1,3.4,1,5.4,2.6,5.4"/><path d="M400,439.8v-1.1l1.4-1.3c3.3-3.2,4.8-4.8,4.8-6.8a2.288,2.288,0,0,0-2.6-2.5,4.5,4.5,0,0,0-2.8,1.1l-.6-1.2a6.1,6.1,0,0,1,3.7-1.3,3.669,3.669,0,0,1,4,3.8c0,2.4-1.7,4.3-4.5,7l-1,1h5.8V440Z"/><path d="M407.4,261a6.15,6.15,0,0,0-1.3.1,5.182,5.182,0,0,0-4.5,4.6,3.936,3.936,0,0,1,3.2-1.5,3.866,3.866,0,0,1,3.9,4.2,4.337,4.337,0,0,1-4.3,4.6c-2.8,0-4.6-2.2-4.6-5.5a8.157,8.157,0,0,1,2.2-5.9,6.832,6.832,0,0,1,4.2-1.9,6.637,6.637,0,0,1,1.3-.1Zm-3,10.6c1.5,0,2.5-1.3,2.5-3.1,0-1.9-1.1-3-2.7-3a2.636,2.636,0,0,0-2.5,1.6,1.549,1.549,0,0,0-.2.8c0,2.1,1,3.7,2.9,3.7"/><path d="M405.4,355.8v-3.6h-6v-1.1l5.8-8.3h1.9v8.1h1.8v1.4h-1.8v3.5Zm0-4.9v-4.4a12.749,12.749,0,0,1,.1-2h-.1a15.993,15.993,0,0,1-1.1,1.9l-3.2,4.4h4.3Z"/><path d="M407.8,302.8h-5l-.5,3.3c.3,0,.6-.1,1.1-.1a5.3,5.3,0,0,1,2.8.7,3.826,3.826,0,0,1,1.9,3.4,4.48,4.48,0,0,1-4.8,4.4,6.2,6.2,0,0,1-3.2-.8l.4-1.3a5.966,5.966,0,0,0,2.8.7,2.93,2.93,0,0,0,3.1-2.8c0-1.7-1.1-2.9-3.7-2.9-.8,0-1.3.1-1.8.1l.8-6.2h6.2Z"/><line y2="43" transform="translate(125.6 119)" fill="none" stroke="#14315d" stroke-width="1.5"/><path d="M125.6,168a30.7,30.7,0,0,0-4.8-8.5l4.8,1.7,4.8-1.7a32.214,32.214,0,0,0-4.8,8.5" fill="#14315d"/><line y2="103.5" transform="translate(125.6 6)" fill="none" stroke="#14315d" stroke-width="1.5"/><path d="M125.6,0a30.7,30.7,0,0,0,4.8,8.5l-4.8-1.7-4.8,1.7A27.465,27.465,0,0,0,125.6,0" fill="#14315d"/><path d="M131.3,55.1a158.351,158.351,0,0,1,21.4,2.1" fill="none" stroke="#0b3a18" stroke-width="1.5"/><path d="M158.7,58.2a31.528,31.528,0,0,0-9.2,3.3l2.5-4.4-.9-5a30.871,30.871,0,0,0,7.6,6.1" fill="#0b3a18"/><path d="M193.9,75a15.2,15.2,0,0,1,3.9,9.7c0,16.4-32.3,29.7-72.2,29.7S53.4,101.1,53.4,84.7c0-15.7,29.5-28.5,66.9-29.6" fill="none" stroke="#0b3a18" stroke-width="1.5"/><path d="M190,70.4a31.708,31.708,0,0,0,9.1,3.5l-4.7,1.7L191.9,80a32.1,32.1,0,0,0-1.9-9.6" fill="#0b3a18"/><line x1="87.5" y2="23.1" transform="translate(26.1 87.8)" fill="none" stroke="#591d24" stroke-width="1.5"/><path d="M20.3,112.4a30.622,30.622,0,0,0,7.1-6.8l-.5,5,2.9,4.2a33.15,33.15,0,0,0-9.5-2.4" fill="#591d24"/><path d="M119.4,86.3a30.622,30.622,0,0,0-7.1,6.8l.5-5-2.9-4.2a30.879,30.879,0,0,0,9.5,2.4" fill="#591d24"/><path d="M180.3,44.9v1.9h-4.2V61.5H174V46.8h-4.3V44.9Z"/><path d="M186,61.7a6.04,6.04,0,0,1-3-.7,5.3,5.3,0,0,1-2.1-2.1,6.6,6.6,0,0,1-.8-3.2,5.968,5.968,0,0,1,1.6-4.4,6.313,6.313,0,0,1,8.4,0,5.816,5.816,0,0,1,1.6,4.4,5.968,5.968,0,0,1-1.6,4.4,5.654,5.654,0,0,1-4.1,1.6m0-1.7a3.424,3.424,0,0,0,2.7-1.2,4.918,4.918,0,0,0,0-6.2,3.637,3.637,0,0,0-5.4,0,4.918,4.918,0,0,0,0,6.2A3.424,3.424,0,0,0,186,60"/><path d="M200.5,49.6a3.945,3.945,0,0,1,2.9,1,4.081,4.081,0,0,1,1.1,3v7.8h-2V54.1a2.817,2.817,0,0,0-.7-2.1,2.875,2.875,0,0,0-1.8-.7,3.227,3.227,0,0,0-2.1.8,3.293,3.293,0,0,0-.8,2.4v6.9h-2V49.9h2v1.5a3.7,3.7,0,0,1,3.4-1.8"/><path d="M213.3,61.7a6.04,6.04,0,0,1-3-.7,5.3,5.3,0,0,1-2.1-2.1,6.6,6.6,0,0,1-.8-3.2,5.968,5.968,0,0,1,1.6-4.4,6.312,6.312,0,0,1,8.4,0,5.816,5.816,0,0,1,1.6,4.4,5.968,5.968,0,0,1-1.6,4.4,5.654,5.654,0,0,1-4.1,1.6m0-1.7a3.424,3.424,0,0,0,2.7-1.2,4.918,4.918,0,0,0,0-6.2,3.637,3.637,0,0,0-5.4,0,4.918,4.918,0,0,0,0,6.2,3.424,3.424,0,0,0,2.7,1.2"/><path d="M453.4,136.2H455v12.4h-1.7l-6.7-10v10h-1.5V136.2h1.6l6.7,10Z"/><path d="M460.3,148.7a2.883,2.883,0,0,1-1.9-.6,2.139,2.139,0,0,1-.7-1.8,3.6,3.6,0,0,1,.2-1.1,1.779,1.779,0,0,1,.7-.8,3.128,3.128,0,0,1,1-.5c.4-.1.8-.2,1.3-.3l1.4-.2c.5-.1.8-.4.8-.8a1.728,1.728,0,0,0-.5-1.3,2.116,2.116,0,0,0-1.4-.4,2.3,2.3,0,0,0-1.4.4,1.425,1.425,0,0,0-.6,1.2l-1.4-.3a2.865,2.865,0,0,1,1.1-1.9,3.592,3.592,0,0,1,2.4-.6,5.067,5.067,0,0,1,1.3.2,3.128,3.128,0,0,1,1,.5,1.6,1.6,0,0,1,.7.9,5.768,5.768,0,0,1,.3,1.4v3.6a2,2,0,0,0,.2.9c.1.2.4.2.7.2h.1v1.1h-.8c-.9,0-1.5-.4-1.6-1.2h-.1a3.026,3.026,0,0,1-2.8,1.4m.3-1.2a2.56,2.56,0,0,0,1.9-.8,3.174,3.174,0,0,0,.7-2.3l-2.3.4a2.686,2.686,0,0,0-1.3.5,1.213,1.213,0,0,0,0,1.8,1.159,1.159,0,0,0,1,.4"/><path d="M469.2,141.4a2.544,2.544,0,0,1,1.1-1.2,3.371,3.371,0,0,1,1.7-.5v1.4a2.986,2.986,0,0,0-2,.6,2.444,2.444,0,0,0-.7,2v4.6h-1.5v-8.6h1.5v1.7Z"/><path d="M475.6,148.7a2.883,2.883,0,0,1-1.9-.6,2.14,2.14,0,0,1-.7-1.8,3.6,3.6,0,0,1,.2-1.1,1.779,1.779,0,0,1,.7-.8,3.128,3.128,0,0,1,1-.5c.4-.1.8-.2,1.3-.3l1.4-.2c.5-.1.8-.4.8-.8a1.727,1.727,0,0,0-.5-1.3,2.116,2.116,0,0,0-1.4-.4,2.3,2.3,0,0,0-1.4.4,1.426,1.426,0,0,0-.6,1.2l-1.4-.3a2.865,2.865,0,0,1,1.1-1.9,3.592,3.592,0,0,1,2.4-.6,5.067,5.067,0,0,1,1.3.2,3.128,3.128,0,0,1,1,.5,1.6,1.6,0,0,1,.7.9,5.768,5.768,0,0,1,.3,1.4v3.6a2,2,0,0,0,.2.9c.1.2.4.2.7.2h.1v1.1h-.7c-.9,0-1.5-.4-1.6-1.2h-.1a3.193,3.193,0,0,1-2.9,1.4m.4-1.2a2.56,2.56,0,0,0,1.9-.8,3.174,3.174,0,0,0,.7-2.3l-2.3.4a2.687,2.687,0,0,0-1.3.5,1.213,1.213,0,0,0,0,1.8,1.053,1.053,0,0,0,1,.4"/><path d="M487.1,139.8a3.3,3.3,0,0,1,2.2.8,3.113,3.113,0,0,1,.8,2.2v5.8h-1.5v-5.5a2.07,2.07,0,0,0-.5-1.5,1.978,1.978,0,0,0-1.4-.5,2.035,2.035,0,0,0-1.5.6,2.445,2.445,0,0,0-.6,1.8v5.2h-1.5v-8.6h1.5v1.1a2.659,2.659,0,0,1,2.5-1.4"/><path d="M491.1,152.6v-1.3a2.872,2.872,0,0,0,1.2-.2,1.309,1.309,0,0,0,.6-.8,7.449,7.449,0,0,0,.2-1.8V140h1.5v8.5a5.145,5.145,0,0,1-.8,3.2,3.371,3.371,0,0,1-2.7.9m2.7-14.7a1.025,1.025,0,1,1,.7-.3.779.779,0,0,1-.7.3"/><path d="M499.7,148.7a2.883,2.883,0,0,1-1.9-.6,2.139,2.139,0,0,1-.7-1.8,3.6,3.6,0,0,1,.2-1.1,1.779,1.779,0,0,1,.7-.8,3.128,3.128,0,0,1,1-.5c.4-.1.8-.2,1.3-.3l1.4-.2c.5-.1.8-.4.8-.8a1.728,1.728,0,0,0-.5-1.3,2.116,2.116,0,0,0-1.4-.4,2.3,2.3,0,0,0-1.4.4,1.425,1.425,0,0,0-.6,1.2l-1.4-.3a2.865,2.865,0,0,1,1.1-1.9,3.592,3.592,0,0,1,2.4-.6,5.067,5.067,0,0,1,1.3.2,3.128,3.128,0,0,1,1,.5,1.6,1.6,0,0,1,.7.9,5.769,5.769,0,0,1,.3,1.4v3.6a2,2,0,0,0,.2.9c.1.2.4.2.7.2h.1v1.1h-.8c-.9,0-1.5-.4-1.6-1.2h-.1a3.026,3.026,0,0,1-2.8,1.4m.3-1.2a2.56,2.56,0,0,0,1.9-.8,3.174,3.174,0,0,0,.7-2.3l-2.3.4a2.687,2.687,0,0,0-1.3.5,1.213,1.213,0,0,0,0,1.8,1.16,1.16,0,0,0,1,.4"/><path d="M526,414.2h1.7l-4.5,12.4h-1.6l-4.5-12.4h1.7l3.7,10.4Z"/><path d="M536.4,422.1v.4h-6.8a2.947,2.947,0,0,0,.8,2.2,2.792,2.792,0,0,0,2,.8,2.3,2.3,0,0,0,1.4-.4,3.46,3.46,0,0,0,1-1.1l1.4.3a4,4,0,0,1-1.5,1.9,3.691,3.691,0,0,1-2.3.7,4.143,4.143,0,0,1-3.1-1.2,5.137,5.137,0,0,1,0-6.6,4.143,4.143,0,0,1,3.1-1.2,3.8,3.8,0,0,1,4,4.2m-4-3.2a2.792,2.792,0,0,0-1.8.6,2.606,2.606,0,0,0-.9,1.8h5.2a2.385,2.385,0,0,0-2.5-2.4"/><path d="M540.3,419.4a2.545,2.545,0,0,1,1.1-1.2,3.371,3.371,0,0,1,1.7-.5v1.4a2.986,2.986,0,0,0-2,.6,2.444,2.444,0,0,0-.7,2v4.6h-1.5v-8.6h1.5v1.7Z"/><path d="M551.1,413.1h1.5v13.5h-1.5v-1.7a4.071,4.071,0,0,1-1.2,1.4,2.9,2.9,0,0,1-1.8.5,4.145,4.145,0,0,1-1.6-.3,3.805,3.805,0,0,1-1.3-.9,4.194,4.194,0,0,1-.9-1.4,5.412,5.412,0,0,1-.3-1.9,4.378,4.378,0,0,1,1.2-3.2,3.847,3.847,0,0,1,2.9-1.2,3.454,3.454,0,0,1,1.8.5,3,3,0,0,1,1.2,1.3Zm-2.8,12.3a2.518,2.518,0,0,0,2-.9,3.706,3.706,0,0,0,0-4.6,2.672,2.672,0,0,0-4,0,3.706,3.706,0,0,0,0,4.6,2.518,2.518,0,0,0,2,.9"/><path d="M563.2,422.1v.4h-6.8a2.947,2.947,0,0,0,.8,2.2,2.792,2.792,0,0,0,2,.8,2.3,2.3,0,0,0,1.4-.4,3.459,3.459,0,0,0,1-1.1l1.4.3a4,4,0,0,1-1.5,1.9,3.691,3.691,0,0,1-2.3.7,4.143,4.143,0,0,1-3.1-1.2,5.138,5.138,0,0,1,0-6.6,4.143,4.143,0,0,1,3.1-1.2,4,4,0,0,1,2.9,1.1,3.683,3.683,0,0,1,1.1,3.1m-4-3.2a2.792,2.792,0,0,0-1.8.6,2.606,2.606,0,0,0-.9,1.8h5.2a2.385,2.385,0,0,0-2.5-2.4"/><path d="M502.4,183.1l-1.1-3h-5.6l-1.1,3H493l4.6-12.4h1.9l4.6,12.4Zm-6.2-4.3h4.6l-2.3-6.4Z"/><path d="M514.9,174.3a2.724,2.724,0,0,1,2,.7,2.865,2.865,0,0,1,.8,2.1v6h-1.5v-5.6a1.978,1.978,0,0,0-.5-1.4,1.656,1.656,0,0,0-1.2-.5,1.9,1.9,0,0,0-1.3.5,2.348,2.348,0,0,0-.5,1.6V183h-1.5v-5.6a2.251,2.251,0,0,0-.5-1.5,1.656,1.656,0,0,0-1.2-.5,1.612,1.612,0,0,0-1.3.6,2.648,2.648,0,0,0-.5,1.7V183h-1.5v-8.6h1.5v1.1a2.836,2.836,0,0,1,1-.9,3.194,3.194,0,0,1,1.4-.3,2.6,2.6,0,0,1,1.5.4,2.66,2.66,0,0,1,1,1.1,3.567,3.567,0,0,1,1-1.1,2.01,2.01,0,0,1,1.3-.4"/><path d="M522.6,183.3a2.883,2.883,0,0,1-1.9-.6,2.139,2.139,0,0,1-.7-1.8,3.594,3.594,0,0,1,.2-1.1,1.778,1.778,0,0,1,.7-.8,3.128,3.128,0,0,1,1-.5c.4-.1.8-.2,1.3-.3l1.4-.2c.5-.1.8-.4.8-.8a1.728,1.728,0,0,0-.5-1.3,2.116,2.116,0,0,0-1.4-.4,2.3,2.3,0,0,0-1.4.4,1.426,1.426,0,0,0-.6,1.2l-1.4-.3a2.865,2.865,0,0,1,1.1-1.9,3.592,3.592,0,0,1,2.4-.6,5.067,5.067,0,0,1,1.3.2,3.129,3.129,0,0,1,1,.5,1.6,1.6,0,0,1,.7.9,5.767,5.767,0,0,1,.3,1.4v3.6a2,2,0,0,0,.2.9c.1.2.4.2.7.2h.1v1.1h-.7c-.9,0-1.5-.4-1.6-1.2h-.1a3.193,3.193,0,0,1-2.9,1.4m.4-1.2a2.561,2.561,0,0,0,1.9-.8,3.174,3.174,0,0,0,.7-2.3l-2.3.4a2.687,2.687,0,0,0-1.3.5,1.212,1.212,0,0,0,0,1.8,1.159,1.159,0,0,0,1,.4"/><path d="M531.6,176a2.545,2.545,0,0,1,1.1-1.2,3.371,3.371,0,0,1,1.7-.5v1.4a2.986,2.986,0,0,0-2,.6,2.444,2.444,0,0,0-.7,2v4.6h-1.5v-8.6h1.5V176Z"/><path d="M536.9,172.5a1.025,1.025,0,1,1,.7-.3,1.08,1.08,0,0,1-.7.3m-.8,2h1.5v8.6h-1.5Z"/><rect width="1.5" height="13.5" transform="translate(540.7 169.6)"/><rect width="1.5" height="13.5" transform="translate(545.3 169.6)"/><path d="M553.6,183.3a5.091,5.091,0,0,1-2.2-.5,4.094,4.094,0,0,1-1.6-1.6,4.751,4.751,0,0,1-.6-2.4,4.62,4.62,0,0,1,1.2-3.3,4.3,4.3,0,0,1,3.1-1.2,4.143,4.143,0,0,1,3.1,1.2,4.459,4.459,0,0,1,1.2,3.3,4.62,4.62,0,0,1-1.2,3.3,3.773,3.773,0,0,1-3,1.2m0-1.3a2.518,2.518,0,0,0,2-.9,3.566,3.566,0,0,0,.8-2.3,3.375,3.375,0,0,0-.8-2.3,2.672,2.672,0,0,0-4,0,3.566,3.566,0,0,0-.8,2.3,3.374,3.374,0,0,0,.8,2.3,2.518,2.518,0,0,0,2,.9"/><path d="M299.2,165.2l-3.2-5.6h-1.9v5.6h-1.6V152.8h4.1a3.447,3.447,0,0,1,3.8,3.5,3.232,3.232,0,0,1-.7,2.2,3.6,3.6,0,0,1-2,1.1l3.4,5.6Zm-5.1-11v4.2h2.3a2.445,2.445,0,0,0,1.8-.6,2.175,2.175,0,0,0,0-3,2.445,2.445,0,0,0-1.8-.6Z"/><path d="M306.5,165.4a5.091,5.091,0,0,1-2.2-.5,4.094,4.094,0,0,1-1.6-1.6,4.751,4.751,0,0,1-.6-2.4,4.62,4.62,0,0,1,1.2-3.3,4.3,4.3,0,0,1,3.1-1.2,4.143,4.143,0,0,1,3.1,1.2,4.459,4.459,0,0,1,1.2,3.3,4.62,4.62,0,0,1-1.2,3.3,3.917,3.917,0,0,1-3,1.2m-.1-1.3a2.518,2.518,0,0,0,2-.9,3.566,3.566,0,0,0,.8-2.3,3.374,3.374,0,0,0-.8-2.3,2.672,2.672,0,0,0-4,0,3.566,3.566,0,0,0-.8,2.3,3.374,3.374,0,0,0,.8,2.3,2.665,2.665,0,0,0,2,.9"/><path d="M311.2,169.2v-1.3a2.872,2.872,0,0,0,1.2-.2,1.309,1.309,0,0,0,.6-.8,7.449,7.449,0,0,0,.2-1.8v-8.5h1.5v8.5a5.145,5.145,0,0,1-.8,3.2,3.371,3.371,0,0,1-2.7.9m2.8-14.7a1.025,1.025,0,1,1,.7-.3,1.08,1.08,0,0,1-.7.3"/><path d="M321.5,165.4a5.091,5.091,0,0,1-2.2-.5,4.094,4.094,0,0,1-1.6-1.6,4.751,4.751,0,0,1-.6-2.4,4.62,4.62,0,0,1,1.2-3.3,4.3,4.3,0,0,1,3.1-1.2,4.143,4.143,0,0,1,3.1,1.2,4.459,4.459,0,0,1,1.2,3.3,4.62,4.62,0,0,1-1.2,3.3,3.917,3.917,0,0,1-3,1.2m0-1.3a2.518,2.518,0,0,0,2-.9,3.566,3.566,0,0,0,.8-2.3,3.374,3.374,0,0,0-.8-2.3,2.672,2.672,0,0,0-4,0,3.566,3.566,0,0,0-.8,2.3,3.374,3.374,0,0,0,.8,2.3,2.384,2.384,0,0,0,2,.9"/><path d="M101.8,215.2a3.83,3.83,0,0,1,1.9.5,3.531,3.531,0,0,1,1.3,1.4,4.136,4.136,0,0,1,.5,1.9,3.62,3.62,0,0,1-1,2.7,3.693,3.693,0,0,1-2.7,1.1H98.7v4.8H97.1V215.2Zm-.2,6.2a2.06,2.06,0,0,0,1.7-.7,2.61,2.61,0,0,0,.6-1.8,2.352,2.352,0,0,0-.6-1.7,2.413,2.413,0,0,0-1.7-.7H98.7v4.8h2.9Z"/><path d="M113.2,219h1.5v8.6h-1.5v-1.1a3.566,3.566,0,0,1-1.1,1,2.544,2.544,0,0,1-1.5.3,3.3,3.3,0,0,1-2.2-.8,3.113,3.113,0,0,1-.8-2.2V219h1.5v5.5a2.07,2.07,0,0,0,.5,1.5,1.978,1.978,0,0,0,1.4.5,2.035,2.035,0,0,0,1.5-.6,2.445,2.445,0,0,0,.6-1.8V219Z"/><path d="M119.3,220.5a2.545,2.545,0,0,1,1.1-1.2,3.371,3.371,0,0,1,1.7-.5v1.4a2.986,2.986,0,0,0-2,.6,2.444,2.444,0,0,0-.7,2v4.6h-1.5v-8.6h1.5v1.7Z"/><path d="M128.4,218.8a4.145,4.145,0,0,1,1.6.3,3.805,3.805,0,0,1,1.3.9,4.194,4.194,0,0,1,.9,1.4,5.822,5.822,0,0,1,.3,1.9,4.79,4.79,0,0,1-1.2,3.3,3.847,3.847,0,0,1-2.9,1.2,3.453,3.453,0,0,1-1.8-.5,3,3,0,0,1-1.2-1.3v6h-1.5V219h1.5v1.7a3.039,3.039,0,0,1,1.2-1.3,3.51,3.51,0,0,1,1.8-.6m-.3,7.7a2.518,2.518,0,0,0,2-.9,3.706,3.706,0,0,0,0-4.6,2.672,2.672,0,0,0-4,0,3.706,3.706,0,0,0,0,4.6,2.518,2.518,0,0,0,2,.9"/><path d="M140.2,219h1.5v8.6h-1.5v-1.1a3.566,3.566,0,0,1-1.1,1,2.544,2.544,0,0,1-1.5.3,3.3,3.3,0,0,1-2.2-.8,3.113,3.113,0,0,1-.8-2.2V219h1.5v5.5a2.07,2.07,0,0,0,.5,1.5,1.978,1.978,0,0,0,1.4.5,2.035,2.035,0,0,0,1.5-.6,2.445,2.445,0,0,0,.6-1.8V219Z"/><path d="M146.3,220.5a2.544,2.544,0,0,1,1.1-1.2,3.371,3.371,0,0,1,1.7-.5v1.4a2.986,2.986,0,0,0-2,.6,2.444,2.444,0,0,0-.7,2v4.6h-1.5v-8.6h1.5v1.7Z"/><path d="M152.7,227.8a2.883,2.883,0,0,1-1.9-.6,2.139,2.139,0,0,1-.7-1.8,3.6,3.6,0,0,1,.2-1.1,1.779,1.779,0,0,1,.7-.8,3.128,3.128,0,0,1,1-.5c.4-.1.8-.2,1.3-.3l1.4-.2c.5-.1.8-.4.8-.8a1.728,1.728,0,0,0-.5-1.3,2.116,2.116,0,0,0-1.4-.4,2.3,2.3,0,0,0-1.4.4,1.426,1.426,0,0,0-.6,1.2l-1.4-.3a2.865,2.865,0,0,1,1.1-1.9,3.592,3.592,0,0,1,2.4-.6,5.066,5.066,0,0,1,1.3.2,3.128,3.128,0,0,1,1,.5,1.6,1.6,0,0,1,.7.9,5.768,5.768,0,0,1,.3,1.4v3.6a2,2,0,0,0,.2.9c.1.2.4.2.7.2h.1v1.1h-.8c-.9,0-1.5-.4-1.6-1.2h-.1a3.124,3.124,0,0,1-2.8,1.4m.4-1.3a2.56,2.56,0,0,0,1.9-.8,3.174,3.174,0,0,0,.7-2.3l-2.3.4a2.687,2.687,0,0,0-1.3.5,1.212,1.212,0,0,0,0,1.8,1.053,1.053,0,0,0,1,.4"/><path d="M165.1,179.3l-3.2-5.6H160v5.6h-1.6V166.9h4.1a3.447,3.447,0,0,1,3.8,3.5,3.232,3.232,0,0,1-.7,2.2,3.6,3.6,0,0,1-2,1.1l3.4,5.6Zm-5.1-11v4.2h2.3a2.445,2.445,0,0,0,1.8-.6,2.175,2.175,0,0,0,0-3,2.445,2.445,0,0,0-1.8-.6Z"/><path d="M172.3,179.5a5.091,5.091,0,0,1-2.2-.5,4.094,4.094,0,0,1-1.6-1.6,4.751,4.751,0,0,1-.6-2.4,4.62,4.62,0,0,1,1.2-3.3,4.3,4.3,0,0,1,3.1-1.2,4.143,4.143,0,0,1,3.1,1.2,4.459,4.459,0,0,1,1.2,3.3,4.62,4.62,0,0,1-1.2,3.3,3.773,3.773,0,0,1-3,1.2m0-1.3a2.518,2.518,0,0,0,2-.9,3.566,3.566,0,0,0,.8-2.3,3.374,3.374,0,0,0-.8-2.3,2.672,2.672,0,0,0-4,0,3.566,3.566,0,0,0-.8,2.3,3.374,3.374,0,0,0,.8,2.3,2.518,2.518,0,0,0,2,.9"/><path d="M177.1,183.3V182a2.872,2.872,0,0,0,1.2-.2,1.309,1.309,0,0,0,.6-.8,7.449,7.449,0,0,0,.2-1.8v-8.5h1.5v8.5a5.145,5.145,0,0,1-.8,3.2,3.515,3.515,0,0,1-2.7.9m2.7-14.7a1.025,1.025,0,1,1,.7-.3.908.908,0,0,1-.7.3"/><path d="M187.3,179.5a5.091,5.091,0,0,1-2.2-.5,4.094,4.094,0,0,1-1.6-1.6,4.751,4.751,0,0,1-.6-2.4,4.62,4.62,0,0,1,1.2-3.3,4.3,4.3,0,0,1,3.1-1.2,4.143,4.143,0,0,1,3.1,1.2,4.459,4.459,0,0,1,1.2,3.3,4.62,4.62,0,0,1-1.2,3.3,3.773,3.773,0,0,1-3,1.2m0-1.3a2.518,2.518,0,0,0,2-.9,3.566,3.566,0,0,0,.8-2.3,3.374,3.374,0,0,0-.8-2.3,2.672,2.672,0,0,0-4,0,3.566,3.566,0,0,0-.8,2.3,3.374,3.374,0,0,0,.8,2.3,2.518,2.518,0,0,0,2,.9"/><rect width="6.3" height="1.3" transform="translate(198.7 173.9)"/><path d="M217.3,170.5a4.146,4.146,0,0,1,1.6.3,3.805,3.805,0,0,1,1.3.9,4.2,4.2,0,0,1,.9,1.4,5.822,5.822,0,0,1,.3,1.9,4.79,4.79,0,0,1-1.2,3.3,3.847,3.847,0,0,1-2.9,1.2,3.453,3.453,0,0,1-1.8-.5,3,3,0,0,1-1.2-1.3v6h-1.5v-13h1.5v1.7a3.039,3.039,0,0,1,1.2-1.3,3.51,3.51,0,0,1,1.8-.6m-.3,7.7a2.518,2.518,0,0,0,2-.9,3.706,3.706,0,0,0,0-4.6,2.672,2.672,0,0,0-4,0,3.706,3.706,0,0,0,0,4.6,2.518,2.518,0,0,0,2,.9"/><path d="M229.1,170.7h1.5v8.6h-1.4v-1.1a3.566,3.566,0,0,1-1.1,1,2.544,2.544,0,0,1-1.5.3,3.3,3.3,0,0,1-2.2-.8,3.113,3.113,0,0,1-.8-2.2v-5.8h1.5v5.5a2.07,2.07,0,0,0,.5,1.5,1.978,1.978,0,0,0,1.4.5,2.035,2.035,0,0,0,1.5-.6,2.445,2.445,0,0,0,.6-1.8Z"/><path d="M235.2,172.2a2.545,2.545,0,0,1,1.1-1.2,3.371,3.371,0,0,1,1.7-.5v1.4a2.986,2.986,0,0,0-2,.6,2.444,2.444,0,0,0-.7,2v4.6h-1.5v-8.6h1.5v1.7Z"/><path d="M244.3,170.5a4.146,4.146,0,0,1,1.6.3,3.805,3.805,0,0,1,1.3.9,4.2,4.2,0,0,1,.9,1.4,5.822,5.822,0,0,1,.3,1.9,4.79,4.79,0,0,1-1.2,3.3,3.847,3.847,0,0,1-2.9,1.2,3.453,3.453,0,0,1-1.8-.5,3,3,0,0,1-1.2-1.3v6h-1.5v-13h1.5v1.7a3.039,3.039,0,0,1,1.2-1.3,3.51,3.51,0,0,1,1.8-.6m-.3,7.7a2.518,2.518,0,0,0,2-.9,3.706,3.706,0,0,0,0-4.6,2.672,2.672,0,0,0-4,0,3.706,3.706,0,0,0,0,4.6,2.518,2.518,0,0,0,2,.9"/><path d="M256.1,170.7h1.5v8.6h-1.4v-1.1a3.566,3.566,0,0,1-1.1,1,2.544,2.544,0,0,1-1.5.3,3.3,3.3,0,0,1-2.2-.8,3.113,3.113,0,0,1-.8-2.2v-5.8h1.5v5.5a2.07,2.07,0,0,0,.5,1.5,1.978,1.978,0,0,0,1.4.5,2.035,2.035,0,0,0,1.5-.6,2.445,2.445,0,0,0,.6-1.8Z"/><path d="M262.2,172.2a2.544,2.544,0,0,1,1.1-1.2,3.371,3.371,0,0,1,1.7-.5v1.4a2.986,2.986,0,0,0-2,.6,2.444,2.444,0,0,0-.7,2v4.6h-1.5v-8.6h1.5v1.7Z"/><path d="M268.6,179.5a2.883,2.883,0,0,1-1.9-.6,2.139,2.139,0,0,1-.7-1.8,3.6,3.6,0,0,1,.2-1.1,1.779,1.779,0,0,1,.7-.8,3.128,3.128,0,0,1,1-.5c.4-.1.8-.2,1.3-.3l1.4-.2c.5-.1.8-.4.8-.8a1.727,1.727,0,0,0-.5-1.3,2.116,2.116,0,0,0-1.4-.4,2.3,2.3,0,0,0-1.4.4,1.425,1.425,0,0,0-.6,1.2l-1.4-.3a2.865,2.865,0,0,1,1.1-1.9,3.592,3.592,0,0,1,2.4-.6,5.067,5.067,0,0,1,1.3.2,3.128,3.128,0,0,1,1,.5,1.6,1.6,0,0,1,.7.9,5.768,5.768,0,0,1,.3,1.4v3.6a2,2,0,0,0,.2.9c.1.2.4.2.7.2h.1v1.1h-.8c-.9,0-1.5-.4-1.6-1.2h-.1a3.242,3.242,0,0,1-2.8,1.4m.4-1.3a2.56,2.56,0,0,0,1.9-.8,3.174,3.174,0,0,0,.7-2.3l-2.3.4a2.687,2.687,0,0,0-1.3.5,1.213,1.213,0,0,0,0,1.8c.1.3.5.4,1,.4"/><path d="M81.8,458.8l-1.1-3H75.1l-1.1,3H72.4L77,446.4h1.9l4.6,12.4Zm-6.2-4.4h4.6L77.9,448Z"/><path d="M86.7,457.6h4.6v1.2H84.4l4.6-7.4H84.7v-1.2h6.6Z"/><path d="M98.8,450.2h1.5v8.6H98.8v-1.1a3.566,3.566,0,0,1-1.1,1,2.544,2.544,0,0,1-1.5.3,3.3,3.3,0,0,1-2.2-.8,3.113,3.113,0,0,1-.8-2.2v-5.8h1.5v5.5a2.07,2.07,0,0,0,.5,1.5,1.978,1.978,0,0,0,1.4.5,2.035,2.035,0,0,0,1.5-.6,2.445,2.445,0,0,0,.6-1.8v-5.1Z"/><rect width="1.5" height="13.5" transform="translate(103.4 445.3)"/><rect width="6.3" height="1.3" transform="translate(108 453.4)"/><path d="M121.9,450a4.146,4.146,0,0,1,1.6.3,3.805,3.805,0,0,1,1.3.9,4.194,4.194,0,0,1,.9,1.4,5.822,5.822,0,0,1,.3,1.9,4.79,4.79,0,0,1-1.2,3.3,3.847,3.847,0,0,1-2.9,1.2,3.453,3.453,0,0,1-1.8-.5,3,3,0,0,1-1.2-1.3v6h-1.5v-13h1.5v1.7a3.039,3.039,0,0,1,1.2-1.3,3.51,3.51,0,0,1,1.8-.6m-.3,7.7a2.518,2.518,0,0,0,2-.9,3.706,3.706,0,0,0,0-4.6,2.672,2.672,0,0,0-4,0,3.706,3.706,0,0,0,0,4.6,2.518,2.518,0,0,0,2,.9"/><path d="M133.7,450.2h1.5v8.6h-1.5v-1.1a3.566,3.566,0,0,1-1.1,1,2.544,2.544,0,0,1-1.5.3,3.3,3.3,0,0,1-2.2-.8,3.113,3.113,0,0,1-.8-2.2v-5.8h1.5v5.5a2.07,2.07,0,0,0,.5,1.5,1.978,1.978,0,0,0,1.4.5,2.035,2.035,0,0,0,1.5-.6,2.445,2.445,0,0,0,.6-1.8v-5.1Z"/><path d="M139.8,451.7a2.544,2.544,0,0,1,1.1-1.2,3.371,3.371,0,0,1,1.7-.5v1.4a2.986,2.986,0,0,0-2,.6,2.444,2.444,0,0,0-.7,2v4.6h-1.5v-8.4h1.5v1.5Z"/><path d="M148.9,450a4.146,4.146,0,0,1,1.6.3,3.805,3.805,0,0,1,1.3.9,4.194,4.194,0,0,1,.9,1.4,5.822,5.822,0,0,1,.3,1.9,4.79,4.79,0,0,1-1.2,3.3,3.847,3.847,0,0,1-2.9,1.2,3.453,3.453,0,0,1-1.8-.5,3,3,0,0,1-1.2-1.3v6h-1.5v-13h1.5v1.7a3.039,3.039,0,0,1,1.2-1.3,3.51,3.51,0,0,1,1.8-.6m-.3,7.7a2.518,2.518,0,0,0,2-.9,3.706,3.706,0,0,0,0-4.6,2.672,2.672,0,0,0-4,0,3.706,3.706,0,0,0,0,4.6,2.518,2.518,0,0,0,2,.9"/><path d="M160.7,450.2h1.5v8.6h-1.5v-1.1a3.566,3.566,0,0,1-1.1,1,2.544,2.544,0,0,1-1.5.3,3.3,3.3,0,0,1-2.2-.8,3.113,3.113,0,0,1-.8-2.2v-5.8h1.5v5.5a2.07,2.07,0,0,0,.5,1.5,1.978,1.978,0,0,0,1.4.5,2.035,2.035,0,0,0,1.5-.6,2.445,2.445,0,0,0,.6-1.8v-5.1Z"/><path d="M166.8,451.7a2.544,2.544,0,0,1,1.1-1.2,3.371,3.371,0,0,1,1.7-.5v1.4a2.986,2.986,0,0,0-2,.6,2.444,2.444,0,0,0-.7,2v4.6h-1.5v-8.4h1.5v1.5Z"/><path d="M173.2,459a2.883,2.883,0,0,1-1.9-.6,2.139,2.139,0,0,1-.7-1.8,3.6,3.6,0,0,1,.2-1.1,1.779,1.779,0,0,1,.7-.8,3.127,3.127,0,0,1,1-.5c.4-.1.8-.2,1.3-.3l1.4-.2c.5-.1.8-.4.8-.8a1.727,1.727,0,0,0-.5-1.3,2.116,2.116,0,0,0-1.4-.4,2.3,2.3,0,0,0-1.4.4,1.425,1.425,0,0,0-.6,1.2l-1.4-.3a2.453,2.453,0,0,1,1.1-1.8,4.265,4.265,0,0,1,2.4-.6,5.068,5.068,0,0,1,1.3.2,3.129,3.129,0,0,1,1,.5,1.6,1.6,0,0,1,.7.9,5.768,5.768,0,0,1,.3,1.4v3.6a2,2,0,0,0,.2.9c.1.2.4.2.7.2h.1v1.1h-.8c-.9,0-1.5-.4-1.6-1.2H176a3.423,3.423,0,0,1-2.8,1.3m.4-1.3a2.56,2.56,0,0,0,1.9-.8,3.174,3.174,0,0,0,.7-2.3l-2.3.4a2.687,2.687,0,0,0-1.3.5,1.212,1.212,0,0,0,0,1.8,1.053,1.053,0,0,0,1,.4"/><path d="M424,284.8h1.7l-4.5,12.4h-1.6l-4.5-12.4h1.7l3.7,10.4Z"/><path d="M434.4,292.7v.4h-6.8a2.947,2.947,0,0,0,.8,2.2,2.792,2.792,0,0,0,2,.8,2.3,2.3,0,0,0,1.4-.4,3.459,3.459,0,0,0,1-1.1l1.4.3a4,4,0,0,1-1.5,1.9,3.691,3.691,0,0,1-2.3.7,4.143,4.143,0,0,1-3.1-1.2,5.138,5.138,0,0,1,0-6.6,4.143,4.143,0,0,1,3.1-1.2,4,4,0,0,1,2.9,1.1,3.683,3.683,0,0,1,1.1,3.1m-4-3.2a2.792,2.792,0,0,0-1.8.6,2.606,2.606,0,0,0-.9,1.8h5.2a2.385,2.385,0,0,0-2.5-2.4"/><path d="M438.3,290a2.545,2.545,0,0,1,1.1-1.2,3.371,3.371,0,0,1,1.7-.5v1.4a2.986,2.986,0,0,0-2,.6,2.444,2.444,0,0,0-.7,2v4.6h-1.5v-8.6h1.5V290Z"/><path d="M449.1,283.6h1.5v13.5h-1.4v-1.7a4.071,4.071,0,0,1-1.2,1.4,2.9,2.9,0,0,1-1.8.5,4.145,4.145,0,0,1-1.6-.3,3.806,3.806,0,0,1-1.3-.9,4.2,4.2,0,0,1-.9-1.4,5.413,5.413,0,0,1-.3-1.9,4.378,4.378,0,0,1,1.2-3.2,3.847,3.847,0,0,1,2.9-1.2,3.453,3.453,0,0,1,1.8.5,3,3,0,0,1,1.2,1.3v-6.6ZM446.4,296a2.518,2.518,0,0,0,2-.9,3.706,3.706,0,0,0,0-4.6,2.672,2.672,0,0,0-4,0,3.706,3.706,0,0,0,0,4.6,2.518,2.518,0,0,0,2,.9"/><path d="M461.3,292.7v.4h-6.8a2.947,2.947,0,0,0,.8,2.2,2.792,2.792,0,0,0,2,.8,2.3,2.3,0,0,0,1.4-.4,3.46,3.46,0,0,0,1-1.1l1.4.3a4,4,0,0,1-1.5,1.9,3.691,3.691,0,0,1-2.3.7,4.143,4.143,0,0,1-3.1-1.2,5.137,5.137,0,0,1,0-6.6,4.143,4.143,0,0,1,3.1-1.2,3.8,3.8,0,0,1,4,4.2m-4-3.2a2.792,2.792,0,0,0-1.8.6,2.606,2.606,0,0,0-.9,1.8h5.2a2.385,2.385,0,0,0-2.5-2.4"/><rect width="6.3" height="1.3" transform="translate(468.3 291.8)"/><path d="M484.3,297.3a2.883,2.883,0,0,1-1.9-.6,2.14,2.14,0,0,1-.7-1.8,3.6,3.6,0,0,1,.2-1.1,1.779,1.779,0,0,1,.7-.8,3.128,3.128,0,0,1,1-.5c.4-.1.8-.2,1.3-.3l1.4-.2c.5-.1.8-.4.8-.8a1.728,1.728,0,0,0-.5-1.3,2.116,2.116,0,0,0-1.4-.4,2.3,2.3,0,0,0-1.4.4,1.426,1.426,0,0,0-.6,1.2l-1.4-.3a2.865,2.865,0,0,1,1.1-1.9,3.592,3.592,0,0,1,2.4-.6,5.066,5.066,0,0,1,1.3.2,3.128,3.128,0,0,1,1,.5,1.6,1.6,0,0,1,.7.9,5.768,5.768,0,0,1,.3,1.4v3.6a2,2,0,0,0,.2.9c.1.2.4.2.7.2h.1v1.1h-.8c-.9,0-1.5-.4-1.6-1.2a3.193,3.193,0,0,1-2.9,1.4m.4-1.2a2.56,2.56,0,0,0,1.9-.8,3.174,3.174,0,0,0,.7-2.3l-2.3.4a2.687,2.687,0,0,0-1.3.5,1.212,1.212,0,0,0,0,1.8,1.053,1.053,0,0,0,1,.4"/><path d="M500.6,288.3a2.724,2.724,0,0,1,2,.7,2.865,2.865,0,0,1,.8,2.1v6h-1.5v-5.6a1.978,1.978,0,0,0-.5-1.4,1.656,1.656,0,0,0-1.2-.5,1.9,1.9,0,0,0-1.3.5,2.348,2.348,0,0,0-.5,1.6V297h-1.5v-5.6a2.25,2.25,0,0,0-.5-1.5,1.656,1.656,0,0,0-1.2-.5,1.613,1.613,0,0,0-1.3.6,2.648,2.648,0,0,0-.5,1.7V297h-1.5v-8.6h1.5v1.1a2.836,2.836,0,0,1,1-.9,3.194,3.194,0,0,1,1.4-.3,2.6,2.6,0,0,1,1.5.4,2.66,2.66,0,0,1,1,1.1,3.566,3.566,0,0,1,1-1.1,1.844,1.844,0,0,1,1.3-.4"/><path d="M508.3,297.3a2.883,2.883,0,0,1-1.9-.6,2.14,2.14,0,0,1-.7-1.8,3.6,3.6,0,0,1,.2-1.1,1.779,1.779,0,0,1,.7-.8,3.128,3.128,0,0,1,1-.5c.4-.1.8-.2,1.3-.3l1.4-.2c.5-.1.8-.4.8-.8a1.728,1.728,0,0,0-.5-1.3,2.116,2.116,0,0,0-1.4-.4,2.3,2.3,0,0,0-1.4.4,1.426,1.426,0,0,0-.6,1.2l-1.4-.3a2.865,2.865,0,0,1,1.1-1.9,3.592,3.592,0,0,1,2.4-.6,5.066,5.066,0,0,1,1.3.2,3.128,3.128,0,0,1,1,.5,1.6,1.6,0,0,1,.7.9,5.766,5.766,0,0,1,.3,1.4v3.6a2,2,0,0,0,.2.9c.1.2.4.2.7.2h.1v1.1h-.8c-.9,0-1.5-.4-1.6-1.2h-.1a3.026,3.026,0,0,1-2.8,1.4m.4-1.2a2.56,2.56,0,0,0,1.9-.8,3.174,3.174,0,0,0,.7-2.3l-2.3.4a2.687,2.687,0,0,0-1.3.5,1.212,1.212,0,0,0,0,1.8,1.053,1.053,0,0,0,1,.4"/><path d="M517.2,290a2.545,2.545,0,0,1,1.1-1.2,3.371,3.371,0,0,1,1.7-.5v1.4a2.986,2.986,0,0,0-2,.6,2.444,2.444,0,0,0-.7,2v4.6h-1.5v-8.6h1.5V290Z"/><path d="M522.5,286.5a1.025,1.025,0,1,1,.7-.3.908.908,0,0,1-.7.3m-.8,2h1.5v8.6h-1.5Z"/><rect width="1.5" height="13.5" transform="translate(526.4 283.6)"/><rect width="1.5" height="13.5" transform="translate(531 283.6)"/><path d="M539.3,297.3a5.091,5.091,0,0,1-2.2-.5,4.094,4.094,0,0,1-1.6-1.6,4.751,4.751,0,0,1-.6-2.4,4.62,4.62,0,0,1,1.2-3.3,4.3,4.3,0,0,1,3.1-1.2,4.143,4.143,0,0,1,3.1,1.2,4.459,4.459,0,0,1,1.2,3.3,4.62,4.62,0,0,1-1.2,3.3,3.917,3.917,0,0,1-3,1.2m0-1.3a2.518,2.518,0,0,0,2-.9,3.566,3.566,0,0,0,.8-2.3,3.374,3.374,0,0,0-.8-2.3,2.672,2.672,0,0,0-4,0,3.566,3.566,0,0,0-.8,2.3,3.375,3.375,0,0,0,.8,2.3,2.147,2.147,0,0,0,2,.9"/><path d="M219.4,446.2l-1.1-3h-5.6l-1.1,3H210l4.6-12.4h1.9l4.6,12.4Zm-6.2-4.4h4.6l-2.3-6.4Z"/><path d="M224.3,444.9h4.6v1.2H222l4.6-7.4h-4.3v-1.2h6.6Z"/><path d="M236.4,437.5h1.5v8.6h-1.5V445a3.566,3.566,0,0,1-1.1,1,2.544,2.544,0,0,1-1.5.3,3.3,3.3,0,0,1-2.2-.8,3.113,3.113,0,0,1-.8-2.2v-5.8h1.5V443a2.07,2.07,0,0,0,.5,1.5,1.978,1.978,0,0,0,1.4.5,2.035,2.035,0,0,0,1.5-.6,2.445,2.445,0,0,0,.6-1.8v-5.1Z"/><rect width="1.5" height="13.5" transform="translate(241 432.7)"/><path d="M226.7,483.3l-1.1-3H220l-1.1,3h-1.6l4.6-12.4h1.9l4.6,12.4Zm-6.2-4.4h4.6l-2.3-6.4Z"/><path d="M231.6,482.1h4.6v1.2h-6.9l4.6-7.4h-4.3v-1.2h6.6Z"/><path d="M243.7,474.6h1.5v8.6h-1.5v-1.1a3.566,3.566,0,0,1-1.1,1,2.544,2.544,0,0,1-1.5.3,3.3,3.3,0,0,1-2.2-.8,3.113,3.113,0,0,1-.8-2.2v-5.8h1.5v5.5a2.07,2.07,0,0,0,.5,1.5,1.978,1.978,0,0,0,1.4.5,2.035,2.035,0,0,0,1.5-.6,2.445,2.445,0,0,0,.6-1.8v-5.1Z"/><rect width="1.5" height="13.5" transform="translate(248.3 469.8)"/><rect width="6.3" height="1.3" transform="translate(257.6 477.9)"/><path d="M277,474.6h1.6l-3.5,8.6h-1.3l-3.5-8.6h1.6l2.5,6.9Z"/><path d="M287.7,478.8v.4h-6.8a2.947,2.947,0,0,0,.8,2.2,2.792,2.792,0,0,0,2,.8,2.3,2.3,0,0,0,1.4-.4,3.46,3.46,0,0,0,1-1.1l1.4.3a4,4,0,0,1-1.5,1.9,3.691,3.691,0,0,1-2.3.7,4.143,4.143,0,0,1-3.1-1.2,5.137,5.137,0,0,1,0-6.6,4.143,4.143,0,0,1,3.1-1.2,3.8,3.8,0,0,1,4,4.2m-4-3.2a2.792,2.792,0,0,0-1.8.6,2.606,2.606,0,0,0-.9,1.8h5.2a2.385,2.385,0,0,0-2.5-2.4"/><path d="M291.5,476.2a2.545,2.545,0,0,1,1.1-1.2,3.371,3.371,0,0,1,1.7-.5v1.4a2.986,2.986,0,0,0-2,.6,2.444,2.444,0,0,0-.7,2v4.6h-1.5v-8.6h1.5v1.7Z"/><path d="M302.3,469.8h1.5v13.5h-1.5v-1.7a4.071,4.071,0,0,1-1.2,1.4,2.9,2.9,0,0,1-1.8.5,4.146,4.146,0,0,1-1.6-.3,3.805,3.805,0,0,1-1.3-.9,4.2,4.2,0,0,1-.9-1.4,5.412,5.412,0,0,1-.3-1.9,4.378,4.378,0,0,1,1.2-3.2,3.847,3.847,0,0,1,2.9-1.2,3.453,3.453,0,0,1,1.8.5,3,3,0,0,1,1.2,1.3Zm-2.7,12.3a2.518,2.518,0,0,0,2-.9,3.706,3.706,0,0,0,0-4.6,2.672,2.672,0,0,0-4,0,3.706,3.706,0,0,0,0,4.6,2.518,2.518,0,0,0,2,.9"/><path d="M310.6,483.4a5.091,5.091,0,0,1-2.2-.5,4.094,4.094,0,0,1-1.6-1.6,4.751,4.751,0,0,1-.6-2.4,4.62,4.62,0,0,1,1.2-3.3,4.3,4.3,0,0,1,3.1-1.2,4.143,4.143,0,0,1,3.1,1.2,4.459,4.459,0,0,1,1.2,3.3,4.62,4.62,0,0,1-1.2,3.3,3.917,3.917,0,0,1-3,1.2m0-1.2a2.518,2.518,0,0,0,2-.9,3.566,3.566,0,0,0,.8-2.3,3.374,3.374,0,0,0-.8-2.3,2.672,2.672,0,0,0-4,0,3.566,3.566,0,0,0-.8,2.3,3.374,3.374,0,0,0,.8,2.3,2.384,2.384,0,0,0,2,.9"/><path d="M320,483.4a4.142,4.142,0,0,1-2.3-.6,2.453,2.453,0,0,1-1.1-1.8l1.3-.4a1.855,1.855,0,0,0,.7,1.2,2.3,2.3,0,0,0,1.4.4,1.949,1.949,0,0,0,.8-.1c.2-.1.5-.2.6-.4a1.909,1.909,0,0,0,.3-.8.756.756,0,0,0-.1-.4c-.1-.2-.1-.2-.1-.3a.215.215,0,0,0-.2-.2c-.1,0-.2-.1-.3-.2s-.2-.1-.4-.2a.756.756,0,0,0-.4-.1,4.332,4.332,0,0,0-.5-.1,4.329,4.329,0,0,1-.5-.1,4.647,4.647,0,0,1-.9-.3,2.507,2.507,0,0,1-.7-.4,4.349,4.349,0,0,1-.6-.7,1.644,1.644,0,0,1-.2-1,2.3,2.3,0,0,1,.4-1.4,2.258,2.258,0,0,1,1.1-.8,3.645,3.645,0,0,1,1.5-.2,3.7,3.7,0,0,1,2.1.6,2.163,2.163,0,0,1,1,1.7l-1.2.3a1.443,1.443,0,0,0-.7-1.1,2.842,2.842,0,0,0-1.2-.4,2.375,2.375,0,0,0-1.2.3.874.874,0,0,0-.5.9.9.9,0,0,0,.1.5q.15.3.3.3c.1,0,.2.2.5.3s.4.2.5.2a3.935,3.935,0,0,1,.6.2h.1a3.091,3.091,0,0,0,.8.2c.2.1.5.2.7.3a3.04,3.04,0,0,1,.7.5,1.612,1.612,0,0,1,.4.7,2.92,2.92,0,0,1,.2.9,2.663,2.663,0,0,1-.3,1.2,2.7,2.7,0,0,1-.7.8,2.994,2.994,0,0,1-1,.4,3.083,3.083,0,0,1-1,.1"/><path d="M329.2,483.4a5.091,5.091,0,0,1-2.2-.5,4.093,4.093,0,0,1-1.6-1.6,4.751,4.751,0,0,1-.6-2.4,4.62,4.62,0,0,1,1.2-3.3,4.3,4.3,0,0,1,3.1-1.2,4.143,4.143,0,0,1,3.1,1.2,4.459,4.459,0,0,1,1.2,3.3,4.62,4.62,0,0,1-1.2,3.3,3.638,3.638,0,0,1-3,1.2m0-1.2a2.518,2.518,0,0,0,2-.9,3.566,3.566,0,0,0,.8-2.3,3.374,3.374,0,0,0-.8-2.3,2.672,2.672,0,0,0-4,0,3.566,3.566,0,0,0-.8,2.3,3.374,3.374,0,0,0,.8,2.3,2.665,2.665,0,0,0,2,.9"/><path d="M8.3,141.1A7.279,7.279,0,0,1,4,139.9a5.1,5.1,0,0,1-2.2-3.2l2.1-.5a3.621,3.621,0,0,0,1.5,2.3,5.467,5.467,0,0,0,2.9.8,4.1,4.1,0,0,0,1.1-.1c.3-.1.7-.2,1-.3a2.1,2.1,0,0,0,1.3-1.3,3.6,3.6,0,0,0,.2-1.1c0-.3-.1-.5-.1-.8l-.3-.6c-.1-.2-.3-.3-.6-.5a2.506,2.506,0,0,0-.7-.4,6.893,6.893,0,0,0-.8-.3l-.9-.3a6.212,6.212,0,0,0-1-.3H7.3a8.112,8.112,0,0,1-1.1-.3,6.9,6.9,0,0,1-1-.4,9.3,9.3,0,0,1-1-.5,4.174,4.174,0,0,1-.8-.6l-.7-.7a3.552,3.552,0,0,1-.4-.9,5.019,5.019,0,0,1-.2-1.2,4.147,4.147,0,0,1,.8-2.5,5.264,5.264,0,0,1,2-1.6,5.923,5.923,0,0,1,2.7-.5,7.436,7.436,0,0,1,4,1,4.66,4.66,0,0,1,2.1,3l-2,.5a2.98,2.98,0,0,0-1.4-2,4.406,4.406,0,0,0-2.6-.7,5.853,5.853,0,0,0-1.3.2,3.7,3.7,0,0,0-1.1.5,2.361,2.361,0,0,0-.8.9,2.768,2.768,0,0,0-.3,1.3,1.483,1.483,0,0,0,.1.7l.3.6c.1.2.3.3.5.5.2.1.4.3.6.4a3.385,3.385,0,0,0,.8.3,3.385,3.385,0,0,1,.8.3,6.377,6.377,0,0,0,.9.2,14.315,14.315,0,0,1,3.2,1.1,4.125,4.125,0,0,1,2.5,3v.7a4.648,4.648,0,0,1-.5,2.1,4.708,4.708,0,0,1-1.3,1.5,6.39,6.39,0,0,1-1.9.8c-.4,0-1.1.1-1.9.1"/><path d="M20.3,141.1a3.936,3.936,0,0,1-2.5-.8,3,3,0,0,1-1-2.4,3.339,3.339,0,0,1,.3-1.5,3.126,3.126,0,0,1,.9-1.1,6.109,6.109,0,0,1,1.4-.7,8.024,8.024,0,0,1,1.8-.4l1.9-.3a1.021,1.021,0,0,0,1-1.1,1.83,1.83,0,0,0-.7-1.7,2.73,2.73,0,0,0-1.8-.5,3.453,3.453,0,0,0-1.8.5,2.358,2.358,0,0,0-.9,1.6l-1.8-.4a4.139,4.139,0,0,1,1.4-2.5,5.074,5.074,0,0,1,3.2-.8,8.807,8.807,0,0,1,1.7.2,5.911,5.911,0,0,1,1.4.6,2.412,2.412,0,0,1,1,1.2,5.33,5.33,0,0,1,.4,1.9v4.8a1.737,1.737,0,0,0,.3,1.2,1.222,1.222,0,0,0,.9.3h.2v1.5h-1a1.944,1.944,0,0,1-2.2-1.6h-.1a4.79,4.79,0,0,1-4,2m.4-1.6a3.25,3.25,0,0,0,2.5-1.1,4.771,4.771,0,0,0,.9-3.1l-3.1.6a3.8,3.8,0,0,0-1.8.6,1.708,1.708,0,0,0,0,2.6,3.313,3.313,0,0,0,1.5.4"/><path d="M33.8,140.9a3.374,3.374,0,0,1-2.3-.8,3.374,3.374,0,0,1-.8-2.3V131H28.3v-1.6h.9a1.7,1.7,0,0,0,1.3-.4,2.331,2.331,0,0,0,.4-1.4v-2.1h1.9v3.9h2.7V131H32.8v6.6a1.844,1.844,0,0,0,.4,1.3,1.656,1.656,0,0,0,1.2.5h1.1V141H33.8Z"/><path d="M45.6,129.3h2v11.6h-2v-1.5a3.483,3.483,0,0,1-1.4,1.3,4.552,4.552,0,0,1-2,.5,3.945,3.945,0,0,1-2.9-1,4.081,4.081,0,0,1-1.1-3v-7.8h2v7.3a2.817,2.817,0,0,0,.7,2.1,2.41,2.41,0,0,0,1.8.7,3.227,3.227,0,0,0,2.1-.8,3.293,3.293,0,0,0,.8-2.4Z"/><path d="M53.8,131.3a4.281,4.281,0,0,1,1.4-1.6,4.032,4.032,0,0,1,2.2-.6V131a3.182,3.182,0,0,0-3.6,3.6v6.2h-2V129.2h2Z"/><path d="M62.4,141.1a3.936,3.936,0,0,1-2.5-.8,3,3,0,0,1-1-2.4,3.339,3.339,0,0,1,.3-1.5,3.126,3.126,0,0,1,.9-1.1,6.109,6.109,0,0,1,1.4-.7,8.024,8.024,0,0,1,1.8-.4l1.9-.3a1.021,1.021,0,0,0,1-1.1,1.83,1.83,0,0,0-.7-1.7,2.73,2.73,0,0,0-1.8-.5,3.453,3.453,0,0,0-1.8.5,2.358,2.358,0,0,0-.9,1.6l-1.8-.4a4.139,4.139,0,0,1,1.4-2.5,5.074,5.074,0,0,1,3.2-.8,8.807,8.807,0,0,1,1.7.2,5.911,5.911,0,0,1,1.4.6,2.412,2.412,0,0,1,1,1.2,5.33,5.33,0,0,1,.4,1.9v4.8a1.737,1.737,0,0,0,.3,1.2,1.222,1.222,0,0,0,.9.3h.2v1.5h-1a1.944,1.944,0,0,1-2.2-1.6h-.3a4.221,4.221,0,0,1-3.8,2m.4-1.6a3.25,3.25,0,0,0,2.5-1.1,4.771,4.771,0,0,0,.9-3.1l-3.1.6a3.8,3.8,0,0,0-1.8.6,1.708,1.708,0,0,0,0,2.6,3.707,3.707,0,0,0,1.5.4"/><path d="M76.9,141.1a5.347,5.347,0,0,1-4.1-1.7,6.578,6.578,0,0,1,0-8.6,5.664,5.664,0,0,1,4.1-1.7,5.183,5.183,0,0,1,3.3,1,5.055,5.055,0,0,1,1.9,2.8l-1.9.3a3.524,3.524,0,0,0-1.3-1.8,3.7,3.7,0,0,0-2.1-.6,3.424,3.424,0,0,0-2.7,1.2,4.918,4.918,0,0,0,0,6.2,3.424,3.424,0,0,0,2.7,1.2,3.7,3.7,0,0,0,2.1-.6,3.524,3.524,0,0,0,1.3-1.8l1.9.3a5.213,5.213,0,0,1-2,2.8,4.722,4.722,0,0,1-3.2,1"/><path d="M86.2,126.6a1.367,1.367,0,1,1,1-.4,1.284,1.284,0,0,1-1,.4m-1,2.7h2v11.6h-2Z"/><path d="M96.3,141.1a6.04,6.04,0,0,1-3-.7,5.3,5.3,0,0,1-2.1-2.1,6.6,6.6,0,0,1-.8-3.2,5.968,5.968,0,0,1,1.6-4.4,6.313,6.313,0,0,1,8.4,0,5.816,5.816,0,0,1,1.6,4.4,5.968,5.968,0,0,1-1.6,4.4,5.279,5.279,0,0,1-4.1,1.6m0-1.7a3.424,3.424,0,0,0,2.7-1.2,4.918,4.918,0,0,0,0-6.2,3.638,3.638,0,0,0-5.4,0,4.918,4.918,0,0,0,0,6.2,3.424,3.424,0,0,0,2.7,1.2m-.8-12.1,3-3.8,1.1.8-2.6,3Z"/><path d="M110.7,129.1a3.945,3.945,0,0,1,2.9,1,4.081,4.081,0,0,1,1.1,3v7.8h-2v-7.3a2.817,2.817,0,0,0-.7-2.1,2.875,2.875,0,0,0-1.8-.7,3.227,3.227,0,0,0-2.1.8,3.293,3.293,0,0,0-.8,2.4v6.9h-2V129.3h2v1.5a3.955,3.955,0,0,1,3.4-1.7"/><path d="M73.3,15.4h2.2L69.4,32H67.2l-6-16.6h2.2l4.9,13.9Z"/><path d="M79.8,32.2a3.936,3.936,0,0,1-2.5-.8,2.719,2.719,0,0,1-1-2.4,3.339,3.339,0,0,1,.3-1.5,3.126,3.126,0,0,1,.9-1.1,6.109,6.109,0,0,1,1.4-.7,8.024,8.024,0,0,1,1.8-.4l1.9-.3a1.021,1.021,0,0,0,1-1.1,1.83,1.83,0,0,0-.7-1.7,2.73,2.73,0,0,0-1.8-.5,3.453,3.453,0,0,0-1.8.5,2.358,2.358,0,0,0-.9,1.6l-1.8-.4A4.139,4.139,0,0,1,78,20.9a5.074,5.074,0,0,1,3.2-.8,8.807,8.807,0,0,1,1.7.2,5.91,5.91,0,0,1,1.4.6,2.94,2.94,0,0,1,1,1.2,5.33,5.33,0,0,1,.4,1.9v4.8A1.737,1.737,0,0,0,86,30a1.222,1.222,0,0,0,.9.3h.2v1.5h-1a1.944,1.944,0,0,1-2.2-1.6h-.1a4.79,4.79,0,0,1-4,2m.4-1.6a3.25,3.25,0,0,0,2.5-1.1,4.771,4.771,0,0,0,.9-3.1l-3.1.6a3.8,3.8,0,0,0-1.8.6,1.708,1.708,0,0,0,0,2.6,2.6,2.6,0,0,0,1.5.4"/><rect width="2.1" height="18.1" transform="translate(89.7 13.9)"/><path d="M100.8,32.2a6.04,6.04,0,0,1-3-.7,5.3,5.3,0,0,1-2.1-2.1,6.6,6.6,0,0,1-.8-3.2,5.968,5.968,0,0,1,1.6-4.4,6.313,6.313,0,0,1,8.4,0,5.816,5.816,0,0,1,1.6,4.4,5.968,5.968,0,0,1-1.6,4.4,5.279,5.279,0,0,1-4.1,1.6m0-1.7a3.424,3.424,0,0,0,2.7-1.2,4.5,4.5,0,0,0,1.1-3.1,4.5,4.5,0,0,0-1.1-3.1,3.638,3.638,0,0,0-5.4,0A4.5,4.5,0,0,0,97,26.2a4.5,4.5,0,0,0,1.1,3.1,3.424,3.424,0,0,0,2.7,1.2"/><path d="M111.8,22.5a4.281,4.281,0,0,1,1.4-1.6,4.032,4.032,0,0,1,2.2-.6v1.9a3.667,3.667,0,0,0-2.7.9,3.667,3.667,0,0,0-.9,2.7V32h-2V20.4h2Z"/></g></svg>